<svg xmlns="http://www.w3.org/2000/svg" width="286.33" height="128.088" viewBox="0 0 286.33 128.088"><g transform="translate(0.51 0.546)"><g transform="translate(0 0)"><g transform="translate(41.15 32.453)"><path d="M1746.772,2370.9v39.562h-90.209v-60.426h90.209V2370.9" transform="translate(-1541.749 -2342.478)" fill="none" stroke="#fff" stroke-miterlimit="10" stroke-width="1"/><rect width="85.632" height="55.745" transform="translate(117.102 9.895)" fill="none" stroke="#fff" stroke-miterlimit="10" stroke-width="1"/><path d="M1649.785,2443.724l-12.311,23.207h115.576l-13.056-23.207" transform="translate(-1534.972 -2375.744)" fill="none" stroke="#fff" stroke-miterlimit="10" stroke-width="1"/><path d="M1736.3,2473.839l-6.572-10.66h-28.933l-5.53,10.66" transform="translate(-1555.491 -2382.652)" fill="none" stroke="#fff" stroke-miterlimit="10" stroke-width="1"/><rect width="67.757" height="6.793" transform="translate(125.26 15.153)" fill="none" stroke="#fff" stroke-miterlimit="10" stroke-width="1"/><rect width="16.286" height="12.019" transform="translate(125.26 24.293)" fill="none" stroke="#fff" stroke-miterlimit="10" stroke-width="1"/><rect width="16.286" height="23.689" transform="translate(125.26 38.925)" fill="none" stroke="#fff" stroke-miterlimit="10" stroke-width="1"/><line x2="40.41" transform="translate(145.204 27.603)" fill="none" stroke="#fff" stroke-miterlimit="10" stroke-width="1"/><line x2="40.41" transform="translate(145.204 30.041)" fill="none" stroke="#fff" stroke-miterlimit="10" stroke-width="1"/><line x2="40.41" transform="translate(145.204 32.533)" fill="none" stroke="#fff" stroke-miterlimit="10" stroke-width="1"/><line x2="22.729" transform="translate(145.204 35.119)" fill="none" stroke="#fff" stroke-miterlimit="10" stroke-width="1"/><line x2="40.41" transform="translate(145.204 40.201)" fill="none" stroke="#fff" stroke-miterlimit="10" stroke-width="1"/><line x2="40.41" transform="translate(145.204 42.639)" fill="none" stroke="#fff" stroke-miterlimit="10" stroke-width="1"/><line x2="40.41" transform="translate(145.204 45.132)" fill="none" stroke="#fff" stroke-miterlimit="10" stroke-width="1"/><line x2="22.729" transform="translate(145.204 47.718)" fill="none" stroke="#fff" stroke-miterlimit="10" stroke-width="1"/><line x2="23.725" transform="translate(0 40.201)" fill="none" stroke="#fff" stroke-miterlimit="10" stroke-width="1"/><line x2="23.725" transform="translate(0 42.639)" fill="none" stroke="#fff" stroke-miterlimit="10" stroke-width="1"/><line x2="23.725" transform="translate(0 45.132)" fill="none" stroke="#fff" stroke-miterlimit="10" stroke-width="1"/><line x2="13.344" transform="translate(0 47.718)" fill="none" stroke="#fff" stroke-miterlimit="10" stroke-width="1"/><line x2="18.989" transform="translate(28.46 63.307)" fill="none" stroke="#fff" stroke-miterlimit="10" stroke-width="1"/><line x2="23.725" transform="translate(0 52.8)" fill="none" stroke="#fff" stroke-miterlimit="10" stroke-width="1"/><line x2="23.725" transform="translate(0 55.238)" fill="none" stroke="#fff" stroke-miterlimit="10" stroke-width="1"/><line x2="23.725" transform="translate(0 57.73)" fill="none" stroke="#fff" stroke-miterlimit="10" stroke-width="1"/><line x2="23.725" transform="translate(0 59.661)" fill="none" stroke="#fff" stroke-miterlimit="10" stroke-width="1"/><line x2="23.725" transform="translate(0 62.098)" fill="none" stroke="#fff" stroke-miterlimit="10" stroke-width="1"/><line x2="23.725" transform="translate(0 64.591)" fill="none" stroke="#fff" stroke-miterlimit="10" stroke-width="1"/><line x2="23.725" transform="translate(0.337 66.505)" fill="none" stroke="#fff" stroke-miterlimit="10" stroke-width="1"/><line x2="23.725" transform="translate(0.337 68.943)" fill="none" stroke="#fff" stroke-miterlimit="10" stroke-width="1"/><line x2="23.725" transform="translate(0.337 71.435)" fill="none" stroke="#fff" stroke-miterlimit="10" stroke-width="1"/><line x2="40.41" transform="translate(145.204 50.333)" fill="none" stroke="#fff" stroke-miterlimit="10" stroke-width="1"/><line x2="40.41" transform="translate(145.204 52.771)" fill="none" stroke="#fff" stroke-miterlimit="10" stroke-width="1"/><line x2="40.41" transform="translate(145.204 55.263)" fill="none" stroke="#fff" stroke-miterlimit="10" stroke-width="1"/><line x2="22.729" transform="translate(145.204 57.849)" fill="none" stroke="#fff" stroke-miterlimit="10" stroke-width="1"/><path d="M1637.1,2480.257v2.121h116.327v-2.121" transform="translate(-1534.838 -2388.716)" fill="none" stroke="#fff" stroke-miterlimit="10" stroke-width="1"/><path d="M1826.085,2383.426l8.67,15.963,2.8-7.982,7.911,2.66-10.107-16.624" transform="translate(-1601.94 -2352.211)" fill="none" stroke="#fff" stroke-miterlimit="10" stroke-width="1"/><line y1="3.572" x2="2.172" transform="translate(205.347 24.781)" fill="none" stroke="#fff" stroke-miterlimit="10" stroke-width="1"/><path d="M1808.377,2386.019l-8.67,15.964-2.8-7.982" transform="translate(-1591.578 -2355.255)" fill="none" stroke="#fff" stroke-miterlimit="10" stroke-width="1"/><circle cx="15.789" cy="15.789" r="15.789" transform="translate(204.984)" fill="none" stroke="#fff" stroke-miterlimit="10" stroke-width="1"/><circle cx="11.045" cy="11.045" r="11.045" transform="translate(209.728 4.744)" fill="none" stroke="#fff" stroke-miterlimit="10" stroke-width="1"/><path d="M1784.382,2448.845h6.068l3.435,6.183" transform="translate(-1587.133 -2377.563)" fill="none" stroke="#fff" stroke-miterlimit="10" stroke-width="1"/><path d="M1736.782,2466.65h6.068l3.435,6.183" transform="translate(-1570.232 -2383.884)" fill="none" stroke="#fff" stroke-miterlimit="10" stroke-width="1"/></g><g transform="translate(113.639 95.05)"><path d="M1596.222,2442.341s-5.282,0-5.282,4.969c0,0-.262,4.551,4.184,5.44h23.169s2.877-.836,2.877-4.707c0,0,.157-2.877-3.609-3.87a5.4,5.4,0,0,0-3.086-5.439,5.666,5.666,0,0,0-5.386,0s-2.72-4.237-7.113-3.19C1601.976,2435.542,1596.85,2436.013,1596.222,2442.341Z" transform="translate(-1590.938 -2435.376)" fill="none" stroke="#fff" stroke-miterlimit="10" stroke-width="1"/><path d="M1612.215,2440.907s1.556-2.546,4.474-.678" transform="translate(-1598.492 -2436.856)" fill="none" stroke="#fff" stroke-miterlimit="10" stroke-width="1"/><path d="M1599.132,2445.508s1.556-2.546,4.474-.678" transform="translate(-1593.847 -2438.49)" fill="none" stroke="#fff" stroke-miterlimit="10" stroke-width="1"/><path d="M1595.086,2450.535s2.679-2.546,7.7-.679" transform="translate(-1592.411 -2440.274)" fill="none" stroke="#fff" stroke-miterlimit="10" stroke-width="1"/></g><g transform="translate(193.966 16.107)"><path d="M1719.6,2318.4s-4.113,0-4.113,3.868a4.087,4.087,0,0,0,3.258,4.235h18.038a3.552,3.552,0,0,0,2.239-3.665s.123-2.24-2.809-3.014a4.2,4.2,0,0,0-2.4-4.235,4.412,4.412,0,0,0-4.194,0s-2.117-3.3-5.537-2.484C1724.08,2313.1,1720.09,2313.468,1719.6,2318.4Z" transform="translate(-1715.486 -2312.972)" fill="none" stroke="#fff" stroke-miterlimit="10" stroke-width="1"/><path d="M1732.052,2317.279a2.353,2.353,0,0,1,3.483-.528" transform="translate(-1721.368 -2314.125)" fill="none" stroke="#fff" stroke-miterlimit="10" stroke-width="1"/><path d="M1721.866,2320.861a2.353,2.353,0,0,1,3.483-.528" transform="translate(-1717.751 -2315.396)" fill="none" stroke="#fff" stroke-miterlimit="10" stroke-width="1"/><path d="M1718.716,2324.774s2.086-1.983,6-.529" transform="translate(-1716.633 -2316.786)" fill="none" stroke="#fff" stroke-miterlimit="10" stroke-width="1"/></g><g transform="translate(0 53.963)"><path d="M1418.851,2377.093s-4.113,0-4.113,3.868A4.088,4.088,0,0,0,1418,2385.2h18.039a3.553,3.553,0,0,0,2.239-3.665s.122-2.239-2.809-3.013a4.207,4.207,0,0,0-2.4-4.235,4.413,4.413,0,0,0-4.194,0s-2.117-3.3-5.538-2.484C1423.33,2371.8,1419.339,2372.166,1418.851,2377.093Z" transform="translate(-1414.735 -2371.67)" fill="none" stroke="#fff" stroke-miterlimit="10" stroke-width="1"/><path d="M1431.3,2375.977a2.353,2.353,0,0,1,3.483-.529" transform="translate(-1420.617 -2372.823)" fill="none" stroke="#fff" stroke-miterlimit="10" stroke-width="1"/><path d="M1421.116,2379.559a2.353,2.353,0,0,1,3.483-.528" transform="translate(-1417.001 -2374.094)" fill="none" stroke="#fff" stroke-miterlimit="10" stroke-width="1"/><path d="M1417.966,2383.473s2.086-1.982,6-.529" transform="translate(-1415.882 -2375.484)" fill="none" stroke="#fff" stroke-miterlimit="10" stroke-width="1"/></g><g transform="translate(218.691)"><path d="M1759.27,2295.176s-5.444,0-5.444,5.12c0,0-.269,4.689,4.312,5.605h23.876s2.964-.863,2.964-4.851c0,0,.161-2.964-3.719-3.988a5.566,5.566,0,0,0-3.18-5.6,5.84,5.84,0,0,0-5.551,0s-2.8-4.366-7.33-3.288C1765.2,2288.169,1759.917,2288.655,1759.27,2295.176Z" transform="translate(-1753.823 -2287.999)" fill="none" stroke="#fff" stroke-miterlimit="10" stroke-width="1"/><path d="M1775.75,2293.7s1.6-2.624,4.61-.7" transform="translate(-1761.609 -2289.523)" fill="none" stroke="#fff" stroke-miterlimit="10" stroke-width="1"/><path d="M1762.268,2298.439s1.6-2.623,4.611-.7" transform="translate(-1756.822 -2291.207)" fill="none" stroke="#fff" stroke-miterlimit="10" stroke-width="1"/><path d="M1758.1,2303.62s2.762-2.624,7.937-.7" transform="translate(-1755.341 -2293.046)" fill="none" stroke="#fff" stroke-miterlimit="10" stroke-width="1"/></g><rect width="47.449" height="8.061" transform="translate(41.15 21.571)" fill="none" stroke="#fff" stroke-miterlimit="10" stroke-width="1"/><rect width="47.449" height="36.819" transform="translate(41.15 31.946)" fill="none" stroke="#fff" stroke-miterlimit="10" stroke-width="1"/><path d="M1540.32,2444.532l1.338.442-4.911,3.232-3.8.682-4.36,4.733-2.611-1.994-3.309,3.988" transform="translate(-1453.058 -2343.578)" fill="none" stroke="#fff" stroke-miterlimit="10" stroke-width="1"/><line y1="1.427" x2="0.398" transform="translate(88.386 101.316)" fill="none" stroke="#fff" stroke-miterlimit="10" stroke-width="1"/><rect width="23.725" height="4.506" transform="translate(41.488 107.532)" fill="none" stroke="#fff" stroke-miterlimit="10" stroke-width="1"/><g transform="translate(111.619 32.205)"><line y2="4.23" transform="translate(7.774)" fill="#fff" stroke="#fff" stroke-miterlimit="10" stroke-width="1"/><line y1="2.915" x2="2.973" transform="translate(10.404 2.344)" fill="#fff" stroke="#fff" stroke-miterlimit="10" stroke-width="1"/><line x2="4.23" transform="translate(11.433 7.832)" fill="#fff" stroke="#fff" stroke-miterlimit="10" stroke-width="1"/><line x2="2.973" y2="2.998" transform="translate(10.404 10.518)" fill="#fff" stroke="#fff" stroke-miterlimit="10" stroke-width="1"/><line y2="3.944" transform="translate(7.774 11.662)" fill="#fff" stroke="#fff" stroke-miterlimit="10" stroke-width="1"/><line x1="2.915" y2="2.998" transform="translate(2.229 10.518)" fill="#fff" stroke="#fff" stroke-miterlimit="10" stroke-width="1"/><line x1="4.002" transform="translate(0 7.832)" fill="#fff" stroke="#fff" stroke-miterlimit="10" stroke-width="1"/><line x2="2.915" y2="3.144" transform="translate(2.229 2.115)" fill="#fff" stroke="#fff" stroke-miterlimit="10" stroke-width="1"/></g><g transform="translate(170.854 22.16)"><line y2="2.803" transform="translate(5.152)" fill="#fff" stroke="#fff" stroke-miterlimit="10" stroke-width="1"/><line y1="1.932" x2="1.97" transform="translate(6.895 1.553)" fill="#fff" stroke="#fff" stroke-miterlimit="10" stroke-width="1"/><line x2="2.803" transform="translate(7.577 5.19)" fill="#fff" stroke="#fff" stroke-miterlimit="10" stroke-width="1"/><line x2="1.97" y2="1.987" transform="translate(6.895 6.971)" fill="#fff" stroke="#fff" stroke-miterlimit="10" stroke-width="1"/><line y2="2.614" transform="translate(5.152 7.728)" fill="#fff" stroke="#fff" stroke-miterlimit="10" stroke-width="1"/><line x1="1.932" y2="1.987" transform="translate(1.478 6.971)" fill="#fff" stroke="#fff" stroke-miterlimit="10" stroke-width="1"/><line x1="2.652" transform="translate(0 5.19)" fill="#fff" stroke="#fff" stroke-miterlimit="10" stroke-width="1"/><line x2="1.932" y2="2.084" transform="translate(1.478 1.402)" fill="#fff" stroke="#fff" stroke-miterlimit="10" stroke-width="1"/></g></g><g transform="translate(28.874 8.136)"><circle cx="2.534" cy="2.534" r="2.534" transform="translate(33.888 112.257)" fill="none" stroke="#fff" stroke-miterlimit="10" stroke-width="1"/><g transform="translate(17.526 28.335)"><g transform="translate(8.93)"><path d="M1509.185,2350.092v-5.545h-6.312a23.038,23.038,0,0,0-2.347.118l4.163,5.427Z" transform="translate(-1500.526 -2344.547)" fill="none" stroke="#fff" stroke-miterlimit="10" stroke-width="1"/></g><g transform="translate(0.709 0.4)"><path d="M1494.246,2352.572a2.8,2.8,0,0,1,.792-1.283,3.382,3.382,0,0,1,1.515-.745,8.746,8.746,0,0,1,1.561-.208l-3.929-5.17c-3.242.689-5.383,2.278-6.406,4.78l6.431,2.768c.013-.047.022-.1.036-.143" transform="translate(-1487.779 -2345.167)" fill="none" stroke="#fff" stroke-miterlimit="10" stroke-width="1"/></g><g transform="translate(0 6.493)"><path d="M1493.623,2361.119v-3.3c0-.1.005-.2.007-.292l-6.646-2.908a11.95,11.95,0,0,0-.3,2.733v3.772h6.943Z" transform="translate(-1486.68 -2354.614)" fill="none" stroke="#fff" stroke-miterlimit="10" stroke-width="1"/></g><g transform="translate(0 14.331)"><path d="M1493.623,2370.143v-3.375h-6.943v4.261a11.8,11.8,0,0,0,.3,2.7l6.667-2.928c-.016-.21-.025-.427-.025-.658" transform="translate(-1486.68 -2366.768)" fill="none" stroke="#fff" stroke-miterlimit="10" stroke-width="1"/></g><g transform="translate(0.705 19.782)"><path d="M1495.153,2376.452a2.64,2.64,0,0,1-.842-1.233l-6.538,2.827a7.1,7.1,0,0,0,2.022,2.782l.273.22.336.244.168.109.2.131.356.205.609.3.344.139.378.152a12.963,12.963,0,0,0,2.046.552l4.2-5.552a6.036,6.036,0,0,1-3.552-.88" transform="translate(-1487.773 -2375.22)" fill="none" stroke="#fff" stroke-miterlimit="10" stroke-width="1"/></g><g transform="translate(9.246 21.899)"><path d="M1505.453,2378.5l-4.436,5.78c.646.054,1.315.092,2.03.092h6.312V2378.5Z" transform="translate(-1501.017 -2378.503)" fill="none" stroke="#fff" stroke-miterlimit="10" stroke-width="1"/></g><g transform="translate(19.364 21.899)"><path d="M1516.7,2378.5v5.872h6.312a23.073,23.073,0,0,0,2.361-.119l-4.438-5.753Z" transform="translate(-1516.704 -2378.503)" fill="none" stroke="#fff" stroke-miterlimit="10" stroke-width="1"/></g><g transform="translate(25.649 19.795)"><path d="M1537.071,2378.034l-6.523-2.794a2.854,2.854,0,0,1-.741,1.149,5.328,5.328,0,0,1-3.357.943l4.189,5.49q4.911-1.028,6.432-4.788" transform="translate(-1526.45 -2375.24)" fill="none" stroke="#fff" stroke-miterlimit="10" stroke-width="1"/></g><g transform="translate(30.033 14.774)"><path d="M1533.268,2367.454v3.025c0,.2-.009.4-.021.584l6.636,2.894a11.634,11.634,0,0,0,.281-2.593v-3.911Z" transform="translate(-1533.247 -2367.454)" fill="none" stroke="#fff" stroke-miterlimit="10" stroke-width="1"/></g><g transform="translate(30.044 6.527)"><path d="M1533.274,2357.879v3.7h6.9v-4.214a11.9,11.9,0,0,0-.3-2.7l-6.609,2.856c.005.117.01.233.01.355" transform="translate(-1533.264 -2354.668)" fill="none" stroke="#fff" stroke-miterlimit="10" stroke-width="1"/></g><g transform="translate(25.552 0.324)"><path d="M1526.423,2350.271a4.53,4.53,0,0,1,3.4,1.048,3.352,3.352,0,0,1,.743,1.347l6.413-2.776q-1.591-3.87-6.727-4.84l-3.954,5.221Z" transform="translate(-1526.3 -2345.05)" fill="none" stroke="#fff" stroke-miterlimit="10" stroke-width="1"/></g><path d="M1520.827,2350.092l4.189-5.455c-.637-.054-1.3-.09-2-.09h-6.31v5.545Z" transform="translate(-1497.341 -2344.547)" fill="none" stroke="#fff" stroke-miterlimit="10" stroke-width="1"/></g><rect width="72.844" height="118.906" rx="12" fill="none" stroke="#fff" stroke-miterlimit="10" stroke-width="1"/><rect width="61.725" height="103.894" rx="12" transform="translate(5.559 6.281)" fill="none" stroke="#fff" stroke-miterlimit="10" stroke-width="1"/><rect width="38.973" height="2.239" transform="translate(17.487 1.885)" fill="none" stroke="#fff" stroke-miterlimit="10" stroke-width="1"/><line y1="22.412" x2="54.077" transform="translate(72.844 64.519)" fill="#fff" stroke="#fff" stroke-miterlimit="10" stroke-width="1"/></g><g transform="translate(69.61 72.655)"><path d="M1541.473,2411.033a9.4,9.4,0,1,1-9.4-9.4" transform="translate(-1522.669 -2401)" fill="none" stroke="#fff" stroke-miterlimit="10" stroke-width="1"/><path d="M1536.977,2410.686l9.7-1.846a8.188,8.188,0,0,0-8.187-8.187l-1.338,10.033" transform="translate(-1527.749 -2400.653)" fill="none" stroke="#fff" stroke-miterlimit="10" stroke-width="1"/></g></g></svg>