<svg xmlns="http://www.w3.org/2000/svg" width="673.864" height="300.994" viewBox="0 0 673.864 300.994"><g transform="translate(-1414.227 -2287.488)"><g transform="translate(1414.735 2287.999)"><g transform="translate(97.168 76.632)"><path d="M1869.573,2399.3v93.417h-213.01V2350.032h213.01V2399.3" transform="translate(-1385.456 -2332.194)" fill="none" stroke="#fff" stroke-miterlimit="10" stroke-width="1"/><rect width="202.201" height="131.63" transform="translate(276.512 23.364)" fill="none" stroke="#fff" stroke-miterlimit="10" stroke-width="1"/><path d="M1666.543,2443.724l-29.069,54.8h272.909l-30.83-54.8" transform="translate(-1395.437 -2283.203)" fill="none" stroke="#fff" stroke-miterlimit="10" stroke-width="1"/><path d="M1792.16,2488.35l-15.519-25.171h-68.32l-13.058,25.171" transform="translate(-1365.22 -2273.031)" fill="none" stroke="#fff" stroke-miterlimit="10" stroke-width="1"/><rect width="159.994" height="16.041" transform="translate(295.774 35.78)" fill="none" stroke="#fff" stroke-miterlimit="10" stroke-width="1"/><rect width="38.456" height="28.379" transform="translate(295.774 57.364)" fill="none" stroke="#fff" stroke-miterlimit="10" stroke-width="1"/><rect width="38.456" height="55.936" transform="translate(295.774 91.913)" fill="none" stroke="#fff" stroke-miterlimit="10" stroke-width="1"/><line x2="95.421" transform="translate(342.868 65.178)" fill="none" stroke="#fff" stroke-miterlimit="10" stroke-width="1"/><line x2="95.421" transform="translate(342.868 70.935)" fill="none" stroke="#fff" stroke-miterlimit="10" stroke-width="1"/><line x2="95.421" transform="translate(342.868 76.82)" fill="none" stroke="#fff" stroke-miterlimit="10" stroke-width="1"/><line x2="53.669" transform="translate(342.868 82.926)" fill="none" stroke="#fff" stroke-miterlimit="10" stroke-width="1"/><line x2="95.421" transform="translate(342.868 94.927)" fill="none" stroke="#fff" stroke-miterlimit="10" stroke-width="1"/><line x2="95.421" transform="translate(342.868 100.684)" fill="none" stroke="#fff" stroke-miterlimit="10" stroke-width="1"/><line x2="95.421" transform="translate(342.868 106.569)" fill="none" stroke="#fff" stroke-miterlimit="10" stroke-width="1"/><line x2="53.669" transform="translate(342.868 112.675)" fill="none" stroke="#fff" stroke-miterlimit="10" stroke-width="1"/><line x2="56.021" transform="translate(0 94.927)" fill="none" stroke="#fff" stroke-miterlimit="10" stroke-width="1"/><line x2="56.021" transform="translate(0 100.684)" fill="none" stroke="#fff" stroke-miterlimit="10" stroke-width="1"/><line x2="56.021" transform="translate(0 106.569)" fill="none" stroke="#fff" stroke-miterlimit="10" stroke-width="1"/><line x2="31.509" transform="translate(0 112.675)" fill="none" stroke="#fff" stroke-miterlimit="10" stroke-width="1"/><line x2="44.84" transform="translate(67.202 149.487)" fill="none" stroke="#fff" stroke-miterlimit="10" stroke-width="1"/><line x2="56.021" transform="translate(0 124.676)" fill="none" stroke="#fff" stroke-miterlimit="10" stroke-width="1"/><line x2="56.021" transform="translate(0 130.433)" fill="none" stroke="#fff" stroke-miterlimit="10" stroke-width="1"/><line x2="56.021" transform="translate(0 136.318)" fill="none" stroke="#fff" stroke-miterlimit="10" stroke-width="1"/><line x2="56.021" transform="translate(0 140.876)" fill="none" stroke="#fff" stroke-miterlimit="10" stroke-width="1"/><line x2="56.021" transform="translate(0 146.632)" fill="none" stroke="#fff" stroke-miterlimit="10" stroke-width="1"/><line x2="56.021" transform="translate(0 152.517)" fill="none" stroke="#fff" stroke-miterlimit="10" stroke-width="1"/><line x2="56.021" transform="translate(0.797 157.038)" fill="none" stroke="#fff" stroke-miterlimit="10" stroke-width="1"/><line x2="56.021" transform="translate(0.797 162.794)" fill="none" stroke="#fff" stroke-miterlimit="10" stroke-width="1"/><line x2="56.021" transform="translate(0.797 168.679)" fill="none" stroke="#fff" stroke-miterlimit="10" stroke-width="1"/><line x2="95.421" transform="translate(342.868 118.85)" fill="none" stroke="#fff" stroke-miterlimit="10" stroke-width="1"/><line x2="95.421" transform="translate(342.868 124.607)" fill="none" stroke="#fff" stroke-miterlimit="10" stroke-width="1"/><line x2="95.421" transform="translate(342.868 130.492)" fill="none" stroke="#fff" stroke-miterlimit="10" stroke-width="1"/><line x2="53.669" transform="translate(342.868 136.598)" fill="none" stroke="#fff" stroke-miterlimit="10" stroke-width="1"/><path d="M1637.1,2480.257v5.009h274.682v-5.009" transform="translate(-1395.634 -2264.101)" fill="none" stroke="#fff" stroke-miterlimit="10" stroke-width="1"/><path d="M1826.085,2391.57l20.473,37.695,6.623-18.848,18.68,6.281L1848,2377.444" transform="translate(-1296.814 -2317.861)" fill="none" stroke="#fff" stroke-miterlimit="10" stroke-width="1"/><line y1="8.435" x2="5.128" transform="translate(484.884 58.516)" fill="none" stroke="#fff" stroke-miterlimit="10" stroke-width="1"/><path d="M1824,2386.019l-20.473,37.7-6.623-18.847" transform="translate(-1312.074 -2313.377)" fill="none" stroke="#fff" stroke-miterlimit="10" stroke-width="1"/><circle cx="37.283" cy="37.283" r="37.283" transform="translate(484.026)" fill="none" stroke="#fff" stroke-miterlimit="10" stroke-width="1"/><circle cx="26.081" cy="26.081" r="26.081" transform="translate(495.228 11.202)" fill="none" stroke="#fff" stroke-miterlimit="10" stroke-width="1"/><path d="M1784.382,2448.845h14.329l8.111,14.6" transform="translate(-1318.62 -2280.526)" fill="none" stroke="#fff" stroke-miterlimit="10" stroke-width="1"/><path d="M1736.782,2466.65h14.329l8.111,14.6" transform="translate(-1343.51 -2271.216)" fill="none" stroke="#fff" stroke-miterlimit="10" stroke-width="1"/></g><g transform="translate(268.336 224.44)"><path d="M1603.417,2451.823s-12.472,0-12.472,11.732c0,0-.619,10.746,9.879,12.844h54.71s6.793-1.975,6.793-11.114c0,0,.37-6.792-8.522-9.139,0,0,1.358-8.275-7.287-12.844,0,0-6.3-3.705-12.719,0,0,0-6.422-10-16.8-7.534C1617,2435.769,1604.9,2436.88,1603.417,2451.823Z" transform="translate(-1590.938 -2435.376)" fill="none" stroke="#fff" stroke-miterlimit="10" stroke-width="1"/><path d="M1612.215,2442.763s3.675-6.012,10.564-1.6" transform="translate(-1579.812 -2433.197)" fill="none" stroke="#fff" stroke-miterlimit="10" stroke-width="1"/><path d="M1599.132,2447.364s3.675-6.012,10.564-1.6" transform="translate(-1586.653 -2430.791)" fill="none" stroke="#fff" stroke-miterlimit="10" stroke-width="1"/><path d="M1595.086,2452.391s6.327-6.012,18.189-1.6" transform="translate(-1588.768 -2428.163)" fill="none" stroke="#fff" stroke-miterlimit="10" stroke-width="1"/></g><g transform="translate(458.01 38.032)"><path d="M1725.2,2325.778s-9.711,0-9.711,9.134c0,0-.481,8.364,7.692,10h42.594s5.288-1.538,5.288-8.653c0,0,.289-5.289-6.634-7.116a9.929,9.929,0,0,0-5.673-10,10.42,10.42,0,0,0-9.9,0s-5-7.788-13.075-5.864C1735.78,2313.278,1726.356,2314.143,1725.2,2325.778Z" transform="translate(-1715.486 -2312.972)" fill="none" stroke="#fff" stroke-miterlimit="10" stroke-width="1"/><path d="M1732.052,2318.723s2.862-4.68,8.225-1.248" transform="translate(-1706.824 -2311.275)" fill="none" stroke="#fff" stroke-miterlimit="10" stroke-width="1"/><path d="M1721.866,2322.3s2.862-4.68,8.225-1.247" transform="translate(-1712.151 -2309.402)" fill="none" stroke="#fff" stroke-miterlimit="10" stroke-width="1"/><path d="M1718.716,2326.219s4.927-4.681,14.161-1.248" transform="translate(-1713.798 -2307.356)" fill="none" stroke="#fff" stroke-miterlimit="10" stroke-width="1"/></g><g transform="translate(0 127.423)"><path d="M1424.452,2384.474s-9.712,0-9.712,9.134c0,0-.48,8.365,7.692,10h42.6s5.287-1.539,5.287-8.655c0,0,.288-5.287-6.634-7.115a9.932,9.932,0,0,0-5.673-10,10.419,10.419,0,0,0-9.9,0s-5-7.788-13.077-5.865C1435.029,2371.976,1425.607,2372.841,1424.452,2384.474Z" transform="translate(-1414.735 -2371.67)" fill="none" stroke="#fff" stroke-miterlimit="10" stroke-width="1"/><path d="M1431.3,2377.422s2.862-4.681,8.225-1.249" transform="translate(-1406.074 -2369.974)" fill="none" stroke="#fff" stroke-miterlimit="10" stroke-width="1"/><path d="M1421.116,2381s2.861-4.681,8.225-1.248" transform="translate(-1411.399 -2368.1)" fill="none" stroke="#fff" stroke-miterlimit="10" stroke-width="1"/><path d="M1417.966,2384.918s4.927-4.681,14.161-1.249" transform="translate(-1413.046 -2366.054)" fill="none" stroke="#fff" stroke-miterlimit="10" stroke-width="1"/></g><g transform="translate(516.392)"><path d="M1766.685,2304.948s-12.855,0-12.855,12.089c0,0-.635,11.073,10.182,13.236h56.377s7-2.036,7-11.454c0,0,.381-7-8.781-9.417,0,0,1.4-8.527-7.51-13.234,0,0-6.49-3.818-13.107,0,0,0-6.619-10.309-17.308-7.764C1780.683,2288.4,1768.211,2289.548,1766.685,2304.948Z" transform="translate(-1753.823 -2287.999)" fill="none" stroke="#fff" stroke-miterlimit="10" stroke-width="1"/><path d="M1775.75,2295.611s3.787-6.2,10.885-1.653" transform="translate(-1742.358 -2285.752)" fill="none" stroke="#fff" stroke-miterlimit="10" stroke-width="1"/><path d="M1762.268,2300.352s3.787-6.195,10.887-1.652" transform="translate(-1749.408 -2283.273)" fill="none" stroke="#fff" stroke-miterlimit="10" stroke-width="1"/><path d="M1758.1,2305.532s6.521-6.2,18.742-1.652" transform="translate(-1751.588 -2280.565)" fill="none" stroke="#fff" stroke-miterlimit="10" stroke-width="1"/></g><rect width="112.041" height="19.035" transform="translate(97.168 50.936)" fill="none" stroke="#fff" stroke-miterlimit="10" stroke-width="1"/><rect width="112.041" height="86.941" transform="translate(97.168 75.435)" fill="none" stroke="#fff" stroke-miterlimit="10" stroke-width="1"/><path d="M1564.348,2444.532l3.16,1.042-11.6,7.633-8.965,1.61-10.3,11.176-6.166-4.708-7.815,9.416" transform="translate(-1358.299 -2206.149)" fill="none" stroke="#fff" stroke-miterlimit="10" stroke-width="1"/><line y1="3.37" x2="0.94" transform="translate(208.706 239.237)" fill="none" stroke="#fff" stroke-miterlimit="10" stroke-width="1"/><rect width="56.021" height="10.639" transform="translate(97.965 253.913)" fill="none" stroke="#fff" stroke-miterlimit="10" stroke-width="1"/><g transform="translate(263.564 76.045)"><line y2="9.989" transform="translate(18.358)" fill="#fff" stroke="#fff" stroke-miterlimit="10" stroke-width="1"/><line y1="6.884" x2="7.019" transform="translate(24.567 5.534)" fill="#fff" stroke="#fff" stroke-miterlimit="10" stroke-width="1"/><line x2="9.989" transform="translate(26.996 18.493)" fill="#fff" stroke="#fff" stroke-miterlimit="10" stroke-width="1"/><line x2="7.019" y2="7.08" transform="translate(24.567 24.837)" fill="#fff" stroke="#fff" stroke-miterlimit="10" stroke-width="1"/><line y2="9.314" transform="translate(18.358 27.537)" fill="#fff" stroke="#fff" stroke-miterlimit="10" stroke-width="1"/><line x1="6.884" y2="7.08" transform="translate(5.264 24.837)" fill="#fff" stroke="#fff" stroke-miterlimit="10" stroke-width="1"/><line x1="9.449" transform="translate(0 18.493)" fill="#fff" stroke="#fff" stroke-miterlimit="10" stroke-width="1"/><line x2="6.884" y2="7.424" transform="translate(5.264 4.994)" fill="#fff" stroke="#fff" stroke-miterlimit="10" stroke-width="1"/></g><g transform="translate(403.435 52.325)"><line y2="6.62" transform="translate(12.166)" fill="#fff" stroke="#fff" stroke-miterlimit="10" stroke-width="1"/><line y1="4.562" x2="4.652" transform="translate(16.281 3.668)" fill="#fff" stroke="#fff" stroke-miterlimit="10" stroke-width="1"/><line x2="6.62" transform="translate(17.891 12.256)" fill="#fff" stroke="#fff" stroke-miterlimit="10" stroke-width="1"/><line x2="4.652" y2="4.692" transform="translate(16.281 16.46)" fill="#fff" stroke="#fff" stroke-miterlimit="10" stroke-width="1"/><line y2="6.172" transform="translate(12.166 18.249)" fill="#fff" stroke="#fff" stroke-miterlimit="10" stroke-width="1"/><line x1="4.562" y2="4.692" transform="translate(3.489 16.46)" fill="#fff" stroke="#fff" stroke-miterlimit="10" stroke-width="1"/><line x1="6.262" transform="translate(0 12.256)" fill="#fff" stroke="#fff" stroke-miterlimit="10" stroke-width="1"/><line x2="4.562" y2="4.92" transform="translate(3.489 3.31)" fill="#fff" stroke="#fff" stroke-miterlimit="10" stroke-width="1"/></g></g><g transform="translate(1482.914 2307.209)"><circle cx="5.983" cy="5.983" r="5.983" transform="translate(80.02 265.071)" fill="none" stroke="#fff" stroke-miterlimit="10" stroke-width="1"/><g transform="translate(41.385 66.906)"><g transform="translate(21.086)"><path d="M1520.972,2357.641v-13.094h-14.9a54.444,54.444,0,0,0-5.542.28l9.83,12.814Z" transform="translate(-1500.526 -2344.547)" fill="none" stroke="#fff" stroke-miterlimit="10" stroke-width="1"/></g><g transform="translate(1.674 0.944)"><path d="M1503.05,2362.653a6.612,6.612,0,0,1,1.87-3.029,7.986,7.986,0,0,1,3.577-1.759,20.626,20.626,0,0,1,3.685-.49l-9.277-12.208c-7.654,1.627-12.712,5.379-15.127,11.288l15.186,6.535c.031-.111.052-.23.085-.337" transform="translate(-1487.779 -2345.167)" fill="none" stroke="#fff" stroke-miterlimit="10" stroke-width="1"/></g><g transform="translate(0 15.331)"><path d="M1503.075,2369.974v-7.8c0-.243.012-.464.017-.689l-15.693-6.867a28.22,28.22,0,0,0-.719,6.453v8.907h16.4Z" transform="translate(-1486.68 -2354.614)" fill="none" stroke="#fff" stroke-miterlimit="10" stroke-width="1"/></g><g transform="translate(0 33.84)"><path d="M1503.075,2374.737v-7.969h-16.4v10.062a27.857,27.857,0,0,0,.711,6.376l15.744-6.914c-.038-.5-.059-1.01-.059-1.555" transform="translate(-1486.68 -2366.768)" fill="none" stroke="#fff" stroke-miterlimit="10" stroke-width="1"/></g><g transform="translate(1.664 46.711)"><path d="M1505.2,2378.131a6.238,6.238,0,0,1-1.989-2.911l-15.437,6.675a16.764,16.764,0,0,0,4.776,6.569l.644.519.793.576.4.257.479.309.841.484,1.439.719.812.329.893.36a30.587,30.587,0,0,0,4.831,1.3l9.908-13.11c-3.871-.064-6.675-.751-8.387-2.079" transform="translate(-1487.773 -2375.22)" fill="none" stroke="#fff" stroke-miterlimit="10" stroke-width="1"/></g><g transform="translate(21.833 51.711)"><path d="M1511.491,2378.5l-10.474,13.648c1.524.128,3.105.218,4.792.218h14.9V2378.5Z" transform="translate(-1501.017 -2378.503)" fill="none" stroke="#fff" stroke-miterlimit="10" stroke-width="1"/></g><g transform="translate(45.723 51.711)"><path d="M1516.7,2378.5v13.866h14.9a54.533,54.533,0,0,0,5.575-.281L1526.7,2378.5Z" transform="translate(-1516.704 -2378.503)" fill="none" stroke="#fff" stroke-miterlimit="10" stroke-width="1"/></g><g transform="translate(60.565 46.742)"><path d="M1551.53,2381.837l-15.4-6.6a6.739,6.739,0,0,1-1.75,2.712c-1.479,1.351-4.129,2.088-7.928,2.228l9.891,12.963q11.6-2.428,15.189-11.306" transform="translate(-1526.45 -2375.24)" fill="none" stroke="#fff" stroke-miterlimit="10" stroke-width="1"/></g><g transform="translate(70.916 34.885)"><path d="M1533.3,2367.454v7.144c0,.481-.021.941-.05,1.38l15.671,6.833a27.469,27.469,0,0,0,.664-6.122v-9.221l0-.013Z" transform="translate(-1533.247 -2367.454)" fill="none" stroke="#fff" stroke-miterlimit="10" stroke-width="1"/></g><g transform="translate(70.942 15.413)"><path d="M1533.288,2362.25v8.74h16.284v-9.95a28.086,28.086,0,0,0-.7-6.372l-15.607,6.743c.012.277.025.55.025.839" transform="translate(-1533.264 -2354.668)" fill="none" stroke="#fff" stroke-miterlimit="10" stroke-width="1"/></g><g transform="translate(60.337 0.766)"><path d="M1526.589,2357.378q5.718,0,8.033,2.475a7.919,7.919,0,0,1,1.754,3.181l15.144-6.554q-3.758-9.138-15.883-11.429l-9.337,12.328Z" transform="translate(-1526.3 -2345.05)" fill="none" stroke="#fff" stroke-miterlimit="10" stroke-width="1"/></g><path d="M1526.438,2357.641l9.891-12.881c-1.5-.128-3.064-.213-4.724-.213h-14.9v13.094Z" transform="translate(-1470.98 -2344.547)" fill="none" stroke="#fff" stroke-miterlimit="10" stroke-width="1"/></g><rect width="172.006" height="280.773" rx="12" fill="none" stroke="#fff" stroke-miterlimit="10" stroke-width="1"/><rect width="145.752" height="245.323" rx="12" transform="translate(13.127 14.832)" fill="none" stroke="#fff" stroke-miterlimit="10" stroke-width="1"/><rect width="92.026" height="5.287" transform="translate(41.291 4.45)" fill="none" stroke="#fff" stroke-miterlimit="10" stroke-width="1"/><line y1="52.921" x2="127.692" transform="translate(172.006 152.349)" fill="#fff" stroke="#fff" stroke-miterlimit="10" stroke-width="1"/></g><g transform="translate(1579.106 2459.559)"><path d="M1567.07,2423.833a22.2,22.2,0,1,1-22.2-22.2" transform="translate(-1522.669 -2400.142)" fill="none" stroke="#fff" stroke-miterlimit="10" stroke-width="1"/><path d="M1536.977,2424.344l22.9-4.359a19.333,19.333,0,0,0-19.333-19.333l-3.16,23.691" transform="translate(-1515.188 -2400.653)" fill="none" stroke="#fff" stroke-miterlimit="10" stroke-width="1"/></g></g></svg>