<svg xmlns="http://www.w3.org/2000/svg" width="35.177" height="33.613" viewBox="0 0 35.177 33.613"><path d="M35.177,30.166V43.172h-7.54V31.037c0-3.048-1.091-5.128-3.82-5.128a4.126,4.126,0,0,0-3.868,2.758,5.159,5.159,0,0,0-.25,1.838V43.172H12.157s.1-20.551,0-22.68H19.7v3.215c-.015.024-.035.05-.05.073h.05v-.073a7.488,7.488,0,0,1,6.8-3.748C31.457,19.958,35.177,23.2,35.177,30.166ZM4.268,9.558a3.93,3.93,0,1,0-.1,7.839h.05a3.932,3.932,0,1,0,.05-7.839ZM.448,43.172H7.987V20.491H.448Z" transform="translate(0 -9.558)" fill="#fff"/></svg>