<svg xmlns="http://www.w3.org/2000/svg" width="62.221" height="55.759" viewBox="0 0 62.221 55.759"><g transform="translate(-0.071 0.038)"><path d="M21.88,26.35a.51.51,0,0,1-.32-.91L53.35.11a.51.51,0,0,1,.74.68l-15.88,24a.511.511,0,0,1-.38.23L21.92,26.35h-.04ZM51.46,2.92l-28,22.3,14-1.16ZM37.78,24.54"/><path d="M61.79,33.97a.5.5,0,0,1-.25-.07L44.79,24.47a.51.51,0,0,1-.23-.62L53.16.35a.51.51,0,0,1,1,.05l8.12,32.95a.51.51,0,0,1-.388.608A.58.58,0,0,1,61.79,33.97ZM45.67,23.79l15.36,8.65L53.55,2.26Z"/><path d="M43.2,33.09a.509.509,0,0,1-.42-.22l-5.41-8a.51.51,0,0,1,.784-.652.516.516,0,0,1,.056.082l4.75,7,1.62-7.4a.512.512,0,0,1,1,.22h0l-1.87,8.56a.51.51,0,0,1-.4.39h-.1Z"/><path d="M43.2,33.09a.51.51,0,0,1-.495-.525.519.519,0,0,1,.055-.215l4.27-7.12a.51.51,0,1,1,.87.52l-4.27,7.09A.51.51,0,0,1,43.2,33.09Z"/><path d="M11.62,55.72A88.745,88.745,0,0,1,.44,54.99a.51.51,0,0,1,.13-1,75.1,75.1,0,0,0,22-.16c6.37-1.12,11.54-3.31,14.94-6.31a13.549,13.549,0,0,0,4.9-10.57.52.52,0,0,1,.51-.53h0a.52.52,0,0,1,.51.52,14.481,14.481,0,0,1-1.34,6.26,15.625,15.625,0,0,1-3.86,5.05c-3.54,3.13-8.88,5.4-15.43,6.56A64.827,64.827,0,0,1,11.62,55.72Z"/><path d="M15.66,38.62a.51.51,0,0,1-.44-.77l5.74-9.5a.51.51,0,0,1,.87.53l-5.74,9.47A.51.51,0,0,1,15.66,38.62Z"/><path d="M29.54,37.09a.51.51,0,0,1-.5-.525.519.519,0,0,1,.055-.215l3.11-5.15a.51.51,0,0,1,.87.53l-3.11,5.15A.511.511,0,0,1,29.54,37.09Z"/><path d="M56.44,43.35a.51.51,0,0,1-.41-.74l3.16-5.26a.51.51,0,0,1,.9.486c-.009.015-.017.03-.027.044l-3.19,5.29A.509.509,0,0,1,56.44,43.35Z"/></g></svg>