<svg xmlns="http://www.w3.org/2000/svg" width="36.373" height="29.545" viewBox="0 0 36.373 29.545"><path d="M36.374,60.937a14.9,14.9,0,0,1-4.284,1.175,7.492,7.492,0,0,0,3.28-4.125A15.042,15.042,0,0,1,30.628,59.8a7.467,7.467,0,0,0-12.714,6.8A21.184,21.184,0,0,1,2.535,58.8a7.47,7.47,0,0,0,2.309,9.96,7.462,7.462,0,0,1-3.38-.936v.093a7.469,7.469,0,0,0,5.984,7.316,7.558,7.558,0,0,1-1.966.261,7.16,7.16,0,0,1-1.4-.139,7.465,7.465,0,0,0,6.969,5.182,14.97,14.97,0,0,1-9.267,3.189,15.859,15.859,0,0,1-1.78-.1,21.091,21.091,0,0,0,11.437,3.357c13.726,0,21.229-11.369,21.229-21.229l-.025-.966A14.9,14.9,0,0,0,36.374,60.937Z" transform="translate(-0.001 -57.441)" fill="#fff"/></svg>