<svg xmlns="http://www.w3.org/2000/svg" width="32.89" height="32.89" viewBox="0 0 32.89 32.89"><path d="M31.65,1.242A4.06,4.06,0,0,0,28.673,0H4.22A4.061,4.061,0,0,0,1.243,1.242,4.059,4.059,0,0,0,0,4.218V28.672a4.06,4.06,0,0,0,1.242,2.976A4.061,4.061,0,0,0,4.22,32.89H28.673a4.241,4.241,0,0,0,4.218-4.218V4.218A4.059,4.059,0,0,0,31.65,1.242ZM11.811,11.852a6.462,6.462,0,0,1,4.657-1.874,6.488,6.488,0,0,1,4.679,1.874,6.068,6.068,0,0,1,1.938,4.529,6.067,6.067,0,0,1-1.938,4.528,6.485,6.485,0,0,1-4.679,1.874,6.462,6.462,0,0,1-4.657-1.874,6.068,6.068,0,0,1-1.938-4.528A6.069,6.069,0,0,1,11.811,11.852ZM29.166,27.794a1.248,1.248,0,0,1-.386.931,1.276,1.276,0,0,1-.921.375H4.969a1.28,1.28,0,0,1-1.306-1.306V13.918H6.682a9.221,9.221,0,0,0-.428,2.805,9.4,9.4,0,0,0,3,7.013,10.005,10.005,0,0,0,7.216,2.9,10.293,10.293,0,0,0,5.14-1.328A10,10,0,0,0,25.333,21.7,9.488,9.488,0,0,0,26.7,16.723a9.222,9.222,0,0,0-.429-2.805h2.891V27.794h0Zm0-19.122a1.463,1.463,0,0,1-1.478,1.478H23.962a1.462,1.462,0,0,1-1.477-1.478V5.139A1.438,1.438,0,0,1,22.913,4.1a1.41,1.41,0,0,1,1.049-.439h3.726a1.408,1.408,0,0,1,1.049.439,1.436,1.436,0,0,1,.429,1.039Z" transform="translate(-0.001 0)" fill="#fff"/></svg>