<svg xmlns="http://www.w3.org/2000/svg" width="134.552" height="34.266" viewBox="0 0 134.552 34.266"><g transform="translate(-0.449 -1.004)"><path d="M21.183,4.6H6.064c-.972,0-1.4.432-1.4,1.3V6.54a1.255,1.255,0,0,0,1.4,1.4H17.511c2.808,0,4.212,1.188,4.212,3.672v2.7c0,2.592-1.4,3.78-4.212,3.78H.665V14.531h15.55c.864,0,1.3-.432,1.3-1.4v-.864a1.145,1.145,0,0,0-1.3-1.3H4.661C1.853,10.968.449,9.78.449,7.3V4.921c0-2.484,1.4-3.672,4.212-3.672H21.183Z" transform="translate(0 -0.137)" fill="#fff"/><path d="M59.307,17.987H55.1V1.249h4.212Z" transform="translate(-30.565 -0.137)" fill="#fff"/><path d="M118.365,17.987h-4.212V1.249h4.212Z" transform="translate(-63.598 -0.137)" fill="#fff"/><path d="M150.5,4.459H137.864c-2.052,0-2.592.972-2.592,2.7v5.075c0,1.512.864,2.16,2.592,2.16h12.742V17.85H137.864q-6.8,0-6.8-5.508V6.619c0-3.671,2.268-5.615,6.8-5.615H150.5Z" transform="translate(-73.055 0)" fill="#fff"/><path d="M268.256,17.987h-4.211V6.756c0-1.4-.864-2.16-2.592-2.16h-5.723V17.987h-4.212V4.6h-8.423V17.987h-4.212V1.249H261.56c4.535,0,6.8,1.836,6.8,5.615V17.987Z" transform="translate(-133.363 -0.137)" fill="#fff"/><path d="M87.77,17.987H78.807q-6.8,0-6.8-5.508V1.249h4.212V11.94c0,1.4.864,2.16,2.592,2.16H87.77Z" transform="translate(-40.023 -0.137)" fill="#fff"/><g transform="translate(80.33 1.004)"><g transform="translate(5.417)" opacity="0.63"><path d="M199.264,4.368V1h-3.829a13.824,13.824,0,0,0-1.424.072l2.525,3.291Z" transform="translate(-194.012 -1.004)" fill="#fff"/></g><g transform="translate(0.43 0.242)" opacity="0.68"><path d="M186.619,6.046a1.7,1.7,0,0,1,.48-.778,2.059,2.059,0,0,1,.919-.452,5.35,5.35,0,0,1,.947-.126l-2.383-3.136a4.947,4.947,0,0,0-3.886,2.9l3.9,1.679c.007-.029.013-.059.022-.087" transform="translate(-182.696 -1.554)" fill="#fff"/></g><g transform="translate(0 3.938)" opacity="0.71"><path d="M185.932,13.887v-2c0-.062,0-.119,0-.177l-4.031-1.764a7.226,7.226,0,0,0-.185,1.658v2.288h4.212Z" transform="translate(-181.72 -9.941)" fill="#fff"/></g><g transform="translate(0 8.693)" opacity="0.74"><path d="M185.932,22.778V20.731H181.72v2.585a7.138,7.138,0,0,0,.183,1.638l4.044-1.776c-.01-.128-.015-.259-.015-.4" transform="translate(-181.72 -20.731)" fill="#fff"/></g><g transform="translate(0.428 12)" opacity="0.77"><path d="M187.167,28.982a1.606,1.606,0,0,1-.511-.747l-3.965,1.715a4.307,4.307,0,0,0,1.226,1.687l.166.134.2.148.1.066.123.08.216.124.37.185.208.084.23.093a7.857,7.857,0,0,0,1.24.334l2.545-3.368a3.663,3.663,0,0,1-2.154-.534" transform="translate(-182.691 -28.235)" fill="#fff"/></g><g transform="translate(5.609 13.284)" opacity="0.8"><path d="M197.139,31.149l-2.691,3.506c.392.033.8.056,1.231.056h3.829V31.149Z" transform="translate(-194.448 -31.149)" fill="#fff"/></g><g transform="translate(11.746 13.284)" opacity="0.84"><path d="M208.374,31.149v3.562H212.2a14.111,14.111,0,0,0,1.432-.072l-2.692-3.49Z" transform="translate(-208.374 -31.149)" fill="#fff"/></g><g transform="translate(15.559 12.007)" opacity="0.9"><path d="M223.47,29.947l-3.957-1.695a1.738,1.738,0,0,1-.449.7,3.233,3.233,0,0,1-2.036.572l2.54,3.33a4.92,4.92,0,0,0,3.9-2.9" transform="translate(-217.027 -28.252)" fill="#fff"/></g><g transform="translate(18.217 8.962)" opacity="0.93"><path d="M223.073,21.34v1.835c0,.124-.005.242-.013.355l4.026,1.755a7.068,7.068,0,0,0,.171-1.572V21.34Z" transform="translate(-223.06 -21.34)" fill="#fff"/></g><g transform="translate(18.224 3.959)" opacity="0.95"><path d="M223.082,11.937v2.245h4.183V11.626a7.186,7.186,0,0,0-.181-1.637l-4.009,1.732c0,.071.007.141.007.215" transform="translate(-223.075 -9.989)" fill="#fff"/></g><g transform="translate(15.5 0.197)" opacity="0.99"><path d="M216.967,4.618a2.749,2.749,0,0,1,2.064.636,2.038,2.038,0,0,1,.451.817l3.89-1.684a5.021,5.021,0,0,0-4.08-2.936l-2.4,3.167Z" transform="translate(-216.893 -1.451)" fill="#fff"/></g><path d="M210.875,4.368l2.54-3.309C213.03,1.026,212.629,1,212.2,1h-3.828V4.368Z" transform="translate(-196.629 -1.004)" fill="#fff"/></g><g transform="translate(24.967 25.094)"><path d="M66.5,65.969l-1.313-2.495H58.421l-1.34,2.495h-1l5.081-9.605h1.274L67.5,65.969ZM61.87,57.2h-.119l-2.893,5.439H64.75Z" transform="translate(-56.086 -56.059)" fill="#fff"/><path d="M93.429,58.112a5.981,5.981,0,0,0-7.509-.571,3.918,3.918,0,0,0-1.552,3.211c0,2.534,1.95,4.271,4.856,4.271a5.187,5.187,0,0,0,4.205-1.592l.717.464a5.751,5.751,0,0,1-4.8,1.95,6.916,6.916,0,0,1-3.29-.757,4.9,4.9,0,0,1-.822-8.106,6.279,6.279,0,0,1,3.993-1.314A6.056,6.056,0,0,1,94.2,57.807Z" transform="translate(-71.393 -55.671)" fill="#fff"/><path d="M120.119,65.969l-1.313-2.495H112.04l-1.34,2.495h-.995l5.081-9.605h1.274l5.055,9.605Zm-4.63-8.769h-.119l-2.892,5.439h5.89Z" transform="translate(-86.077 -56.059)" fill="#fff"/><path d="M150.1,61.273a4.622,4.622,0,0,1-1.366,3.37,4.762,4.762,0,0,1-3.4,1.327H139.3V56.364h5.718C148.161,56.364,150.1,58.248,150.1,61.273Zm-2.016,2.707a4.057,4.057,0,0,0,1.021-2.746,3.788,3.788,0,0,0-3.953-4.033H140.16v7.933h5.24A3.551,3.551,0,0,0,148.081,63.979Z" transform="translate(-102.629 -56.059)" fill="#fff"/><path d="M170.125,65.969V56.364h8.955V57.2h-8.093v3.263h5.625V61.3h-5.625v3.834h8.464v.836Z" transform="translate(-119.871 -56.059)" fill="#fff"/><path d="M207.957,65.969V57.2H207.9l-5.32,6.845L197.25,57.2h-.04v8.769h-.862V56.364h1.34l4.9,6.408,4.909-6.408h1.327v9.605Z" transform="translate(-134.538 -56.059)" fill="#fff"/><path d="M233.024,62.109v3.861h-.862V62.109l-4.776-5.745h1.048l4.139,4.882,4.152-4.882h1.048Z" transform="translate(-151.899 -56.059)" fill="#fff"/></g></g></svg>