<svg xmlns="http://www.w3.org/2000/svg" xmlns:xlink="http://www.w3.org/1999/xlink" width="280.844" height="85.505" viewBox="0 0 280.844 85.505"><defs><clipPath id="a"><rect width="280.844" height="85.505" fill="none"/></clipPath><clipPath id="c"><rect width="44.758" height="20.298" fill="none"/></clipPath><clipPath id="d"><rect width="52.387" height="25.445" fill="none"/></clipPath><clipPath id="e"><rect width="54.524" height="27.996" fill="none"/></clipPath><clipPath id="f"><rect width="50.212" height="26.667" fill="none"/></clipPath><clipPath id="g"><rect width="50.235" height="27.251" fill="none"/></clipPath><clipPath id="h"><rect width="55.283" height="28.146" fill="none"/></clipPath><clipPath id="i"><rect width="51.984" height="25.86" fill="none"/></clipPath><clipPath id="j"><rect width="52.407" height="25.86" fill="none"/></clipPath><clipPath id="k"><rect width="54.887" height="28.038" fill="none"/></clipPath><clipPath id="l"><rect width="50.171" height="26.664" fill="none"/></clipPath><clipPath id="m"><rect width="50.156" height="27.186" fill="none"/></clipPath><clipPath id="n"><rect width="54.966" height="28.083" fill="none"/></clipPath></defs><g transform="translate(-174.19 -143.091)"><text transform="translate(225.192 214.166)" fill="#fff" font-size="25" font-family="Helvetica-Light, Helvetica" font-weight="300"><tspan x="0" y="0" letter-spacing="-0.04em">A</tspan><tspan y="0" letter-spacing="-0.022em">C</tspan><tspan y="0" letter-spacing="-0.008em">A</tspan><tspan y="0">DE</tspan><tspan y="0" letter-spacing="-0.04em">M</tspan><tspan y="0">Y</tspan></text><g transform="translate(174.19 143.091)"><g clip-path="url(#a)"><path d="M217.467,150.165H185.911c-2.027,0-2.929.9-2.929,2.706v1.351a2.621,2.621,0,0,0,2.929,2.933H209.8c5.858,0,8.788,2.476,8.788,7.663v5.636c0,5.409-2.929,7.885-8.788,7.885H174.643V170.9H207.1c1.8,0,2.706-.9,2.706-2.929v-1.8a2.391,2.391,0,0,0-2.706-2.7H182.981c-5.862,0-8.791-2.48-8.791-7.666v-4.96c0-5.183,2.929-7.663,8.791-7.663h34.486Z" transform="translate(-174.19 -142.848)" fill="#fff"/></g></g><rect width="8.791" height="34.939" transform="translate(224.453 143.419)" fill="#fff"/><rect width="8.791" height="34.939" transform="translate(278.775 143.419)" fill="#fff"/><g transform="translate(174.19 143.091)"><g clip-path="url(#a)"><path d="M246.588,150.329H220.214c-4.281,0-5.409,2.031-5.409,5.636v10.6c0,3.152,1.8,4.507,5.409,4.507h26.6v7.214h-26.6q-14.2,0-14.2-11.5V154.84c0-7.663,4.73-11.721,14.2-11.721h26.374Z" transform="translate(-85.879 -143.012)" fill="#fff"/><path d="M293.6,178.117H284.8V154.676c0-2.929-1.8-4.511-5.409-4.511H267.452v27.952H258.66V150.165H241.078v27.952H232.29V143.178h47.332c9.467,0,14.2,3.835,14.2,11.721v23.218Z" transform="translate(-12.978 -142.848)" fill="#fff"/><path d="M224.534,178.117H205.827q-14.2,0-14.2-11.5V143.178h8.791v22.316c0,2.929,1.8,4.507,5.409,4.507h18.708Z" transform="translate(-125.81 -142.848)" fill="#fff"/><g transform="translate(149.383 16.258)" opacity="0.75"><g clip-path="url(#c)"><path d="M222.64,153.573l-3.4-1.914a11.168,11.168,0,0,0,3.4,1.914" transform="translate(-198.562 -135.574)" fill="#fff"/></g></g><g transform="translate(157.284 -16.084)" opacity="0.65"><g clip-path="url(#d)"><path d="M232.366,150.154v-7.063h-8.04a28.748,28.748,0,0,0-2.99.151l5.3,6.912Z" transform="translate(-200.657 -127.006)" fill="#fff"/></g></g><g transform="translate(146.813 -15.575)" opacity="0.68"><g clip-path="url(#e)"><path d="M226.8,152.655a3.538,3.538,0,0,1,1.008-1.631,4.266,4.266,0,0,1,1.933-.951,11.121,11.121,0,0,1,1.986-.264l-5.005-6.583c-4.126.876-6.855,2.9-8.157,6.089l8.191,3.522c.015-.057.026-.121.045-.181" transform="translate(-197.882 -127.14)" fill="#fff"/></g></g><g transform="translate(145.91 -7.814)" opacity="0.71"><g clip-path="url(#f)"><path d="M227.163,153.567v-4.209c0-.128.008-.249.011-.37l-8.467-3.707a15.408,15.408,0,0,0-.385,3.484v4.8h8.84Z" transform="translate(-197.642 -129.199)" fill="#fff"/></g></g><g transform="translate(145.91 2.169)" opacity="0.74"><g clip-path="url(#g)"><path d="M227.163,152.223v-4.3h-8.84v5.424a15.093,15.093,0,0,0,.381,3.443l8.493-3.729c-.023-.272-.034-.547-.034-.842" transform="translate(-197.642 -131.841)" fill="#fff"/></g></g><g transform="translate(146.808 9.113)" opacity="0.77"><g clip-path="url(#h)"><path d="M227.963,151.336a3.37,3.37,0,0,1-1.076-1.57l-8.327,3.6a9.088,9.088,0,0,0,2.578,3.544l3.4,1.914a16.261,16.261,0,0,0,2.6.7l5.345-7.07a7.666,7.666,0,0,1-4.522-1.121" transform="translate(-197.883 -133.681)" fill="#fff"/></g></g><g transform="translate(157.687 11.811)" opacity="0.8"><g clip-path="url(#i)"><path d="M227.094,150.48l-5.651,7.365c.823.068,1.672.117,2.586.117h8.036V150.48Z" transform="translate(-200.763 -134.398)" fill="#fff"/></g></g><g transform="translate(170.574 11.811)" opacity="0.84"><g clip-path="url(#j)"><path d="M224.857,150.48v7.482h8.036c1.065,0,2.061-.057,3.009-.151l-5.651-7.331Z" transform="translate(-204.176 -134.398)" fill="#fff"/></g></g><g transform="translate(178.58 9.13)" opacity="0.9"><g clip-path="url(#k)"><path d="M240.507,153.33l-8.308-3.56a3.652,3.652,0,0,1-.947,1.465c-.8.729-2.223,1.125-4.273,1.2l5.334,6.995q6.257-1.314,8.195-6.1" transform="translate(-206.298 -133.688)" fill="#fff"/></g></g><g transform="translate(184.163 2.734)" opacity="0.93"><g clip-path="url(#l)"><path d="M228.483,148.076v3.854c0,.257-.011.506-.026.744l8.452,3.684a14.775,14.775,0,0,0,.359-3.3v-4.983Z" transform="translate(-207.776 -131.992)" fill="#e3e7e6"/></g></g><g transform="translate(184.177 -7.769)" opacity="0.95"><g clip-path="url(#m)"><path d="M228.475,149.385V154.1h8.784v-5.368a15.253,15.253,0,0,0-.377-3.439l-8.421,3.639c.008.147.015.294.015.453" transform="translate(-207.782 -129.211)" fill="#edefee"/></g></g><g transform="translate(178.455 -15.671)" opacity="0.99"><g clip-path="url(#n)"><path d="M227.1,149.851q3.086,0,4.333,1.332a4.284,4.284,0,0,1,.947,1.718l8.168-3.537q-2.027-4.926-8.569-6.164l-5.035,6.651Z" transform="translate(-206.264 -127.116)" fill="#f3f6f5"/></g></g><path d="M230.108,150.154l5.334-6.949c-.812-.068-1.653-.113-2.548-.113h-8.036v7.063Z" transform="translate(-33.603 -143.09)" fill="#f6fafa"/></g></g></g></svg>