<svg xmlns="http://www.w3.org/2000/svg" xmlns:xlink="http://www.w3.org/1999/xlink" width="305.295" height="516.854" viewBox="0 0 305.295 516.854"><defs><clipPath id="a"><rect width="103.875" height="74.826" transform="translate(93.334 3277.223) rotate(-67.06)" fill="none"/></clipPath></defs><g transform="translate(-42.856 -3137.939)"><circle cx="34.276" cy="34.276" r="34.276" transform="translate(257.486 3555.877) rotate(-66.808)" fill="none" stroke="#161615" stroke-miterlimit="10" stroke-width="1"/><path d="M306.824,3494.18a34.389,34.389,0,0,1,24.527,10.508" fill="none" stroke="#161615" stroke-miterlimit="10" stroke-width="1"/><path d="M304.222,3489.351a34.312,34.312,0,0,1,32.621,13.422" fill="none" stroke="#161615" stroke-miterlimit="10" stroke-width="1"/><line y2="7.815" transform="translate(298.936 3601.948)" fill="#fff" stroke="#161615" stroke-miterlimit="10" stroke-width="1"/><line y1="5.386" x2="5.492" transform="translate(303.794 3606.278)" fill="#fff" stroke="#161615" stroke-miterlimit="10" stroke-width="1"/><line x2="7.815" transform="translate(305.695 3616.417)" fill="#fff" stroke="#161615" stroke-miterlimit="10" stroke-width="1"/><line x2="5.492" y2="5.539" transform="translate(303.794 3621.381)" fill="#fff" stroke="#161615" stroke-miterlimit="10" stroke-width="1"/><line y2="7.287" transform="translate(298.936 3623.493)" fill="#fff" stroke="#161615" stroke-miterlimit="10" stroke-width="1"/><line x1="5.386" y2="5.539" transform="translate(288.691 3621.381)" fill="#fff" stroke="#161615" stroke-miterlimit="10" stroke-width="1"/><line x1="7.393" transform="translate(284.572 3616.417)" fill="#fff" stroke="#161615" stroke-miterlimit="10" stroke-width="1"/><line x2="5.386" y2="5.809" transform="translate(288.691 3605.856)" fill="#fff" stroke="#161615" stroke-miterlimit="10" stroke-width="1"/><circle cx="18.623" cy="18.623" r="18.623" transform="translate(99.8 3343.214)" fill="none" stroke="#040405" stroke-miterlimit="10" stroke-width="1"/><circle cx="18.623" cy="18.623" r="18.623" transform="translate(176.797 3319.567)" fill="none" stroke="#040405" stroke-miterlimit="10" stroke-width="1"/><circle cx="22.44" cy="22.44" r="22.44" transform="translate(172.979 3394.695)" fill="none" stroke="#040405" stroke-miterlimit="10" stroke-width="1"/><path d="M82.064,3396.318s-5.388-5.613-8.307,2.02c0,0,4.266,27.019,1.571,41.237,0,0-5.837,29.26,39.739,20.28,0,0-4.266-5.389-6.96-8.307,0,0-16.389,3.816-21.777-3.144C86.33,3448.4,85.656,3411.36,82.064,3396.318Z" fill="none" stroke="#040405" stroke-miterlimit="10" stroke-width="1"/><path d="M85.329,3424.369c0-50.951,28.27-40.65,28.27-40.65s13.447.9,23.925,36.474l15.442.551,2.482,15.993-25.369.552s-7.445-1.379-8.823-7.445l-9.68-17.8s-22.573,16.64-3.469,39.5" fill="none" stroke="#040405" stroke-miterlimit="10" stroke-width="1"/><path d="M152.81,3422.288s19.752,2.022,2.638,14.449" fill="none" stroke="#040405" stroke-miterlimit="10" stroke-width="1"/><line x2="3.603" y2="10.456" transform="translate(154.134 3412.697)" fill="none" stroke="#040405" stroke-miterlimit="10" stroke-width="1"/><line x2="1.406" y2="2.9" transform="translate(160.812 3431.852)" fill="none" stroke="#040405" stroke-miterlimit="10" stroke-width="1"/><path d="M111.437,3424.693s-15.628,26.7,36.6,41.739" fill="none" stroke="#040405" stroke-miterlimit="10" stroke-width="1"/><circle cx="18.623" cy="18.623" r="18.623" transform="translate(255.33 3342.314)" fill="none" stroke="#040405" stroke-miterlimit="10" stroke-width="1"/><path d="M310.312,3395.418s5.388-5.613,8.307,2.021c0,0-4.266,27.019-1.571,41.236,0,0,5.837,29.26-39.739,20.28,0,0,4.266-5.388,6.96-8.307,0,0,16.389,3.817,21.777-3.143C306.046,3447.5,306.72,3410.46,310.312,3395.418Z" fill="none" stroke="#040405" stroke-miterlimit="10" stroke-width="1"/><path d="M307.047,3423.469c0-50.95-28.27-40.649-28.27-40.649s-13.447.9-23.925,36.473l-15.442.552-2.482,15.993,25.369.551s7.445-1.378,8.823-7.445l9.68-17.8s22.573,16.641,3.469,39.5" fill="none" stroke="#040405" stroke-miterlimit="10" stroke-width="1"/><path d="M239.566,3421.389s-19.752,2.021-2.638,14.449" fill="none" stroke="#040405" stroke-miterlimit="10" stroke-width="1"/><path d="M280.939,3423.794s15.628,26.7-36.6,41.738" fill="none" stroke="#040405" stroke-miterlimit="10" stroke-width="1"/><path d="M137.046,3403.923s12.851-5.538,25.172-6.528c0,0-2.713-36.793,23-37.188,0,0,11.474,9.693,20.177,0,0,0,22.946-5.539,25.914,37.584,0,0,12.066,1.583,21.759,6.132" fill="none" stroke="#040405" stroke-miterlimit="10" stroke-width="1"/><path d="M149.452,3498.324s-5.44-32.181,12.063-31.892H231.52s15.8-3.025,10.195,31.892" fill="none" stroke="#040405" stroke-miterlimit="10" stroke-width="1"/><path d="M154.646,3498.324s-4.829-27.494,10.711-27.247h62.157s14.031-2.585,9.052,27.247" fill="none" stroke="#040405" stroke-miterlimit="10" stroke-width="1"/><path d="M157.618,3466.994s-.63-19.739,23.455-21.431h30.562s20.178,1.241,21.8,20.869" fill="none" stroke="#040405" stroke-miterlimit="10" stroke-width="1"/><rect width="84.15" height="56.367" transform="translate(150.077 3555.443)" fill="none" stroke="#161615" stroke-miterlimit="10" stroke-width="1"/><rect width="79.879" height="52" transform="translate(152.212 3557.627)" fill="none" stroke="#161615" stroke-miterlimit="10" stroke-width="1"/><path d="M150.077,3611.81l-11.484,21.648H246.406l-12.179-21.648" fill="none" stroke="#161615" stroke-miterlimit="10" stroke-width="1"/><path d="M211.639,3633.458l-6.131-9.944h-26.99l-5.159,9.944" fill="none" stroke="#161615" stroke-miterlimit="10" stroke-width="1"/><rect width="63.205" height="6.337" transform="translate(159.822 3562.531)" fill="none" stroke="#161615" stroke-miterlimit="10" stroke-width="1"/><rect width="15.192" height="11.211" transform="translate(159.822 3571.058)" fill="none" stroke="#161615" stroke-miterlimit="10" stroke-width="1"/><rect width="15.192" height="22.098" transform="translate(159.822 3584.707)" fill="none" stroke="#161615" stroke-miterlimit="10" stroke-width="1"/><line x2="37.696" transform="translate(178.426 3574.145)" fill="none" stroke="#161615" stroke-miterlimit="10" stroke-width="1"/><line x2="37.696" transform="translate(178.426 3576.419)" fill="none" stroke="#161615" stroke-miterlimit="10" stroke-width="1"/><line x2="37.696" transform="translate(178.426 3578.744)" fill="none" stroke="#161615" stroke-miterlimit="10" stroke-width="1"/><line x2="21.202" transform="translate(178.426 3581.156)" fill="none" stroke="#161615" stroke-miterlimit="10" stroke-width="1"/><line x2="37.696" transform="translate(178.426 3585.898)" fill="none" stroke="#161615" stroke-miterlimit="10" stroke-width="1"/><line x2="37.696" transform="translate(178.426 3588.172)" fill="none" stroke="#161615" stroke-miterlimit="10" stroke-width="1"/><line x2="37.696" transform="translate(178.426 3590.497)" fill="none" stroke="#161615" stroke-miterlimit="10" stroke-width="1"/><line x2="21.202" transform="translate(178.426 3592.909)" fill="none" stroke="#161615" stroke-miterlimit="10" stroke-width="1"/><line x2="37.696" transform="translate(178.426 3595.348)" fill="none" stroke="#161615" stroke-miterlimit="10" stroke-width="1"/><line x2="37.696" transform="translate(178.426 3597.622)" fill="none" stroke="#161615" stroke-miterlimit="10" stroke-width="1"/><line x2="37.696" transform="translate(178.426 3599.947)" fill="none" stroke="#161615" stroke-miterlimit="10" stroke-width="1"/><line x2="21.202" transform="translate(178.426 3602.36)" fill="none" stroke="#161615" stroke-miterlimit="10" stroke-width="1"/><path d="M138.366,3633.789v1.979H246.879v-1.979" fill="none" stroke="#161615" stroke-miterlimit="10" stroke-width="1"/><path d="M226.975,3614.891h5.661l3.2,5.768" fill="#fff" stroke="#161615" stroke-miterlimit="10" stroke-width="1"/><path d="M198.338,3625.6H204l3.2,5.767" fill="#fff" stroke="#161615" stroke-miterlimit="10" stroke-width="1"/><rect width="28.755" height="46.894" transform="translate(103.982 3524.164)" fill="#fff" stroke="#161615" stroke-miterlimit="10" stroke-width="1"/><rect width="23.322" height="36.791" transform="translate(106.699 3527.781)" fill="#fff" stroke="#161615" stroke-miterlimit="10" stroke-width="1"/><circle cx="1.533" cy="1.533" r="1.533" transform="translate(116.826 3566.237)" fill="#fff" stroke="#161615" stroke-miterlimit="10" stroke-width="1"/><path d="M103.575,3543.4s-29.69-.036-17.814,37.752c0,0-32.3,1.622-17.846,28.471,0,0-13.616,30.621,28.531,27.226,0,0,18.636,31.857,44.975,9.237,0,0,25.05,12.584,37,1.131,0,0,26.842,11.594,37.7-10.368" fill="none" stroke="#161615" stroke-miterlimit="10" stroke-width="1"/><path d="M132.737,3535.67s15.465-13.892,29.882-2.778c0,0,32.3-13.739,34.655,17.263,0,0,22.1-7.486,29.527,5.288" fill="none" stroke="#161615" stroke-miterlimit="10" stroke-width="1"/><path d="M85.761,3581.156s14.834-10.516,24.355,1.008" fill="none" stroke="#161615" stroke-miterlimit="10" stroke-width="1"/><path d="M96.446,3636.853s1.679-23.282,21.913-13.339" fill="none" stroke="#161615" stroke-miterlimit="10" stroke-width="1"/><path d="M116.826,3628.948s.623-13.815,19.47-11.173" fill="none" stroke="#161615" stroke-miterlimit="10" stroke-width="1"/><path d="M76.153,3628.486s-5.984-8.128,0-16.676" fill="none" stroke="#161615" stroke-miterlimit="10" stroke-width="1"/><path d="M103.575,3549.139s-15.454.678-12.661,15.433" fill="none" stroke="#161615" stroke-miterlimit="10" stroke-width="1"/><path d="M126.561,3576.767s5.791-10.595,13.6-2.622" fill="none" stroke="#161615" stroke-miterlimit="10" stroke-width="1"/><path d="M82.178,3234.782V3277.8" fill="none" stroke="#040405" stroke-miterlimit="10" stroke-width="1"/><path d="M82.178,3235.167h31.487l-9.2,8.288,9.2,6.955H82.178" fill="none" stroke="#040405" stroke-miterlimit="10" stroke-width="1"/><path d="M219.36,3168.188V3180.6" fill="none" stroke="#040405" stroke-miterlimit="10" stroke-width="1"/><path d="M219.36,3168.577H230.4l-3.226,2.906,3.226,2.439H219.36" fill="none" stroke="#040405" stroke-miterlimit="10" stroke-width="1"/><g clip-path="url(#a)"><path d="M94.008,3277.407c4.706,1.674,33.809,10.114,44.961-32.35" fill="none" stroke="#161615" stroke-width="0.25" stroke-dasharray="1 1"/><path d="M139.207,3243.748c.547-3.8,3.493-20.42,14.407-31.6" fill="none" stroke="#161615" stroke-width="0.25" stroke-dasharray="1.015 1.015"/><path d="M154.613,3211.352c3.146-2.029,17.367-9.989,25,6.316" fill="none" stroke="#161615" stroke-width="0.25" stroke-dasharray="0.992 0.992"/><path d="M180.124,3218.768c1.545,3.013,8.863,14.426,22.276-7.6" fill="none" stroke="#161615" stroke-width="0.25" stroke-dasharray="0.992 0.992"/><path d="M202.537,3210.94c.045-.075.09-.15.136-.225m-22.961,7.174c.034.073.068.147.1.222,0,0,.033.08.1.222m-26.111-6.37.186-.187s.071-.053.207-.146m-15.157,33.17.067-.257s.009-.091.031-.265M93.36,3277.162s.074.031.215.085" fill="none" stroke="#161615" stroke-width="0.25"/></g><path d="M182.769,3215.138l12.651-16.148,5.8,6.591,14.83-16.478,3.3-8.239L232.862,3198l2.636,10.216,8.9,4.284,9.887,11.864" fill="none" stroke="#040405" stroke-miterlimit="10" stroke-width="1"/><rect width="109.131" height="66.228" rx="12" transform="translate(43.356 3220.68)" fill="none" stroke="#161615" stroke-miterlimit="10" stroke-width="1"/><line x2="25.886" y2="38.777" transform="translate(141.191 3284.849)" fill="none" stroke="#161615" stroke-miterlimit="10" stroke-width="1"/><rect width="118.977" height="69.33" rx="12" transform="translate(158.371 3159.21)" fill="none" stroke="#161615" stroke-miterlimit="10" stroke-width="1"/><line x1="16.338" y2="43.667" transform="translate(213.229 3228.54)" fill="none" stroke="#161615" stroke-miterlimit="10" stroke-width="1"/><path d="M266.156,3306.708s4.055,4.152-1.93,5.889v3.573s5.31,1.158,2.124,6.082l2.7,2.7s4.827-2.51,6.179,2.607h3.958s.676-5.117,5.6-2.993l2.7-2.607s-2.51-5.406,2.7-5.5v-3.572s-5.213-1.834-2.51-6.179l-2.124-2.317s-5.213,2.9-6.179-2.607h-3.765s-1.255,5.021-6.372,2.511Z" fill="none" stroke="#161615" stroke-miterlimit="10" stroke-width="1"/><circle cx="7.281" cy="7.281" r="7.281" transform="translate(269.93 3307.392)" fill="none" stroke="#161615" stroke-miterlimit="10" stroke-width="1"/><circle cx="3.169" cy="3.169" r="3.169" transform="translate(274.041 3311.504)" fill="none" stroke="#161615" stroke-miterlimit="10" stroke-width="1"/><path d="M289.842,3516.717s3.777,9.772-7.391,8.4l-2.539,5.927s7.987,5.7-.8,11.6l2.564,6.408s9.8-.734,8.4,8.718l6.568,2.814s4.759-8.01,11.42-.985l6.339-2.4s-.322-10.756,8.4-7.209l2.539-5.928s-7.347-6.75.228-12.038l-1.877-5.355s-10.71,1.1-8.4-8.718l-6.248-2.677s-5.652,7.438-12.358-.365Z" fill="none" stroke="#161615" stroke-miterlimit="10" stroke-width="1"/><circle cx="13.144" cy="13.144" r="13.144" transform="translate(289.379 3524.649)" fill="none" stroke="#161615" stroke-miterlimit="10" stroke-width="1"/><circle cx="5.722" cy="5.722" r="5.722" transform="translate(296.801 3532.071)" fill="none" stroke="#161615" stroke-miterlimit="10" stroke-width="1"/><path d="M98.192,3143.363s4.054,4.152-1.931,5.889v3.572s5.31,1.159,2.124,6.083l2.7,2.7s4.827-2.51,6.179,2.607h3.958s.676-5.117,5.6-2.993l2.7-2.607s-2.51-5.406,2.7-5.5v-3.572s-5.213-1.834-2.51-6.179l-2.124-2.317s-5.213,2.9-6.179-2.607h-3.765s-1.255,5.021-6.372,2.51Z" fill="none" stroke="#161615" stroke-miterlimit="10" stroke-width="1"/><circle cx="7.281" cy="7.281" r="7.281" transform="translate(101.965 3144.047)" fill="none" stroke="#161615" stroke-miterlimit="10" stroke-width="1"/><circle cx="3.169" cy="3.169" r="3.169" transform="translate(106.077 3148.159)" fill="none" stroke="#161615" stroke-miterlimit="10" stroke-width="1"/><path d="M56.049,3361.885s4.054,4.151-1.931,5.889v3.572s5.31,1.159,2.124,6.083l2.7,2.7s4.827-2.51,6.179,2.607h3.958s.676-5.117,5.6-2.993l2.7-2.607s-2.51-5.406,2.7-5.5v-3.572s-5.213-1.834-2.51-6.179l-2.124-2.317s-5.213,2.9-6.179-2.607H65.51s-1.255,5.021-6.372,2.51Z" fill="none" stroke="#161615" stroke-miterlimit="10" stroke-width="1"/><circle cx="7.281" cy="7.281" r="7.281" transform="translate(59.822 3362.569)" fill="none" stroke="#161615" stroke-miterlimit="10" stroke-width="1"/><circle cx="3.169" cy="3.169" r="3.169" transform="translate(63.934 3366.681)" fill="none" stroke="#161615" stroke-miterlimit="10" stroke-width="1"/><path d="M126.828,3360.8" fill="#161615"/><path d="M99.079,3319.065a6.378,6.378,0,0,1,1.3-2.328,5.915,5.915,0,0,1,2.156-1.52,7.4,7.4,0,0,1,2.9-.544,8.16,8.16,0,0,1,2.389.342,5.819,5.819,0,0,1,1.939.993,4.754,4.754,0,0,1,1.3,1.613,4.874,4.874,0,0,1,.481,2.2,5.958,5.958,0,0,1-.326,2.063,6.436,6.436,0,0,1-.807,1.551,6.766,6.766,0,0,1-1.009,1.133c-.352.311-.651.579-.9.807q-.837.807-1.426,1.474a6.551,6.551,0,0,0-.947,1.366,5.907,5.907,0,0,0-.528,1.535,9.891,9.891,0,0,0-.17,1.956h-.621a10.516,10.516,0,0,1,.155-1.894,6.93,6.93,0,0,1,.5-1.6,7.052,7.052,0,0,1,.931-1.5,15.982,15.982,0,0,1,1.458-1.583q.186-.186.683-.59a7.735,7.735,0,0,0,1.039-1.055,6.536,6.536,0,0,0,.946-1.567,5.122,5.122,0,0,0,.4-2.094,4.338,4.338,0,0,0-.419-1.94,4.075,4.075,0,0,0-1.148-1.427,5.093,5.093,0,0,0-1.737-.869,7.8,7.8,0,0,0-2.188-.3,6.9,6.9,0,0,0-2.7.5,5.276,5.276,0,0,0-1.955,1.38,5.621,5.621,0,0,0-1.148,2.142,8.346,8.346,0,0,0-.31,2.746h-.621A8.607,8.607,0,0,1,99.079,3319.065Zm5.74,15.251h.621v3.041h-.621Z" fill="#161615"/><path d="M86.36,3477.91a6.4,6.4,0,0,1,1.3-2.327,5.9,5.9,0,0,1,2.157-1.52,7.4,7.4,0,0,1,2.9-.544,8.115,8.115,0,0,1,2.389.342,5.824,5.824,0,0,1,1.94.993,4.745,4.745,0,0,1,1.3,1.613,4.872,4.872,0,0,1,.48,2.2,5.965,5.965,0,0,1-.325,2.064,6.437,6.437,0,0,1-.808,1.551,6.8,6.8,0,0,1-1.008,1.133q-.528.467-.9.806-.837.808-1.427,1.475a6.6,6.6,0,0,0-.947,1.366,5.941,5.941,0,0,0-.527,1.535,9.871,9.871,0,0,0-.171,1.955H92.1a10.4,10.4,0,0,1,.156-1.893,6.929,6.929,0,0,1,.5-1.6,7.088,7.088,0,0,1,.931-1.506,15.967,15.967,0,0,1,1.458-1.582q.186-.187.682-.59a7.778,7.778,0,0,0,1.04-1.055,6.568,6.568,0,0,0,.946-1.567,5.143,5.143,0,0,0,.4-2.095,4.35,4.35,0,0,0-.419-1.939,4.1,4.1,0,0,0-1.148-1.428,5.11,5.11,0,0,0-1.738-.868,7.787,7.787,0,0,0-2.188-.3,6.9,6.9,0,0,0-2.7.5,5.266,5.266,0,0,0-1.955,1.38,5.619,5.619,0,0,0-1.149,2.142,8.374,8.374,0,0,0-.309,2.746h-.622A8.664,8.664,0,0,1,86.36,3477.91Zm5.74,15.251h.621v3.042H92.1Z" fill="#161615"/><path d="M116.509,3508.032" fill="none" stroke="#161615" stroke-miterlimit="10" stroke-width="1"/><line x2="23.64" transform="translate(118.595 3319.549)" fill="#161615" stroke="#161615" stroke-miterlimit="10" stroke-width="1"/><line x2="23.64" transform="translate(118.595 3323.733)" fill="#161615" stroke="#161615" stroke-miterlimit="10" stroke-width="1"/><line x2="15.348" transform="translate(118.595 3327.702)" fill="#161615" stroke="#161615" stroke-miterlimit="10" stroke-width="1"/><path d="M118.151,3489.559" fill="none" stroke="#161615" stroke-miterlimit="10" stroke-width="1"/><path d="M107.844,3507.081" fill="none" stroke="#161615" stroke-miterlimit="10" stroke-width="1"/><path d="M117.893,3495.148" fill="none" stroke="#161615" stroke-miterlimit="10" stroke-width="1"/><path d="M104.822,3515.846" fill="none" stroke="#161615" stroke-miterlimit="10" stroke-width="1"/><path d="M106.347,3506.408" fill="none" stroke="#161615" stroke-miterlimit="10" stroke-width="1"/><path d="M111.673,3499.829" fill="none" stroke="#161615" stroke-miterlimit="10" stroke-width="1"/><path d="M120.445,3497.323" fill="none" stroke="#161615" stroke-miterlimit="10" stroke-width="1"/><path d="M127.651,3493.876" fill="none" stroke="#161615" stroke-miterlimit="10" stroke-width="1"/><path d="M130.784,3486.671" fill="none" stroke="#161615" stroke-miterlimit="10" stroke-width="1"/><path d="M134.543,3478.525" fill="none" stroke="#161615" stroke-miterlimit="10" stroke-width="1"/><path d="M141.122,3473.513" fill="none" stroke="#161615" stroke-miterlimit="10" stroke-width="1"/></g></svg>