<svg xmlns="http://www.w3.org/2000/svg" width="273.831" height="267.385" viewBox="0 0 273.831 267.385"><g transform="translate(-59.013 -763.896)"><path d="M221.671,855.285s-17.273,0-17.273,16.246c0,0-.855,14.879,13.682,17.786h75.761s9.407-2.736,9.407-15.391c0,0,.513-9.406-11.8-12.656,0,0,1.881-11.458-10.09-17.786,0,0-8.722-5.13-17.615,0,0,0-8.893-13.852-23.259-10.432C240.483,833.052,223.723,834.591,221.671,855.285Z" fill="none" stroke="#161615" stroke-miterlimit="10" stroke-width="1"/><path d="M251.037,878.3s-15.409,0-15.409,14.54c0,0-.763,13.316,12.2,15.918h67.586s8.39-2.448,8.39-13.775c0,0,.458-8.418-10.526-11.326,0,0,1.678-10.255-9-15.918,0,0-7.78-4.592-15.714,0,0,0-7.933-12.4-20.748-9.337C267.819,858.406,252.868,859.784,251.037,878.3Z" fill="#fff" stroke="#161615" stroke-miterlimit="10" stroke-width="1"/><path d="M285.212,983.728s2.607,10.8-9.995,13.571" fill="none" stroke="#000" stroke-miterlimit="10" stroke-width="1"/><path d="M319.744,913.476a14.51,14.51,0,0,0,9.857-12.563" fill="#fff" stroke="#161615" stroke-miterlimit="10" stroke-width="1"/><path d="M322.49,919.758a14.511,14.511,0,0,0,9.857-12.563" fill="#fff" stroke="#161615" stroke-miterlimit="10" stroke-width="1"/><path d="M263.338,880.63s.08-6.834,9.587-6.784" fill="none" stroke="#161615" stroke-miterlimit="10" stroke-width="1"/><path d="M230.638,851.775s.126-10.812,15.167-10.733" fill="none" stroke="#161615" stroke-miterlimit="10" stroke-width="1"/><path d="M103.365,896.253a25.638,25.638,0,0,1-25.638-25.638" fill="none" stroke="#000" stroke-miterlimit="10" stroke-width="1"/><line x2="14.13" y2="6.567" transform="translate(110.134 842.827)" fill="none" stroke="#000" stroke-miterlimit="10" stroke-width="1"/><path d="M89.184,886.78a21.1,21.1,0,0,1-7.693-16.314" fill="none" stroke="#000" stroke-miterlimit="10" stroke-width="1"/><path d="M164.793,870.615a25.56,25.56,0,0,1-7.429,18.049" fill="none" stroke="#000" stroke-miterlimit="10" stroke-width="1"/><rect width="11.791" height="23.582" rx="1.975" transform="matrix(0.673, 0.74, -0.74, 0.673, 103.853, 879.314)" fill="#fff" stroke="#000" stroke-miterlimit="10" stroke-width="1"/><path d="M100.795,884.76a3.841,3.841,0,0,1,5.411.257" fill="#fff" stroke="#000" stroke-miterlimit="10" stroke-width="1"/><rect width="11.791" height="23.582" rx="1.975" transform="translate(111.805 888.061) rotate(47.727)" fill="#fff" stroke="#000" stroke-miterlimit="10" stroke-width="1"/><rect width="11.791" height="23.582" rx="1.975" transform="translate(119.811 896.868) rotate(47.727)" fill="#fff" stroke="#000" stroke-miterlimit="10" stroke-width="1"/><path d="M133.021,841.235l-30.389,28.45s4.5,22.781,30.719-4.99" fill="#fff" stroke="#000" stroke-miterlimit="10" stroke-width="1"/><path d="M133.817,914.074s8.558,1.194,7.192-8.464l-18.557-19.739" fill="#fff" stroke="#000" stroke-miterlimit="10" stroke-width="1"/><path d="M141.463,906.232s9.668,1.871,8.78-8.258l-18.557-19.738" fill="none" stroke="#000" stroke-miterlimit="10" stroke-width="1"/><path d="M150.534,898.352s9.553,1.592,8.16-7.961l-18.557-19.739" fill="none" stroke="#000" stroke-miterlimit="10" stroke-width="1"/><rect width="11.791" height="23.582" rx="1.975" transform="translate(127.706 905.552) rotate(47.727)" fill="#fff" stroke="#000" stroke-miterlimit="10" stroke-width="1"/><path d="M109.036,893.6a3.843,3.843,0,0,1,5.412.258" fill="#fff" stroke="#000" stroke-miterlimit="10" stroke-width="1"/><path d="M116.895,902.063a3.842,3.842,0,0,1,5.412.257" fill="#fff" stroke="#000" stroke-miterlimit="10" stroke-width="1"/><path d="M124.894,910.457a3.843,3.843,0,0,1,5.412.258" fill="#fff" stroke="#000" stroke-miterlimit="10" stroke-width="1"/><line y2="11.574" transform="translate(88.18 927.513)" fill="#fff" stroke="#161615" stroke-miterlimit="10" stroke-width="1"/><line y1="7.976" x2="8.133" transform="translate(95.375 933.925)" fill="#fff" stroke="#161615" stroke-miterlimit="10" stroke-width="1"/><line x2="11.574" transform="translate(98.19 948.94)" fill="#fff" stroke="#161615" stroke-miterlimit="10" stroke-width="1"/><line x2="8.133" y2="8.203" transform="translate(95.375 956.291)" fill="#fff" stroke="#161615" stroke-miterlimit="10" stroke-width="1"/><line y2="10.792" transform="translate(88.18 959.419)" fill="#fff" stroke="#161615" stroke-miterlimit="10" stroke-width="1"/><line x1="7.976" y2="8.203" transform="translate(73.009 956.291)" fill="#fff" stroke="#161615" stroke-miterlimit="10" stroke-width="1"/><line x1="10.948" transform="translate(66.91 948.94)" fill="#fff" stroke="#161615" stroke-miterlimit="10" stroke-width="1"/><line x2="7.976" y2="8.602" transform="translate(73.009 933.3)" fill="#fff" stroke="#161615" stroke-miterlimit="10" stroke-width="1"/><line x2="18.352" y2="19.259" transform="translate(59.375 851.357)" fill="none" stroke="#161615" stroke-miterlimit="10" stroke-width="1"/><line y2="10.021" transform="translate(155.968 826.293)" fill="none" stroke="#161615" stroke-miterlimit="10" stroke-width="1"/><line x2="10.021" transform="translate(150.957 831.303)" fill="none" stroke="#161615" stroke-miterlimit="10" stroke-width="1"/><line y2="10.021" transform="translate(170.291 844.125)" fill="none" stroke="#161615" stroke-miterlimit="10" stroke-width="1"/><line x2="10.021" transform="translate(165.28 849.135)" fill="none" stroke="#161615" stroke-miterlimit="10" stroke-width="1"/><rect width="67.767" height="73.29" transform="translate(218.539 887.986)" fill="#fff" stroke="#161615" stroke-miterlimit="10" stroke-width="1"/><line x2="43.963" transform="translate(230.441 897.458)" fill="none" stroke="#161615" stroke-miterlimit="10" stroke-width="1"/><line x2="43.963" transform="translate(230.441 906.412)" fill="none" stroke="#161615" stroke-miterlimit="10" stroke-width="1"/><line x2="43.963" transform="translate(230.441 914.924)" fill="none" stroke="#161615" stroke-miterlimit="10" stroke-width="1"/><line x2="43.963" transform="translate(230.441 923.706)" fill="none" stroke="#161615" stroke-miterlimit="10" stroke-width="1"/><line x2="30.132" transform="translate(230.441 930.513)" fill="none" stroke="#161615" stroke-miterlimit="10" stroke-width="1"/><path d="M268.121,946.53l3.815,4.088,4.791-7.03" fill="none" stroke="#161615" stroke-miterlimit="10" stroke-width="1"/><circle cx="8.672" cy="8.672" r="8.672" transform="translate(263.752 938.431)" fill="none" stroke="#161615" stroke-miterlimit="10" stroke-width="1"/><line y1="33.072" x2="18.109" transform="translate(188.415 921.235)" fill="#fff" stroke="#161615" stroke-miterlimit="10" stroke-width="1"/><circle cx="5.612" cy="5.612" r="5.612" transform="translate(200.912 915.623)" fill="#fff" stroke="#161615" stroke-miterlimit="10" stroke-width="1"/><line x1="68.226" y2="16.367" transform="translate(120.189 798.757)" fill="#fff" stroke="#161615" stroke-miterlimit="10" stroke-width="1"/><circle cx="5.612" cy="5.612" r="5.612" transform="translate(114.577 809.511)" fill="#fff" stroke="#161615" stroke-miterlimit="10" stroke-width="1"/><line y2="258.889" transform="translate(188.415 772.392)" fill="none" stroke="#161615" stroke-miterlimit="10" stroke-width="1"/><path d="M218.493,966.4s-13.339,0-13.339,12.547c0,0-.66,11.49,10.566,13.735h58.505s7.264-2.113,7.264-11.886c0,0,.4-7.264-9.112-9.773,0,0,1.452-8.849-7.792-13.735,0,0-6.736-3.962-13.6,0,0,0-6.868-10.7-17.962-8.056C233.02,949.231,220.078,950.419,218.493,966.4Z" fill="#fff" stroke="#161615" stroke-miterlimit="10" stroke-width="1"/><path d="M239.8,959.042s3.931-6.43,11.3-1.715" fill="none" stroke="#000" stroke-miterlimit="10" stroke-width="1"/><path d="M218.492,966.534s3.931-6.429,11.3-1.714" fill="none" stroke="#000" stroke-miterlimit="10" stroke-width="1"/><path d="M211.9,974.721s6.767-6.43,19.451-1.715" fill="none" stroke="#000" stroke-miterlimit="10" stroke-width="1"/><circle cx="5.612" cy="5.612" r="5.612" transform="translate(296.703 918.094)" fill="#fff" stroke="#161615" stroke-miterlimit="10" stroke-width="1"/><path d="M191.065,765.077a5.612,5.612,0,1,0,2.3,7.6A5.613,5.613,0,0,0,191.065,765.077Z" fill="#fff" stroke="#161615" stroke-miterlimit="10" stroke-width="1"/></g></svg>