<svg xmlns="http://www.w3.org/2000/svg" xmlns:xlink="http://www.w3.org/1999/xlink" width="293.506" height="407.481" viewBox="0 0 293.506 407.481"><defs><clipPath id="a"><rect width="293.506" height="407.482" fill="none"/></clipPath></defs><g transform="translate(0 0)" clip-path="url(#a)"><g transform="translate(-44.875 -1120.023)"><rect width="78.33" height="52.469" transform="translate(215.233 1420.673)" fill="none" stroke="#161615" stroke-miterlimit="10" stroke-width="1"/><rect width="74.355" height="48.404" transform="translate(217.221 1422.705)" fill="none" stroke="#161615" stroke-miterlimit="10" stroke-width="1"/><path d="M215.233,1473.142l-10.69,20.151H304.9l-11.337-20.151" fill="none" stroke="#161615" stroke-miterlimit="10" stroke-width="1"/><path d="M272.538,1493.292l-5.707-9.256H241.708l-4.8,9.256" fill="none" stroke="#161615" stroke-miterlimit="10" stroke-width="1"/><rect width="58.834" height="5.899" transform="translate(224.304 1427.271)" fill="none" stroke="#161615" stroke-miterlimit="10" stroke-width="1"/><rect width="14.141" height="10.436" transform="translate(224.304 1435.208)" fill="none" stroke="#161615" stroke-miterlimit="10" stroke-width="1"/><rect width="14.141" height="20.569" transform="translate(224.304 1447.912)" fill="none" stroke="#161615" stroke-miterlimit="10" stroke-width="1"/><line x2="35.089" transform="translate(241.622 1438.081)" fill="none" stroke="#161615" stroke-miterlimit="10" stroke-width="1"/><line x2="35.089" transform="translate(241.622 1440.198)" fill="none" stroke="#161615" stroke-miterlimit="10" stroke-width="1"/><line x2="35.089" transform="translate(241.622 1442.362)" fill="none" stroke="#161615" stroke-miterlimit="10" stroke-width="1"/><line x2="19.736" transform="translate(241.622 1444.608)" fill="none" stroke="#161615" stroke-miterlimit="10" stroke-width="1"/><line x2="35.089" transform="translate(241.622 1449.021)" fill="none" stroke="#161615" stroke-miterlimit="10" stroke-width="1"/><line x2="35.089" transform="translate(241.622 1451.138)" fill="none" stroke="#161615" stroke-miterlimit="10" stroke-width="1"/><line x2="35.089" transform="translate(241.622 1453.302)" fill="none" stroke="#161615" stroke-miterlimit="10" stroke-width="1"/><line x2="19.736" transform="translate(241.622 1455.547)" fill="none" stroke="#161615" stroke-miterlimit="10" stroke-width="1"/><line x2="35.089" transform="translate(241.622 1457.818)" fill="none" stroke="#161615" stroke-miterlimit="10" stroke-width="1"/><line x2="35.089" transform="translate(241.622 1459.935)" fill="none" stroke="#161615" stroke-miterlimit="10" stroke-width="1"/><line x2="35.089" transform="translate(241.622 1462.099)" fill="none" stroke="#161615" stroke-miterlimit="10" stroke-width="1"/><line x2="19.736" transform="translate(241.622 1464.344)" fill="none" stroke="#161615" stroke-miterlimit="10" stroke-width="1"/><path d="M204.332,1493.6v1.842H305.341V1493.6" fill="none" stroke="#161615" stroke-miterlimit="10" stroke-width="1"/><path d="M303.132,1439.791l7.528,13.861,2.435-6.931,6.869,2.31L311.19,1434.6" fill="none" stroke="#161615" stroke-miterlimit="10" stroke-width="1"/><path d="M296.753,1439.4l-7.528,13.861-2.435-6.931-6.869,2.31L288.7,1434.2" fill="#fff" stroke="#161615" stroke-miterlimit="10" stroke-width="1"/><circle cx="13.71" cy="13.71" r="13.71" transform="translate(286.494 1412.686)" fill="#fff" stroke="#161615" stroke-miterlimit="10" stroke-width="1"/><circle cx="9.591" cy="9.591" r="9.591" transform="translate(290.614 1416.805)" fill="#fff" stroke="#161615" stroke-miterlimit="10" stroke-width="1"/><path d="M286.813,1476.009h5.269l2.983,5.369" fill="#fff" stroke="#161615" stroke-miterlimit="10" stroke-width="1"/><path d="M260.157,1485.98h5.269l2.983,5.369" fill="#fff" stroke="#161615" stroke-miterlimit="10" stroke-width="1"/><path d="M156.445,1290.967s-19.675,0-19.675,18.506c0,0-.974,16.948,15.584,20.259h86.3s10.714-3.116,10.714-17.532c0,0,.584-10.714-13.442-14.415,0,0,2.143-13.051-11.493-20.259,0,0-9.935-5.844-20.064,0,0,0-10.13-15.779-26.493-11.883C177.873,1265.643,158.782,1267.4,156.445,1290.967Z" fill="none" stroke="#161615" stroke-miterlimit="10" stroke-width="1"/><path d="M121.488,1283.549s-20.906,3.124-17.782,23.308c0,0,2.4,18.743,31.238,16.1,0,0-9.585-14.418,1.815-27.153,0,0,4.192-6.488,16.687-8.41,0,0,.721-20.665,23.549-24.99,0,0,17.3-3.605,28.594,10.573,0,0,4.806-3.605,9.371-2.163,0,0,0-23.548-24.749-27.874a34.338,34.338,0,0,0-33.4,16.1s-13.936-7.69-24.75.961C132.06,1260,120.046,1266.729,121.488,1283.549Z" fill="none" stroke="#161615" stroke-miterlimit="10" stroke-width="1"/><circle cx="5.828" cy="5.828" r="5.828" transform="translate(262.765 1370.567)" fill="none" stroke="#161615" stroke-miterlimit="10" stroke-width="1"/><path d="M266.289,1382.223a12.03,12.03,0,0,0-4.96,13.768h2.187l-.575,5.083h6.575" fill="none" stroke="#161615" stroke-miterlimit="10" stroke-width="1"/><path d="M270.372,1382.223a12.03,12.03,0,0,1,4.959,13.768h-2.187l.576,5.083h-6.576" fill="none" stroke="#161615" stroke-miterlimit="10" stroke-width="1"/><circle cx="5.828" cy="5.828" r="5.828" transform="translate(245.062 1370.567)" fill="none" stroke="#161615" stroke-miterlimit="10" stroke-width="1"/><path d="M248.586,1382.223a12.03,12.03,0,0,0-4.96,13.768h2.187l-.575,5.083h6.575" fill="none" stroke="#161615" stroke-miterlimit="10" stroke-width="1"/><path d="M252.669,1382.223a12.03,12.03,0,0,1,4.959,13.768h-2.187l.576,5.083h-6.576" fill="none" stroke="#161615" stroke-miterlimit="10" stroke-width="1"/><circle cx="5.828" cy="5.828" r="5.828" transform="translate(280.468 1371.36)" fill="none" stroke="#161615" stroke-miterlimit="10" stroke-width="1"/><path d="M286.3,1373.691a3.5,3.5,0,0,1,3.5,3.5" fill="none" stroke="#161615" stroke-miterlimit="10" stroke-width="1"/><path d="M268.593,1372.9a3.5,3.5,0,0,1,3.5,3.5" fill="none" stroke="#161615" stroke-miterlimit="10" stroke-width="1"/><path d="M250.89,1372.9a3.5,3.5,0,0,1,3.5,3.5" fill="none" stroke="#161615" stroke-miterlimit="10" stroke-width="1"/><path d="M283.992,1383.015a12.03,12.03,0,0,0-4.96,13.768h2.187l-.575,5.083h6.575" fill="none" stroke="#161615" stroke-miterlimit="10" stroke-width="1"/><path d="M288.075,1383.015a12.031,12.031,0,0,1,4.96,13.768h-2.187l.575,5.083h-6.576" fill="none" stroke="#161615" stroke-miterlimit="10" stroke-width="1"/><rect width="34.813" height="32.415" transform="translate(45.375 1308.495)" fill="none" stroke="#161615" stroke-miterlimit="10" stroke-width="1"/><path d="M147.041,1300.132s14.776-11.326,22.7,8.519" fill="none" stroke="#161615" stroke-miterlimit="10" stroke-width="1"/><path d="M147.041,1304.819s12.443-11.326,19.112,8.518" fill="none" stroke="#161615" stroke-miterlimit="10" stroke-width="1"/><path d="M235.875,1297.746s-9.667-3.14-17.423,1.043" fill="none" stroke="#161615" stroke-miterlimit="10" stroke-width="1"/><path d="M220.88,1303.661s14.243-4.654,22.633,4.99" fill="none" stroke="#161615" stroke-miterlimit="10" stroke-width="1"/><path d="M113.527,1187.763s-5.782,0-5.782,5.438c0,0-.286,4.981,4.58,5.954h25.361s3.149-.916,3.149-5.152c0,0,.172-3.149-3.95-4.237a5.913,5.913,0,0,0-3.378-5.953,6.2,6.2,0,0,0-5.9,0s-2.976-4.637-7.785-3.493C119.825,1180.32,114.214,1180.836,113.527,1187.763Z" fill="none" stroke="#161615" stroke-miterlimit="10" stroke-width="1"/><path d="M111.479,1192.181s4.343-3.329,6.67,2.5" fill="none" stroke="#161615" stroke-miterlimit="10" stroke-width="1"/><path d="M136.87,1189.755a7.349,7.349,0,0,0-5.12.306" fill="none" stroke="#161615" stroke-miterlimit="10" stroke-width="1"/><path d="M131.75,1193.29s4.186-1.368,6.651,1.466" fill="none" stroke="#161615" stroke-miterlimit="10" stroke-width="1"/><line x2="14.361" transform="translate(101.606 1362.821)" fill="none" stroke="#161615" stroke-miterlimit="10" stroke-width="1"/><path d="M137.619,1380.111l-9.291,10.471,9.291,10.471Z" fill="none" stroke="#161615" stroke-miterlimit="10" stroke-width="1"/><path d="M121.9,1401.053H109.02a10.5,10.5,0,0,1-10.471-10.471h0a10.5,10.5,0,0,1,10.471-10.471H121.9a10.507,10.507,0,0,1,9.645,6.405,10.372,10.372,0,0,1,.827,4.066h0A10.5,10.5,0,0,1,121.9,1401.053Z" fill="#fff" stroke="#161615" stroke-miterlimit="10" stroke-width="1"/><path d="M98.549,1358.962v13.768h5.3l-1.383,5.827,6.686-5.827H124.67v-13.768Z" fill="none" stroke="#161615" stroke-miterlimit="10" stroke-width="1"/><path d="M121.5,1383.62s5.615-.02,7.38,5.194" fill="none" stroke="#161615" stroke-miterlimit="10" stroke-width="1"/><line x2="14.361" transform="translate(101.606 1366.343)" fill="none" stroke="#161615" stroke-miterlimit="10" stroke-width="1"/><line y1="22.724" x2="22.26" transform="translate(80.702 1302.111)" fill="none" stroke="#161615" stroke-miterlimit="10" stroke-width="1"/><path d="M227.163,1383.62s-3.1-27.286,28.169-25.892" fill="none" stroke="#161615" stroke-miterlimit="10" stroke-width="1"/><line x2="23.246" y2="33.089" transform="translate(212.089 1329.732)" fill="none" stroke="#161615" stroke-miterlimit="10" stroke-width="1"/><rect width="39.428" height="33.725" transform="translate(291.379 1289.05)" fill="none" stroke="#161615" stroke-miterlimit="10" stroke-width="1"/><path d="M319.4,1292.9" fill="none" stroke="#161615" stroke-miterlimit="10" stroke-width="1"/><path d="M323.428,1292.946" fill="none" stroke="#161615" stroke-miterlimit="10" stroke-width="1"/><path d="M327.118,1292.9" fill="none" stroke="#161615" stroke-miterlimit="10" stroke-width="1"/><path d="M303.781,1306.625l5.853,2.869,2.481,5.055,6.011-12.706Z" fill="none" stroke="#161615" stroke-miterlimit="10" stroke-width="1"/><line y1="4.509" x2="5.717" transform="translate(303.918 1309.495)" fill="none" stroke="#161615" stroke-miterlimit="10" stroke-width="1"/><line x1="43.341" transform="translate(248.038 1306.677)" fill="none" stroke="#161615" stroke-miterlimit="10" stroke-width="1"/><path d="M253.654,1225.08s4.3,4.406-2.049,6.25v3.791s5.635,1.23,2.254,6.455l2.869,2.869s5.123-2.664,6.557,2.766h4.2s.717-5.43,5.942-3.176l2.869-2.766s-2.664-5.738,2.869-5.84v-3.791s-5.533-1.947-2.664-6.558l-2.254-2.459s-5.533,3.074-6.557-2.766h-4s-1.332,5.328-6.762,2.664Z" fill="none" stroke="#161615" stroke-miterlimit="10" stroke-width="1"/><circle cx="7.727" cy="7.727" r="7.727" transform="translate(257.659 1225.807)" fill="none" stroke="#161615" stroke-miterlimit="10" stroke-width="1"/><circle cx="3.364" cy="3.364" r="3.364" transform="translate(262.022 1230.17)" fill="none" stroke="#161615" stroke-miterlimit="10" stroke-width="1"/><path d="M279.431,1245.431s4.3,4.405-2.049,6.25v3.791s5.635,1.229,2.254,6.454l2.869,2.869s5.122-2.664,6.557,2.767h4.2s.717-5.431,5.942-3.177l2.869-2.766s-2.664-5.738,2.869-5.84v-3.791s-5.533-1.947-2.664-6.557l-2.254-2.459s-5.533,3.073-6.557-2.767h-4s-1.332,5.328-6.762,2.664Z" fill="none" stroke="#161615" stroke-miterlimit="10" stroke-width="1"/><circle cx="7.727" cy="7.727" r="7.727" transform="translate(283.436 1246.157)" fill="none" stroke="#161615" stroke-miterlimit="10" stroke-width="1"/><circle cx="3.364" cy="3.364" r="3.364" transform="translate(287.799 1250.52)" fill="none" stroke="#161615" stroke-miterlimit="10" stroke-width="1"/><path d="M285.485,1213.791s4.3,4.405-2.049,6.249v3.791s5.635,1.23,2.254,6.455l2.869,2.869s5.122-2.664,6.557,2.766h4.2s.717-5.43,5.942-3.176l2.869-2.766s-2.664-5.738,2.869-5.84v-3.791s-5.533-1.947-2.664-6.557l-2.254-2.459s-5.533,3.073-6.557-2.767h-4s-1.332,5.328-6.763,2.664Z" fill="none" stroke="#161615" stroke-miterlimit="10" stroke-width="1"/><circle cx="7.727" cy="7.727" r="7.727" transform="translate(289.49 1214.517)" fill="none" stroke="#161615" stroke-miterlimit="10" stroke-width="1"/><circle cx="3.364" cy="3.364" r="3.364" transform="translate(293.853 1218.88)" fill="none" stroke="#161615" stroke-miterlimit="10" stroke-width="1"/><line y1="10.036" x2="26.201" transform="translate(227.163 1269.158)" fill="none" stroke="#161615" stroke-miterlimit="10" stroke-width="1"/><circle cx="5.612" cy="5.612" r="5.612" transform="translate(247.752 1263.546)" fill="#fff" stroke="#161615" stroke-miterlimit="10" stroke-width="1"/><path d="M129.283,1166.408v13.731s7.908-2.924,11.553,6.871c0,0,5.221.338,2.97,10.582h4.165v-14.41l2.252-2.026v-9.907Z" fill="none" stroke="#161615" stroke-miterlimit="10" stroke-width="1"/><path d="M135.076,1165.395h19.312v14.744l2.477,1.861v7.422l-2.139,1.813v3.449l-4.5.072" fill="none" stroke="#161615" stroke-miterlimit="10" stroke-width="1"/><path d="M47.968,1223.315" fill="none" stroke="#161615" stroke-miterlimit="10" stroke-width="1"/><path d="M48.5,1188.675v21.2l15.778,2.689v-26.755Z" fill="none" stroke="#161615" stroke-miterlimit="10" stroke-width="1"/><path d="M64.275,1209.04H74.634v-19.887H64.753" fill="none" stroke="#161615" stroke-miterlimit="10" stroke-width="1"/><line x2="6.067" transform="translate(65.967 1193.723)" fill="none" stroke="#161615" stroke-miterlimit="10" stroke-width="1"/><line x2="6.067" transform="translate(65.967 1197.484)" fill="none" stroke="#161615" stroke-miterlimit="10" stroke-width="1"/><line x2="6.067" transform="translate(65.967 1201.263)" fill="none" stroke="#161615" stroke-miterlimit="10" stroke-width="1"/><line x2="6.067" transform="translate(65.967 1204.644)" fill="none" stroke="#161615" stroke-miterlimit="10" stroke-width="1"/><line y2="15.354" transform="translate(51.411 1191.873)" fill="none" stroke="#161615" stroke-miterlimit="10" stroke-width="1"/><path d="M64.657,1224.207v21.2l15.778,2.689v-26.755Z" fill="none" stroke="#161615" stroke-miterlimit="10" stroke-width="1"/><path d="M90.795,1224.685" fill="none" stroke="#161615" stroke-miterlimit="10" stroke-width="1"/><path d="M80.436,1244.572H99.275v-19.887H80.436" fill="none" stroke="#161615" stroke-miterlimit="10" stroke-width="1"/><path d="M99.275,1224.685l-11.5,9.3-7.339-4.327" fill="none" stroke="#161615" stroke-miterlimit="10" stroke-width="1"/><line y2="15.354" transform="translate(67.566 1227.039)" fill="none" stroke="#161615" stroke-miterlimit="10" stroke-width="1"/><line x2="7.771" y2="60.846" transform="translate(124.289 1199.155)" fill="none" stroke="#161615" stroke-miterlimit="10" stroke-width="1"/><path d="M116.315,1260" fill="#fff" stroke="#161615" stroke-miterlimit="10" stroke-width="1"/><circle cx="5.612" cy="5.612" r="5.612" transform="translate(255.332 1352.064)" fill="#fff" stroke="#161615" stroke-miterlimit="10" stroke-width="1"/><circle cx="5.612" cy="5.612" r="5.612" transform="translate(221.551 1383.62)" fill="#fff" stroke="#161615" stroke-miterlimit="10" stroke-width="1"/><rect width="3.661" height="10.801" transform="translate(50.061 1304.561)" fill="#fff" stroke="#161615" stroke-miterlimit="10" stroke-width="1"/><rect width="3.661" height="10.801" transform="translate(72.046 1304.561)" fill="#fff" stroke="#161615" stroke-miterlimit="10" stroke-width="1"/><path d="M310.565,1332.957s-5.782,0-5.782,5.439c0,0-.286,4.98,4.58,5.953h25.361s3.149-.916,3.149-5.152c0,0,.171-3.149-3.95-4.236a5.914,5.914,0,0,0-3.378-5.954,6.2,6.2,0,0,0-5.9,0s-2.977-4.637-7.785-3.492C316.863,1325.515,311.252,1326.03,310.565,1332.957Z" fill="none" stroke="#161615" stroke-miterlimit="10" stroke-width="1"/><path d="M292.8,1357.04s-3.7,0-3.7,3.477a3.674,3.674,0,0,0,2.928,3.807H308.25a3.193,3.193,0,0,0,2.013-3.294s.11-2.013-2.525-2.709a3.781,3.781,0,0,0-2.16-3.806,3.965,3.965,0,0,0-3.769,0s-1.9-2.964-4.978-2.232C296.831,1352.283,293.244,1352.612,292.8,1357.04Z" fill="none" stroke="#161615" stroke-miterlimit="10" stroke-width="1"/><path d="M163.162,1276.537s4.3,4.405-2.049,6.249v3.791s5.635,1.23,2.254,6.455l2.869,2.869s5.123-2.664,6.557,2.766h4.2s.717-5.43,5.943-3.176l2.869-2.766s-2.664-5.738,2.868-5.84v-3.791s-5.532-1.947-2.664-6.557l-2.254-2.459s-5.532,3.073-6.557-2.767h-4s-1.332,5.328-6.762,2.664Z" fill="none" stroke="#161615" stroke-miterlimit="10" stroke-width="1"/><circle cx="7.727" cy="7.727" r="7.727" transform="translate(167.167 1277.263)" fill="none" stroke="#161615" stroke-miterlimit="10" stroke-width="1"/><circle cx="3.364" cy="3.364" r="3.364" transform="translate(171.53 1281.626)" fill="none" stroke="#161615" stroke-miterlimit="10" stroke-width="1"/><path d="M215.233,1455.547" fill="#fff" stroke="#161615" stroke-miterlimit="10" stroke-width="1"/><line y2="8.512" transform="translate(207.116 1387.06)" fill="#fff" stroke="#161615" stroke-miterlimit="10" stroke-width="1"/><line y1="5.867" x2="5.982" transform="translate(212.407 1391.777)" fill="#fff" stroke="#161615" stroke-miterlimit="10" stroke-width="1"/><line x2="8.512" transform="translate(214.478 1402.82)" fill="#fff" stroke="#161615" stroke-miterlimit="10" stroke-width="1"/><line x2="5.982" y2="6.033" transform="translate(212.407 1408.227)" fill="#fff" stroke="#161615" stroke-miterlimit="10" stroke-width="1"/><line y2="7.937" transform="translate(207.116 1410.527)" fill="#fff" stroke="#161615" stroke-miterlimit="10" stroke-width="1"/><line x1="5.867" y2="6.033" transform="translate(195.957 1408.227)" fill="#fff" stroke="#161615" stroke-miterlimit="10" stroke-width="1"/><line x1="8.052" transform="translate(191.471 1402.82)" fill="#fff" stroke="#161615" stroke-miterlimit="10" stroke-width="1"/><line x2="5.867" y2="6.327" transform="translate(195.957 1391.317)" fill="#fff" stroke="#161615" stroke-miterlimit="10" stroke-width="1"/><circle cx="5.612" cy="5.612" r="5.612" transform="translate(182.803 1120.523)" fill="#fff" stroke="#161615" stroke-miterlimit="10" stroke-width="1"/><line x1="42.113" y2="49.408" transform="translate(127.625 1330.199)" fill="none" stroke="#161615" stroke-miterlimit="10" stroke-width="1"/><circle cx="5.612" cy="5.612" r="5.612" transform="translate(164.126 1324.588)" fill="#fff" stroke="#161615" stroke-miterlimit="10" stroke-width="1"/><line y2="110.488" transform="translate(188.415 1132.262)" fill="none" stroke="#161615" stroke-miterlimit="10" stroke-width="1"/><line y2="197.689" transform="translate(188.415 1329.816)" fill="none" stroke="#161615" stroke-miterlimit="10" stroke-width="1"/><circle cx="3.351" cy="3.351" r="3.351" transform="translate(212.056 1442.293)" fill="#fff" stroke="#161615" stroke-miterlimit="10" stroke-width="1"/></g></g></svg>