<?xml version="1.0" encoding="UTF-8"?>
<svg width="139px" height="235px" viewBox="0 0 139 235" version="1.1" xmlns="http://www.w3.org/2000/svg" xmlns:xlink="http://www.w3.org/1999/xlink">
    <!-- Generator: Sketch 52.2 (67145) - http://www.bohemiancoding.com/sketch -->
    <title>mob-methode-3.1</title>
    <desc>Created with Sketch.</desc>
    <defs>
        <path d="M36.44532,36.82394 C44.1918,38.22632 48.33216,42.50024 48.33216,48.644 C48.33216,57.72608 40.11822,62.80136 24.42492,62.80136 C14.74182,62.80136 7.93026,60.53084 2.18718,54.11996 L4.85838,50.71418 C9.8001,56.39048 15.87708,58.59422 24.35814,58.59422 C37.04634,58.59422 43.39044,55.12166 43.39044,48.10976 C43.39044,41.83244 36.31176,39.02768 21.88728,39.02768 L19.41642,39.02768 L19.41642,35.22122 C20.75202,35.288 22.08762,35.288 23.35644,35.288 C35.31006,35.288 41.1867,32.34968 41.1867,26.00558 C41.1867,20.46284 35.8443,17.05706 26.29476,17.05706 C19.8171,17.05706 14.00724,18.86012 8.26416,22.73336 L5.72652,19.52792 C12.53808,15.18722 19.1493,12.98348 26.09442,12.98348 C38.91618,12.98348 46.26198,17.9252 46.26198,25.73846 C46.26198,31.21442 42.98976,34.88732 36.44532,36.82394 Z" id="path-1"></path>
    </defs>
    <g id="Page-1" stroke="none" stroke-width="1" fill="none" fill-rule="evenodd">
        <g id="mob-methode-3.1">
            <circle id="Oval" stroke="#161615" cx="69.052" cy="140.919" r="68.552"></circle>
            <g id="Group" transform="translate(42.156000, 102.952000)">
                <g id="3">
                    <use fill="#000000" xlink:href="#path-1"></use>
                    <use fill="#161615" xlink:href="#path-1"></use>
                </g>
            </g>
            <path d="M69.052,0 L69.052,73.33" id="Path" stroke="#161615"></path>
            <path d="M69.052,209.615 L69.052,234.684" id="Path" stroke="#161615"></path>
        </g>
    </g>
</svg>