<svg xmlns="http://www.w3.org/2000/svg" width="312.701" height="500.762" viewBox="0 0 312.701 500.762"><g transform="translate(-25.13 -5397.194)"><circle cx="11.174" cy="11.174" r="11.174" transform="translate(131.131 5485.325)" fill="none" stroke="#040405" stroke-miterlimit="10" stroke-width="1"/><circle cx="11.174" cy="11.174" r="11.174" transform="translate(177.33 5471.137)" fill="none" stroke="#040405" stroke-miterlimit="10" stroke-width="1"/><circle cx="13.464" cy="13.464" r="13.464" transform="translate(175.039 5516.213)" fill="none" stroke="#040405" stroke-miterlimit="10" stroke-width="1"/><path d="M120.489,5517.187s-3.233-3.367-4.984,1.213c0,0,2.56,16.211.943,24.742,0,0-3.5,17.556,23.843,12.168,0,0-2.559-3.233-4.176-4.984,0,0-9.833,2.29-13.066-1.886C123.049,5548.44,122.645,5526.213,120.489,5517.187Z" fill="none" stroke="#040405" stroke-miterlimit="10" stroke-width="1"/><path d="M122.448,5534.018c0-30.57,16.963-24.39,16.963-24.39s8.068.542,14.355,21.885l9.265.331,1.489,9.595-15.221.331s-4.467-.827-5.294-4.467l-5.808-10.678s-13.544,9.985-2.082,23.7" fill="none" stroke="#040405" stroke-miterlimit="10" stroke-width="1"/><path d="M162.937,5532.77s11.852,1.213,1.583,8.669" fill="none" stroke="#040405" stroke-miterlimit="10" stroke-width="1"/><line x2="2.162" y2="6.274" transform="translate(163.732 5527.015)" fill="none" stroke="#040405" stroke-miterlimit="10" stroke-width="1"/><line x2="0.844" y2="1.74" transform="translate(167.738 5538.508)" fill="none" stroke="#040405" stroke-miterlimit="10" stroke-width="1"/><path d="M138.113,5534.213s-9.376,16.023,21.957,25.043" fill="none" stroke="#040405" stroke-miterlimit="10" stroke-width="1"/><circle cx="11.174" cy="11.174" r="11.174" transform="translate(224.45 5484.785)" fill="none" stroke="#040405" stroke-miterlimit="10" stroke-width="1"/><path d="M257.439,5516.648s3.233-3.368,4.985,1.212c0,0-2.56,16.212-.943,24.742,0,0,3.5,17.556-23.844,12.168,0,0,2.56-3.233,4.176-4.984,0,0,9.834,2.29,13.067-1.886C254.88,5547.9,255.284,5525.673,257.439,5516.648Z" fill="none" stroke="#040405" stroke-miterlimit="10" stroke-width="1"/><path d="M255.48,5533.478c0-30.57-16.962-24.389-16.962-24.389s-8.068.541-14.355,21.884l-9.265.331-1.489,9.6,15.221.331s4.467-.828,5.294-4.467l5.808-10.678s13.544,9.984,2.081,23.7" fill="none" stroke="#040405" stroke-miterlimit="10" stroke-width="1"/><path d="M214.991,5532.23s-11.851,1.213-1.582,8.67" fill="none" stroke="#040405" stroke-miterlimit="10" stroke-width="1"/><path d="M239.816,5533.673s9.376,16.023-21.958,25.043" fill="none" stroke="#040405" stroke-miterlimit="10" stroke-width="1"/><path d="M153.479,5521.751a55.853,55.853,0,0,1,15.1-3.917s-1.628-22.076,13.8-22.313c0,0,6.884,5.815,12.106,0,0,0,13.768-3.324,15.548,22.55a51.506,51.506,0,0,1,13.056,3.68" fill="none" stroke="#040405" stroke-miterlimit="10" stroke-width="1"/><path d="M160.923,5578.392s-3.264-19.309,7.237-19.136h42s9.481-1.815,6.117,19.136" fill="none" stroke="#040405" stroke-miterlimit="10" stroke-width="1"/><path d="M164.039,5578.392s-2.9-16.5,6.426-16.349H207.76s8.419-1.551,5.431,16.349" fill="none" stroke="#040405" stroke-miterlimit="10" stroke-width="1"/><path d="M165.822,5559.593s-.378-11.843,14.073-12.858h18.338s12.107.745,13.079,12.521" fill="none" stroke="#040405" stroke-miterlimit="10" stroke-width="1"/><circle cx="14.879" cy="14.879" r="14.879" transform="translate(65.01 5431.618)" fill="none" stroke="#040405" stroke-miterlimit="10" stroke-width="1"/><path d="M62.3,5483.632s17.86-15.129,35.826-1.051" fill="none" stroke="#040405" stroke-miterlimit="10" stroke-width="1"/><rect width="14.442" height="6.327" rx="1.705" transform="translate(58.836 5577.619)" fill="#fff" stroke="#161615" stroke-miterlimit="10" stroke-width="1"/><rect width="14.442" height="6.327" rx="1.705" transform="translate(88.98 5577.619)" fill="#fff" stroke="#161615" stroke-miterlimit="10" stroke-width="1"/><path d="M64.187,5465.141s-10.4,4.833-10.611,11.872v8.4s1.471,8.51,8.72,9.14c0,0,9.876-1.366,15.549-6.619l7.714.1s3.648,4.305,12.563,6.514c0,0,10.25-1.534,10.25-9.663v-8.31s-3.5-10.437-10.881-11.444Z" fill="none" stroke="#040405" stroke-miterlimit="10" stroke-width="1"/><path d="M93.056,5479.342s3.976,10.9-7.5,8.7" fill="none" stroke="#040405" stroke-miterlimit="10" stroke-width="1"/><path d="M62.3,5494.558v21.735H99.082l.4-22.038" fill="none" stroke="#040405" stroke-miterlimit="10" stroke-width="1"/><path d="M98.754,5516.529l5.09,62.1H88.574l-5.7-58.839H78.394l-4.479,58.839-15.88,1.018,6.108-63.35" fill="#fff" stroke="#161615" stroke-miterlimit="10" stroke-width="1"/><circle cx="14.879" cy="14.879" r="14.879" transform="translate(279.892 5431.262)" fill="none" stroke="#040405" stroke-miterlimit="10" stroke-width="1"/><path d="M277.178,5483.276s17.86-15.129,35.826-1.051" fill="none" stroke="#040405" stroke-miterlimit="10" stroke-width="1"/><path d="M279.069,5464.785s-10.4,4.833-10.611,11.872v8.4s1.471,8.51,8.72,9.14c0,0,9.876-1.366,15.549-6.619l7.714.1s3.648,4.305,12.563,6.514c0,0,10.25-1.534,10.25-9.663v-8.31s-3.5-10.438-10.881-11.444Z" fill="none" stroke="#040405" stroke-miterlimit="10" stroke-width="1"/><path d="M307.937,5478.986s3.977,10.9-7.5,8.7" fill="none" stroke="#040405" stroke-miterlimit="10" stroke-width="1"/><path d="M277.178,5494.2v21.735h36.786l.4-22.038" fill="none" stroke="#040405" stroke-miterlimit="10" stroke-width="1"/><path d="M313.636,5516.173l5.09,62.1h-15.27l-5.7-58.838h-4.479l-4.479,58.838-15.88,1.018,6.108-63.35" fill="none" stroke="#040405" stroke-miterlimit="10" stroke-width="1"/><path d="M242.462,5397.692l7.568.753-30.346,30.734h-14.57l-23.51,26.138-28.126-9.824L127.9,5465.141" fill="none" stroke="#040405" stroke-miterlimit="10" stroke-width="1"/><line y1="7.676" x2="0.298" transform="translate(250.03 5398.273)" fill="none" stroke="#040405" stroke-miterlimit="10" stroke-width="1"/><path d="M142.3,5500.208a6.91,6.91,0,0,0,7.341,4.71" fill="#fff" stroke="#161615" stroke-miterlimit="10" stroke-width="1"/><path d="M235.624,5500.208a6.912,6.912,0,0,1-7.342,4.71" fill="#fff" stroke="#161615" stroke-miterlimit="10" stroke-width="1"/><path d="M181.323,5486.444s7.787,8.625,14.17,0" fill="#fff" stroke="#161615" stroke-miterlimit="10" stroke-width="1"/><rect width="14.442" height="6.327" rx="1.705" transform="translate(274.139 5577.665)" fill="#fff" stroke="#161615" stroke-miterlimit="10" stroke-width="1"/><rect width="14.442" height="6.327" rx="1.705" transform="translate(304.283 5577.665)" fill="#fff" stroke="#161615" stroke-miterlimit="10" stroke-width="1"/><rect width="101.453" height="67.957" transform="translate(201.043 5799.575)" fill="none" stroke="#161615" stroke-miterlimit="10" stroke-width="1"/><rect width="96.305" height="62.693" transform="translate(203.617 5802.207)" fill="none" stroke="#161615" stroke-miterlimit="10" stroke-width="1"/><path d="M201.043,5867.532l-13.845,26.1H317.18l-14.684-26.1" fill="none" stroke="#161615" stroke-miterlimit="10" stroke-width="1"/><path d="M275.264,5893.631l-7.391-11.988h-32.54l-6.219,11.988" fill="none" stroke="#161615" stroke-miterlimit="10" stroke-width="1"/><rect width="76.202" height="7.64" transform="translate(212.792 5808.12)" fill="none" stroke="#161615" stroke-miterlimit="10" stroke-width="1"/><rect width="18.316" height="13.517" transform="translate(212.792 5818.4)" fill="none" stroke="#161615" stroke-miterlimit="10" stroke-width="1"/><rect width="18.316" height="26.641" transform="translate(212.792 5834.855)" fill="none" stroke="#161615" stroke-miterlimit="10" stroke-width="1"/><line x2="45.447" transform="translate(235.222 5822.122)" fill="none" stroke="#161615" stroke-miterlimit="10" stroke-width="1"/><line x2="45.447" transform="translate(235.222 5824.864)" fill="none" stroke="#161615" stroke-miterlimit="10" stroke-width="1"/><line x2="45.447" transform="translate(235.222 5827.667)" fill="none" stroke="#161615" stroke-miterlimit="10" stroke-width="1"/><line x2="25.562" transform="translate(235.222 5830.575)" fill="none" stroke="#161615" stroke-miterlimit="10" stroke-width="1"/><line x2="45.447" transform="translate(235.222 5836.291)" fill="none" stroke="#161615" stroke-miterlimit="10" stroke-width="1"/><line x2="45.447" transform="translate(235.222 5839.032)" fill="none" stroke="#161615" stroke-miterlimit="10" stroke-width="1"/><line x2="45.447" transform="translate(235.222 5841.835)" fill="none" stroke="#161615" stroke-miterlimit="10" stroke-width="1"/><line x2="25.562" transform="translate(235.222 5844.744)" fill="none" stroke="#161615" stroke-miterlimit="10" stroke-width="1"/><line x2="26.682" transform="translate(71.92 5836.291)" fill="none" stroke="#161615" stroke-miterlimit="10" stroke-width="1"/><line x2="26.682" transform="translate(71.92 5839.032)" fill="none" stroke="#161615" stroke-miterlimit="10" stroke-width="1"/><line x2="26.682" transform="translate(71.92 5841.835)" fill="none" stroke="#161615" stroke-miterlimit="10" stroke-width="1"/><line x2="15.007" transform="translate(71.92 5844.744)" fill="none" stroke="#161615" stroke-miterlimit="10" stroke-width="1"/><line x2="21.356" transform="translate(103.927 5862.276)" fill="none" stroke="#161615" stroke-miterlimit="10" stroke-width="1"/><line x2="26.682" transform="translate(71.92 5850.46)" fill="none" stroke="#161615" stroke-miterlimit="10" stroke-width="1"/><line x2="26.682" transform="translate(71.92 5853.201)" fill="none" stroke="#161615" stroke-miterlimit="10" stroke-width="1"/><line x2="26.682" transform="translate(71.92 5856.004)" fill="none" stroke="#161615" stroke-miterlimit="10" stroke-width="1"/><line x2="26.682" transform="translate(71.92 5858.175)" fill="none" stroke="#161615" stroke-miterlimit="10" stroke-width="1"/><line x2="26.682" transform="translate(71.92 5860.917)" fill="none" stroke="#161615" stroke-miterlimit="10" stroke-width="1"/><line x2="26.682" transform="translate(71.92 5863.72)" fill="none" stroke="#161615" stroke-miterlimit="10" stroke-width="1"/><line x2="26.682" transform="translate(72.299 5865.873)" fill="none" stroke="#161615" stroke-miterlimit="10" stroke-width="1"/><line x2="26.682" transform="translate(72.299 5868.614)" fill="none" stroke="#161615" stroke-miterlimit="10" stroke-width="1"/><line x2="26.682" transform="translate(72.299 5871.417)" fill="none" stroke="#161615" stroke-miterlimit="10" stroke-width="1"/><line x2="45.447" transform="translate(235.222 5847.685)" fill="none" stroke="#161615" stroke-miterlimit="10" stroke-width="1"/><line x2="45.447" transform="translate(235.222 5850.427)" fill="none" stroke="#161615" stroke-miterlimit="10" stroke-width="1"/><line x2="45.447" transform="translate(235.222 5853.229)" fill="none" stroke="#161615" stroke-miterlimit="10" stroke-width="1"/><line x2="25.562" transform="translate(235.222 5856.138)" fill="none" stroke="#161615" stroke-miterlimit="10" stroke-width="1"/><path d="M186.924,5894.03v2.386H317.75v-2.386" fill="none" stroke="#161615" stroke-miterlimit="10" stroke-width="1"/><path d="M314.89,5824.336l9.751,17.953,3.154-8.977,8.9,2.991-11.367-18.7" fill="none" stroke="#161615" stroke-miterlimit="10" stroke-width="1"/><path d="M306.627,5823.828l-9.751,17.954-3.154-8.977-8.9,2.992,11.367-18.7" fill="#fff" stroke="#161615" stroke-miterlimit="10" stroke-width="1"/><circle cx="17.757" cy="17.757" r="17.757" transform="translate(293.341 5789.23)" fill="#fff" stroke="#161615" stroke-miterlimit="10" stroke-width="1"/><circle cx="12.422" cy="12.422" r="12.422" transform="translate(298.676 5794.565)" fill="#fff" stroke="#161615" stroke-miterlimit="10" stroke-width="1"/><path d="M293.754,5871.246h6.825l3.863,6.954" fill="#fff" stroke="#161615" stroke-miterlimit="10" stroke-width="1"/><path d="M259.228,5884.16h6.825l3.863,6.953" fill="#fff" stroke="#161615" stroke-miterlimit="10" stroke-width="1"/><path d="M208.338,5845.375" fill="#fff" stroke="#161615" stroke-miterlimit="10" stroke-width="1"/><path d="M159.388,5869.31s-5.941,0-5.941,5.588c0,0-.294,5.117,4.706,6.117H184.21s3.235-.941,3.235-5.293c0,0,.176-3.236-4.059-4.353a6.075,6.075,0,0,0-3.47-6.117,6.374,6.374,0,0,0-6.059,0s-3.058-4.765-8-3.588C165.858,5861.664,160.094,5862.193,159.388,5869.31Z" fill="#fff" stroke="#161615" stroke-miterlimit="10" stroke-width="1"/><path d="M168.877,5866.033s1.75-2.863,5.031-.763" fill="none" stroke="#000" stroke-miterlimit="10" stroke-width="1"/><path d="M159.387,5869.37s1.751-2.863,5.032-.763" fill="none" stroke="#000" stroke-miterlimit="10" stroke-width="1"/><path d="M156.453,5873.016s3.014-2.863,8.663-.763" fill="none" stroke="#000" stroke-miterlimit="10" stroke-width="1"/><path d="M248.41,5778.793s-4.625,0-4.625,4.35c0,0-.229,3.985,3.663,4.763h20.287s2.518-.733,2.518-4.121c0,0,.138-2.519-3.159-3.389a4.732,4.732,0,0,0-2.7-4.763,4.963,4.963,0,0,0-4.717,0s-2.381-3.709-6.228-2.793C253.447,5772.84,248.959,5773.252,248.41,5778.793Z" fill="#fff" stroke="#161615" stroke-miterlimit="10" stroke-width="1"/><path d="M255.8,5776.242a2.647,2.647,0,0,1,3.918-.6" fill="none" stroke="#000" stroke-miterlimit="10" stroke-width="1"/><path d="M248.409,5778.84a2.647,2.647,0,0,1,3.918-.595" fill="none" stroke="#000" stroke-miterlimit="10" stroke-width="1"/><path d="M246.125,5781.679s2.346-2.23,6.744-.6" fill="none" stroke="#000" stroke-miterlimit="10" stroke-width="1"/><path d="M30.269,5821.368s-4.626,0-4.626,4.35c0,0-.229,3.984,3.664,4.763H49.594s2.518-.733,2.518-4.122c0,0,.138-2.518-3.159-3.388a4.732,4.732,0,0,0-2.7-4.763,4.963,4.963,0,0,0-4.717,0s-2.381-3.709-6.228-2.793C35.306,5815.415,30.818,5815.827,30.269,5821.368Z" fill="#fff" stroke="#161615" stroke-miterlimit="10" stroke-width="1"/><path d="M37.656,5818.817a2.647,2.647,0,0,1,3.918-.595" fill="none" stroke="#000" stroke-miterlimit="10" stroke-width="1"/><path d="M30.268,5821.415a2.647,2.647,0,0,1,3.918-.6" fill="none" stroke="#000" stroke-miterlimit="10" stroke-width="1"/><path d="M27.984,5824.253s2.346-2.229,6.744-.594" fill="none" stroke="#000" stroke-miterlimit="10" stroke-width="1"/><path d="M277.714,5762.652s-6.122,0-6.122,5.759c0,0-.3,5.273,4.849,6.3h26.852s3.333-.97,3.333-5.455c0,0,.182-3.334-4.182-4.485a6.26,6.26,0,0,0-3.576-6.3,6.568,6.568,0,0,0-6.243,0s-3.152-4.91-8.243-3.7C284.382,5754.773,278.442,5755.318,277.714,5762.652Z" fill="#fff" stroke="#161615" stroke-miterlimit="10" stroke-width="1"/><path d="M287.492,5759.276s1.8-2.951,5.185-.787" fill="none" stroke="#000" stroke-miterlimit="10" stroke-width="1"/><path d="M277.714,5762.714s1.8-2.95,5.185-.786" fill="none" stroke="#000" stroke-miterlimit="10" stroke-width="1"/><path d="M274.69,5766.472s3.106-2.951,8.927-.787" fill="none" stroke="#000" stroke-miterlimit="10" stroke-width="1"/><rect width="53.363" height="9.066" transform="translate(71.92 5778.84)" fill="#fff" stroke="#161615" stroke-miterlimit="10" stroke-width="1"/><rect width="53.363" height="41.408" transform="translate(71.92 5790.508)" fill="#fff" stroke="#161615" stroke-miterlimit="10" stroke-width="1"/><path d="M123.778,5868.118l1.505.5-5.524,3.636-4.27.767-4.9,5.323-2.937-2.243-3.722,4.485" fill="none" stroke="#161615" stroke-miterlimit="10" stroke-width="1"/><line y1="1.605" x2="0.448" transform="translate(125.043 5868.524)" fill="none" stroke="#161615" stroke-miterlimit="10" stroke-width="1"/><rect width="26.682" height="5.067" transform="translate(72.299 5875.514)" fill="none" stroke="#161615" stroke-miterlimit="10" stroke-width="1"/><line y2="4.757" transform="translate(159.915 5790.799)" fill="#fff" stroke="#161615" stroke-miterlimit="10" stroke-width="1"/><line y1="3.279" x2="3.343" transform="translate(162.872 5793.435)" fill="#fff" stroke="#161615" stroke-miterlimit="10" stroke-width="1"/><line x2="4.757" transform="translate(164.029 5799.606)" fill="#fff" stroke="#161615" stroke-miterlimit="10" stroke-width="1"/><line x2="3.343" y2="3.372" transform="translate(162.872 5802.628)" fill="#fff" stroke="#161615" stroke-miterlimit="10" stroke-width="1"/><line y2="4.436" transform="translate(159.915 5803.914)" fill="#fff" stroke="#161615" stroke-miterlimit="10" stroke-width="1"/><line x1="3.279" y2="3.372" transform="translate(153.679 5802.628)" fill="#fff" stroke="#161615" stroke-miterlimit="10" stroke-width="1"/><line x1="4.5" transform="translate(151.171 5799.606)" fill="#fff" stroke="#161615" stroke-miterlimit="10" stroke-width="1"/><line x2="3.279" y2="3.536" transform="translate(153.679 5793.178)" fill="#fff" stroke="#161615" stroke-miterlimit="10" stroke-width="1"/><line y2="3.153" transform="translate(223.584 5779.502)" fill="#fff" stroke="#161615" stroke-miterlimit="10" stroke-width="1"/><line y1="2.173" x2="2.216" transform="translate(225.544 5781.249)" fill="#fff" stroke="#161615" stroke-miterlimit="10" stroke-width="1"/><line x2="3.153" transform="translate(226.31 5785.339)" fill="#fff" stroke="#161615" stroke-miterlimit="10" stroke-width="1"/><line x2="2.216" y2="2.235" transform="translate(225.544 5787.341)" fill="#fff" stroke="#161615" stroke-miterlimit="10" stroke-width="1"/><line y2="2.94" transform="translate(223.584 5788.193)" fill="#fff" stroke="#161615" stroke-miterlimit="10" stroke-width="1"/><line x1="2.173" y2="2.235" transform="translate(219.451 5787.341)" fill="#fff" stroke="#161615" stroke-miterlimit="10" stroke-width="1"/><line x1="2.982" transform="translate(217.789 5785.339)" fill="#fff" stroke="#161615" stroke-miterlimit="10" stroke-width="1"/><line x2="2.173" y2="2.343" transform="translate(219.451 5781.078)" fill="#fff" stroke="#161615" stroke-miterlimit="10" stroke-width="1"/><circle cx="5.612" cy="5.612" r="5.612" transform="translate(182.803 5729.952)" fill="#fff" stroke="#161615" stroke-miterlimit="10" stroke-width="1"/><circle cx="2.85" cy="2.85" r="2.85" transform="translate(96.225 5889.979)" fill="#fff" stroke="#161615" stroke-miterlimit="10" stroke-width="1"/><line y2="77.781" transform="translate(188.415 5652.094)" fill="#fff" stroke="#161615" stroke-miterlimit="10" stroke-width="1"/><path d="M221.125,5822.57v-1.72h-1.958a6.882,6.882,0,0,0-.729.037l1.292,1.683Z" fill="none" stroke="#161615" stroke-miterlimit="10" stroke-width="1"/><path d="M217.894,5823.271a.871.871,0,0,1,.246-.4,1.057,1.057,0,0,1,.47-.231,2.684,2.684,0,0,1,.484-.064l-1.219-1.6a2.527,2.527,0,0,0-1.987,1.483l1.995.859c0-.015.007-.031.011-.045" fill="none" stroke="#161615" stroke-miterlimit="10" stroke-width="1"/><path d="M217.822,5824.883v-1.026c0-.032,0-.061,0-.091l-2.062-.9a3.739,3.739,0,0,0-.095.848v1.171h2.155Z" fill="none" stroke="#161615" stroke-miterlimit="10" stroke-width="1"/><path d="M217.822,5826.344V5825.3h-2.155v1.323a3.64,3.64,0,0,0,.094.837l2.069-.908c-.005-.065-.008-.133-.008-.2" fill="none" stroke="#161615" stroke-miterlimit="10" stroke-width="1"/><path d="M218.176,5827.37a.818.818,0,0,1-.261-.382l-2.029.877a2.2,2.2,0,0,0,.628.863l.085.068.1.076.052.034.063.04.111.064.188.1.107.043.118.047a3.945,3.945,0,0,0,.634.171l1.3-1.723a1.869,1.869,0,0,1-1.1-.273" fill="none" stroke="#161615" stroke-miterlimit="10" stroke-width="1"/><path d="M219.913,5827.645l-1.376,1.793c.2.017.408.029.629.029h1.959v-1.822Z" fill="none" stroke="#161615" stroke-miterlimit="10" stroke-width="1"/><path d="M221.676,5827.645v1.822h1.958c.259,0,.5-.014.733-.037l-1.377-1.785Z" fill="none" stroke="#161615" stroke-miterlimit="10" stroke-width="1"/><path d="M226.922,5827.859l-2.024-.867a.881.881,0,0,1-.23.356,1.648,1.648,0,0,1-1.042.293l1.3,1.7a2.518,2.518,0,0,0,2-1.485" fill="none" stroke="#161615" stroke-miterlimit="10" stroke-width="1"/><path d="M224.993,5825.434v.938c0,.064,0,.124-.007.182l2.06.9a3.62,3.62,0,0,0,.087-.805v-1.212h-2.14Z" fill="none" stroke="#161615" stroke-miterlimit="10" stroke-width="1"/><path d="M224.993,5823.871v1.149h2.14v-1.308a3.706,3.706,0,0,0-.092-.837l-2.051.886c0,.036,0,.072,0,.11" fill="none" stroke="#161615" stroke-miterlimit="10" stroke-width="1"/><path d="M223.634,5822.57a1.411,1.411,0,0,1,1.056.325,1.042,1.042,0,0,1,.23.419l1.99-.862a2.57,2.57,0,0,0-2.087-1.5l-1.227,1.62Z" fill="none" stroke="#161615" stroke-miterlimit="10" stroke-width="1"/><path d="M222.955,5822.57l1.3-1.692c-.2-.017-.4-.028-.621-.028h-1.958v1.72Z" fill="none" stroke="#161615" stroke-miterlimit="10" stroke-width="1"/><path d="M97.6,5801.832V5795.6h-7.1a25.873,25.873,0,0,0-2.64.134l4.683,6.1Z" fill="none" stroke="#161615" stroke-miterlimit="10" stroke-width="1"/><path d="M85.894,5804.374a3.164,3.164,0,0,1,.891-1.443,3.82,3.82,0,0,1,1.7-.838,10.005,10.005,0,0,1,1.755-.233l-4.419-5.814c-3.645.775-6.054,2.562-7.2,5.376l7.233,3.112c.014-.053.024-.11.04-.16" fill="none" stroke="#161615" stroke-miterlimit="10" stroke-width="1"/><path d="M85.632,5810.213V5806.5c0-.116.006-.221.008-.329l-7.474-3.27a13.433,13.433,0,0,0-.343,3.073v4.242h7.809Z" fill="none" stroke="#161615" stroke-miterlimit="10" stroke-width="1"/><path d="M85.632,5815.509v-3.795H77.823v4.791a13.254,13.254,0,0,0,.339,3.037l7.5-3.292c-.018-.238-.028-.481-.028-.741" fill="none" stroke="#161615" stroke-miterlimit="10" stroke-width="1"/><path d="M86.916,5819.23a2.971,2.971,0,0,1-.947-1.386l-7.353,3.179a7.99,7.99,0,0,0,2.275,3.129l.307.247.378.274.189.122.228.148.4.23.685.343.387.156.425.172a14.59,14.59,0,0,0,2.3.62l4.719-6.244a6.793,6.793,0,0,1-4-.99" fill="none" stroke="#161615" stroke-miterlimit="10" stroke-width="1"/><path d="M93.211,5820.225l-4.988,6.5c.726.06,1.479.1,2.282.1h7.1v-6.6Z" fill="none" stroke="#161615" stroke-miterlimit="10" stroke-width="1"/><path d="M99.6,5820.225v6.6h7.1a26.16,26.16,0,0,0,2.656-.134l-4.991-6.47Z" fill="none" stroke="#161615" stroke-miterlimit="10" stroke-width="1"/><path d="M118.615,5821l-7.336-3.143a3.207,3.207,0,0,1-.834,1.293,5.991,5.991,0,0,1-3.775,1.061l4.711,6.173q5.523-1.156,7.234-5.384" fill="none" stroke="#161615" stroke-miterlimit="10" stroke-width="1"/><path d="M111.624,5812.211v3.4c0,.23-.01.449-.024.658l7.463,3.254a13.079,13.079,0,0,0,.317-2.915v-4.393l0-.006Z" fill="none" stroke="#161615" stroke-miterlimit="10" stroke-width="1"/><path d="M111.624,5806.548v4.163h7.756v-4.739a13.356,13.356,0,0,0-.335-3.035l-7.433,3.212c.006.132.012.261.012.4" fill="none" stroke="#161615" stroke-miterlimit="10" stroke-width="1"/><path d="M106.7,5801.832q2.724,0,3.827,1.179a3.785,3.785,0,0,1,.836,1.515l7.212-3.122q-1.79-4.351-7.565-5.443l-4.447,5.871Z" fill="none" stroke="#161615" stroke-miterlimit="10" stroke-width="1"/><path d="M104.237,5801.832l4.711-6.135c-.717-.061-1.459-.1-2.25-.1H99.6v6.236Z" fill="none" stroke="#161615" stroke-miterlimit="10" stroke-width="1"/><rect width="81.923" height="133.727" rx="12" transform="translate(58.113 5763.73)" fill="none" stroke="#161615" stroke-miterlimit="10" stroke-width="1"/><rect width="69.419" height="116.843" rx="12" transform="translate(64.365 5770.794)" fill="none" stroke="#161615" stroke-miterlimit="10" stroke-width="1"/><rect width="43.83" height="2.518" transform="translate(77.779 5765.85)" fill="#fff" stroke="#161615" stroke-miterlimit="10" stroke-width="1"/><line y1="25.205" x2="60.817" transform="translate(140.036 5836.291)" fill="#fff" stroke="#161615" stroke-miterlimit="10" stroke-width="1"/><path d="M125.075,5847.575A10.574,10.574,0,1,1,114.5,5837" fill="none" stroke="#161615" stroke-miterlimit="10" stroke-width="1"/><path d="M114.305,5847.575l10.909-2.076a9.208,9.208,0,0,0-9.208-9.208l-1.5,11.284" fill="none" stroke="#161615" stroke-miterlimit="10" stroke-width="1"/><path d="M333.105,5624.27l-144.69,27.825L43.725,5624.27" fill="none" stroke="#161615" stroke-miterlimit="10" stroke-width="1"/></g></svg>