<?xml version="1.0" encoding="UTF-8"?>

<svg width="139px" height="235px" viewBox="0 0 139 235" version="1.1" xmlns="http://www.w3.org/2000/svg" xmlns:xlink="http://www.w3.org/1999/xlink">
    <!-- Generator: Sketch 52.2 (67145) - http://www.bohemiancoding.com/sketch -->
    <title>mob-methode-2.1</title>
    <desc>Created with Sketch.</desc>
    <defs>
        <path d="M48.86638,62 L3.45598,62 C3.78988,56.85794 5.12548,52.6508 7.66312,49.17824 C11.53636,43.90262 16.94554,41.56532 23.7571,39.09446 C29.03272,37.22462 34.17478,36.2897 38.18158,33.9524 C41.18668,32.21612 42.72262,29.81204 42.72262,26.80694 C42.72262,21.06386 36.91276,17.05706 27.0961,17.05706 C20.48488,17.05706 14.60824,19.19402 8.79838,23.73506 L6.19396,20.52962 C12.93874,15.45434 19.61674,12.98348 27.16288,12.98348 C39.58396,12.98348 47.53078,18.79334 47.53078,26.74016 C47.53078,33.55172 43.4572,37.22462 34.57546,39.9626 C29.23306,41.56532 24.15778,42.83414 19.61674,44.9711 C13.67332,47.77586 10.13398,51.71588 8.33092,57.79286 L48.86638,57.79286 L48.86638,62 Z" id="path-1"></path>
    </defs>
    <g id="Page-1" stroke="none" stroke-width="1" fill="none" fill-rule="evenodd">
        <g id="mob-methode-2.1">
            <circle id="Oval" stroke="#161615" cx="69.052" cy="140.919" r="68.552"></circle>
            <g id="Group" transform="translate(42.156000, 102.953000)">
                <g id="2">
                    <use fill="#000000" xlink:href="#path-1"></use>
                    <use fill="#161615" xlink:href="#path-1"></use>
                </g>
            </g>
            <path d="M69.052,0 L69.052,73.33" id="Path" stroke="#161615"></path>
            <path d="M69.052,209.471 L69.052,234.54" id="Path" stroke="#161615"></path>
        </g>
    </g>
</svg>