<svg xmlns="http://www.w3.org/2000/svg" width="281.009" height="388.637" viewBox="0 0 281.009 388.637"><g transform="translate(-49.714 -6168.106)"><path d="M68.84,6462.589s-14.409,0-14.409,13.553c0,0-.713,12.412,11.413,14.837h63.2s7.847-2.282,7.847-12.839c0,0,.428-7.847-9.844-10.558,0,0,1.569-9.558-8.417-14.837,0,0-7.276-4.279-14.694,0,0,0-7.419-11.555-19.4-8.7C84.533,6444.043,70.552,6445.327,68.84,6462.589Z" fill="#fff" stroke="#161615" stroke-miterlimit="10" stroke-width="1"/><path d="M91.855,6454.641s4.246-6.945,12.2-1.852" fill="none" stroke="#000" stroke-miterlimit="10" stroke-width="1"/><path d="M68.839,6462.735s4.246-6.945,12.205-1.852" fill="none" stroke="#000" stroke-miterlimit="10" stroke-width="1"/><path d="M61.722,6471.578s7.31-6.945,21.011-1.852" fill="none" stroke="#000" stroke-miterlimit="10" stroke-width="1"/><line y2="4.757" transform="translate(79.331 6374.898)" fill="#fff" stroke="#161615" stroke-miterlimit="10" stroke-width="1"/><line y1="3.279" x2="3.343" transform="translate(82.288 6377.535)" fill="#fff" stroke="#161615" stroke-miterlimit="10" stroke-width="1"/><line x2="4.757" transform="translate(83.445 6383.707)" fill="#fff" stroke="#161615" stroke-miterlimit="10" stroke-width="1"/><line x2="3.343" y2="3.372" transform="translate(82.288 6386.728)" fill="#fff" stroke="#161615" stroke-miterlimit="10" stroke-width="1"/><line y2="4.436" transform="translate(79.331 6388.014)" fill="#fff" stroke="#161615" stroke-miterlimit="10" stroke-width="1"/><line x1="3.279" y2="3.372" transform="translate(73.095 6386.728)" fill="#fff" stroke="#161615" stroke-miterlimit="10" stroke-width="1"/><line x1="4.5" transform="translate(70.588 6383.707)" fill="#fff" stroke="#161615" stroke-miterlimit="10" stroke-width="1"/><line x2="3.279" y2="3.536" transform="translate(73.095 6377.277)" fill="#fff" stroke="#161615" stroke-miterlimit="10" stroke-width="1"/><line y2="4.757" transform="translate(234.667 6190.854)" fill="#fff" stroke="#161615" stroke-miterlimit="10" stroke-width="1"/><line y1="3.279" x2="3.343" transform="translate(237.625 6193.49)" fill="#fff" stroke="#161615" stroke-miterlimit="10" stroke-width="1"/><line x2="4.757" transform="translate(238.782 6199.662)" fill="#fff" stroke="#161615" stroke-miterlimit="10" stroke-width="1"/><line x2="3.343" y2="3.372" transform="translate(237.625 6202.684)" fill="#fff" stroke="#161615" stroke-miterlimit="10" stroke-width="1"/><line y2="4.436" transform="translate(234.667 6203.97)" fill="#fff" stroke="#161615" stroke-miterlimit="10" stroke-width="1"/><line x1="3.279" y2="3.372" transform="translate(228.431 6202.684)" fill="#fff" stroke="#161615" stroke-miterlimit="10" stroke-width="1"/><line x1="4.5" transform="translate(225.924 6199.662)" fill="#fff" stroke="#161615" stroke-miterlimit="10" stroke-width="1"/><line x2="3.279" y2="3.536" transform="translate(228.431 6193.233)" fill="#fff" stroke="#161615" stroke-miterlimit="10" stroke-width="1"/><line y2="10.273" transform="translate(287.365 6392.748)" fill="#fff" stroke="#161615" stroke-miterlimit="10" stroke-width="1"/><line y1="7.08" x2="7.219" transform="translate(293.751 6398.44)" fill="#fff" stroke="#161615" stroke-miterlimit="10" stroke-width="1"/><line x2="10.273" transform="translate(296.25 6411.767)" fill="#fff" stroke="#161615" stroke-miterlimit="10" stroke-width="1"/><line x2="7.219" y2="7.281" transform="translate(293.751 6418.292)" fill="#fff" stroke="#161615" stroke-miterlimit="10" stroke-width="1"/><line y2="9.579" transform="translate(287.365 6421.069)" fill="#fff" stroke="#161615" stroke-miterlimit="10" stroke-width="1"/><line x1="7.08" y2="7.281" transform="translate(273.899 6418.292)" fill="#fff" stroke="#161615" stroke-miterlimit="10" stroke-width="1"/><line x1="9.718" transform="translate(268.485 6411.767)" fill="#fff" stroke="#161615" stroke-miterlimit="10" stroke-width="1"/><line x2="7.08" y2="7.635" transform="translate(273.899 6397.885)" fill="#fff" stroke="#161615" stroke-miterlimit="10" stroke-width="1"/><line y2="10.273" transform="translate(128.314 6168.106)" fill="#fff" stroke="#161615" stroke-miterlimit="10" stroke-width="1"/><line y1="7.08" x2="7.219" transform="translate(134.7 6173.798)" fill="#fff" stroke="#161615" stroke-miterlimit="10" stroke-width="1"/><line x2="10.273" transform="translate(137.199 6187.125)" fill="#fff" stroke="#161615" stroke-miterlimit="10" stroke-width="1"/><line x2="7.219" y2="7.281" transform="translate(134.7 6193.65)" fill="#fff" stroke="#161615" stroke-miterlimit="10" stroke-width="1"/><line y2="9.579" transform="translate(128.314 6196.427)" fill="#fff" stroke="#161615" stroke-miterlimit="10" stroke-width="1"/><line x1="7.08" y2="7.281" transform="translate(114.848 6193.65)" fill="#fff" stroke="#161615" stroke-miterlimit="10" stroke-width="1"/><line x1="9.718" transform="translate(109.433 6187.125)" fill="#fff" stroke="#161615" stroke-miterlimit="10" stroke-width="1"/><line x2="7.08" y2="7.635" transform="translate(114.848 6173.243)" fill="#fff" stroke="#161615" stroke-miterlimit="10" stroke-width="1"/><circle cx="21.019" cy="21.019" r="21.019" transform="translate(79.624 6227.902)" fill="none" stroke="#040405" stroke-miterlimit="10" stroke-width="1"/><circle cx="21.019" cy="21.019" r="21.019" transform="translate(166.529 6201.213)" fill="none" stroke="#040405" stroke-miterlimit="10" stroke-width="1"/><circle cx="25.328" cy="25.328" r="25.328" transform="translate(162.22 6286.008)" fill="none" stroke="#040405" stroke-miterlimit="10" stroke-width="1"/><path d="M59.6,6287.84s-6.081-6.335-9.376,2.28c0,0,4.815,30.5,1.774,46.543,0,0-6.588,33.026,44.852,22.889,0,0-4.814-6.081-7.855-9.375,0,0-18.5,4.307-24.58-3.548C64.42,6346.629,63.66,6304.818,59.6,6287.84Z" fill="none" stroke="#040405" stroke-miterlimit="10" stroke-width="1"/><path d="M63.291,6319.5c0-57.507,31.908-45.88,31.908-45.88s15.177,1.02,27,41.167l17.429.623,2.8,18.051-28.633.622s-8.4-1.556-9.959-8.4l-10.925-20.086S67.437,6324.376,89,6350.177" fill="none" stroke="#040405" stroke-miterlimit="10" stroke-width="1"/><path d="M139.455,6317.152s22.294,2.282,2.977,16.309" fill="none" stroke="#040405" stroke-miterlimit="10" stroke-width="1"/><line x2="4.066" y2="11.802" transform="translate(140.949 6306.326)" fill="none" stroke="#040405" stroke-miterlimit="10" stroke-width="1"/><line x2="1.587" y2="3.273" transform="translate(148.486 6327.946)" fill="none" stroke="#040405" stroke-miterlimit="10" stroke-width="1"/><path d="M92.758,6319.867s-17.638,30.141,41.3,47.109" fill="none" stroke="#040405" stroke-miterlimit="10" stroke-width="1"/><circle cx="21.019" cy="21.019" r="21.019" transform="translate(255.168 6226.887)" fill="none" stroke="#040405" stroke-miterlimit="10" stroke-width="1"/><path d="M317.225,6286.824s6.081-6.335,9.376,2.281c0,0-4.815,30.5-1.774,46.543,0,0,6.588,33.025-44.852,22.889,0,0,4.814-6.082,7.855-9.376,0,0,18.5,4.308,24.58-3.547C312.41,6345.614,313.17,6303.8,317.225,6286.824Z" fill="none" stroke="#040405" stroke-miterlimit="10" stroke-width="1"/><path d="M313.539,6318.485c0-57.507-31.908-45.88-31.908-45.88s-15.177,1.019-27,41.167l-17.428.622-2.8,18.051,28.632.623s8.4-1.556,9.96-8.4l10.925-20.087s25.478,18.782,3.915,44.583" fill="none" stroke="#040405" stroke-miterlimit="10" stroke-width="1"/><path d="M237.375,6316.137s-22.294,2.282-2.977,16.308" fill="none" stroke="#040405" stroke-miterlimit="10" stroke-width="1"/><path d="M284.072,6318.852s17.638,30.14-41.3,47.109" fill="none" stroke="#040405" stroke-miterlimit="10" stroke-width="1"/><path d="M121.662,6296.424s14.505-6.252,28.411-7.368c0,0-3.062-41.527,25.963-41.974,0,0,12.95,10.94,22.773,0,0,0,25.9-6.251,29.248,42.421,0,0,13.619,1.786,24.559,6.921" fill="none" stroke="#040405" stroke-miterlimit="10" stroke-width="1"/><path d="M135.665,6417.822s-6.14-51.171,13.615-50.846h79.014s17.835,11.435,11.507,50.846" fill="none" stroke="#040405" stroke-miterlimit="10" stroke-width="1"/><path d="M141.528,6417.822s-5.451-45.881,12.088-45.6h70.156s15.836,11.932,10.217,45.6" fill="none" stroke="#040405" stroke-miterlimit="10" stroke-width="1"/><path d="M144.882,6367.61s-.711-22.278,26.472-24.189h34.5s22.774,1.4,24.6,23.555" fill="none" stroke="#040405" stroke-miterlimit="10" stroke-width="1"/><circle cx="67.179" cy="67.179" r="67.179" transform="translate(120.89 6391.334)" fill="#fff" stroke="#161615" stroke-miterlimit="10" stroke-width="1"/><path d="M167.116,6476.984a30.945,30.945,0,0,1-30.944-30.945" fill="none" stroke="#000" stroke-miterlimit="10" stroke-width="1"/><path d="M192.341,6420.426l-17.055-7.927-14.925-14.868" fill="none" stroke="#000" stroke-miterlimit="10" stroke-width="1"/><path d="M150,6465.549a25.464,25.464,0,0,1-9.286-19.69" fill="none" stroke="#000" stroke-miterlimit="10" stroke-width="1"/><rect width="14.232" height="28.463" rx="2.401" transform="translate(167.705 6456.538) rotate(47.727)" fill="#fff" stroke="#000" stroke-miterlimit="10" stroke-width="1"/><path d="M164.014,6463.111a4.638,4.638,0,0,1,6.532.311" fill="#fff" stroke="#000" stroke-miterlimit="10" stroke-width="1"/><rect width="14.232" height="28.463" rx="2.401" transform="matrix(0.673, 0.74, -0.74, 0.673, 177.303, 6467.096)" fill="#fff" stroke="#000" stroke-miterlimit="10" stroke-width="1"/><rect width="14.232" height="28.463" rx="2.401" transform="matrix(0.673, 0.74, -0.74, 0.673, 186.966, 6477.725)" fill="#fff" stroke="#000" stroke-miterlimit="10" stroke-width="1"/><path d="M203.309,6438.893c-31.647,33.52-37.078,6.023-37.078,6.023l36.679-34.339,13.806-1.433,7.271-7.575" fill="#fff" stroke="#000" stroke-miterlimit="10" stroke-width="1"/><path d="M203.871,6498.492s10.329,1.442,8.681-10.215l-22.4-23.825" fill="#fff" stroke="#000" stroke-miterlimit="10" stroke-width="1"/><path d="M213.1,6489.027s11.669,2.259,10.6-9.966l-22.4-23.825" fill="none" stroke="#000" stroke-miterlimit="10" stroke-width="1"/><path d="M224.048,6479.516s11.53,1.922,9.849-9.608l-22.4-23.824" fill="none" stroke="#000" stroke-miterlimit="10" stroke-width="1"/><rect width="14.232" height="28.463" rx="2.401" transform="matrix(0.673, 0.74, -0.74, 0.673, 196.494, 6488.207)" fill="#fff" stroke="#000" stroke-miterlimit="10" stroke-width="1"/><path d="M173.96,6473.784a4.637,4.637,0,0,1,6.532.311" fill="#fff" stroke="#000" stroke-miterlimit="10" stroke-width="1"/><path d="M183.447,6484a4.637,4.637,0,0,1,6.532.311" fill="#fff" stroke="#000" stroke-miterlimit="10" stroke-width="1"/><path d="M238.609,6474.234a7.559,7.559,0,0,1,10.648.507" fill="#fff" stroke="#000" stroke-miterlimit="10" stroke-width="1"/><line x2="11.259" y2="11.142" transform="translate(124.913 6434.897)" fill="none" stroke="#161615" stroke-miterlimit="10" stroke-width="1"/><path d="M222.739,6511.407s-22.756,0-22.756,21.4c0,0-1.127,19.6,18.024,23.432h99.81s12.392-3.6,12.392-20.278c0,0,.676-12.392-15.546-16.672,0,0,2.478-15.1-13.293-23.432,0,0-11.491-6.759-23.207,0,0,0-11.715-18.25-30.641-13.744C247.522,6482.117,225.442,6484.145,222.739,6511.407Z" fill="#fff" stroke="#161615" stroke-miterlimit="10" stroke-width="1"/><path d="M259.085,6498.855s6.705-10.969,19.274-2.925" fill="none" stroke="#000" stroke-miterlimit="10" stroke-width="1"/><path d="M222.737,6511.638s6.705-10.969,19.274-2.925" fill="none" stroke="#000" stroke-miterlimit="10" stroke-width="1"/><path d="M211.5,6525.6s11.545-10.968,33.183-2.924" fill="none" stroke="#000" stroke-miterlimit="10" stroke-width="1"/></g></svg>