<svg xmlns="http://www.w3.org/2000/svg" width="291.702" height="427.771" viewBox="0 0 291.702 427.771"><g transform="translate(-42.486 -1612.529)"><path d="M52.3,1877.129a139.334,139.334,0,0,1-.856-15.44,137.733,137.733,0,0,1,84.1-126.873" fill="#fff" stroke="#040405" stroke-miterlimit="10" stroke-width="1"/><circle cx="141.3" cy="141.3" r="141.3" transform="translate(49.933 1722.241)" fill="#fff"/><circle cx="124.045" cy="124.045" r="124.045" transform="translate(64.37 1738.359)" fill="#fff" stroke="#040405" stroke-miterlimit="10" stroke-width="1"/><rect width="62.18" height="32.156" rx="8.667" transform="translate(222.491 1770.233)" fill="#fff" stroke="#161615" stroke-miterlimit="10" stroke-width="1"/><line x2="4.706" y2="13.333" transform="translate(242.856 1802.39)" fill="none" stroke="#161615" stroke-miterlimit="10" stroke-width="1"/><rect width="39.633" height="62.588" transform="translate(170.035 1884.586)" fill="none" stroke="#040405" stroke-miterlimit="10" stroke-width="1"/><path d="M194.538,1839.823a16.082,16.082,0,0,1,14.622,15.966v11.8a16.074,16.074,0,0,1-16.027,16.027H186.3a16.074,16.074,0,0,1-16.027-16.027v-11.8a16.082,16.082,0,0,1,14.612-15.965" fill="none" stroke="#040405" stroke-miterlimit="10" stroke-width="1"/><path d="M173.726,1852.606a15.427,15.427,0,0,1,11.968-9.851" fill="none" stroke="#040405" stroke-miterlimit="10" stroke-width="1"/><line x1="0.277" y1="4.803" transform="translate(194.553 1834.959)" fill="none" stroke="#040405" stroke-miterlimit="10" stroke-width="1"/><line x1="0.344" y2="4.384" transform="translate(184.534 1835.378)" fill="none" stroke="#040405" stroke-miterlimit="10" stroke-width="1"/><rect width="68.171" height="7.243" transform="translate(155.766 1877.343)" fill="#fff" stroke="#040405" stroke-miterlimit="10" stroke-width="1"/><rect width="27.336" height="10.027" rx="2.703" transform="translate(133.716 1867.317)" fill="#fff" stroke="#040405" stroke-miterlimit="10" stroke-width="1"/><rect width="4.933" height="4.26" transform="translate(124.916 1838.808)" fill="#fff" stroke="#040405" stroke-miterlimit="10" stroke-width="1"/><path d="M128.952,1887.427l-9.91,6.98c-7.666,0-8.054-6.272-8.054-13.938V1855.82a13.979,13.979,0,0,1,13.937-13.938h1.851a13.979,13.979,0,0,1,13.938,13.938v24.649C141.674,1888.188,136.617,1887.427,128.952,1887.427Z" fill="#fff" stroke="#040405" stroke-miterlimit="10" stroke-width="1"/><path d="M9.063,0h7.749a0,0,0,0,1,0,0V49.008a0,0,0,0,1,0,0H0a0,0,0,0,1,0,0V9.063A9.063,9.063,0,0,1,9.063,0Z" transform="translate(97.37 1857.204)" fill="#fff" stroke="#040405" stroke-miterlimit="10" stroke-width="1"/><path d="M0,0H43.344a0,0,0,0,1,0,0V12.675a0,0,0,0,1,0,0H4.4A4.4,4.4,0,0,1,0,8.278V0A0,0,0,0,1,0,0Z" transform="translate(97.37 1898.88)" fill="#fff" stroke="#040405" stroke-miterlimit="10" stroke-width="1"/><path d="M139.851,1885.746s15.407-1.433,15.061,17.26l-1.387,35.7H140.714v-27.155" fill="none" stroke="#040405" stroke-miterlimit="10" stroke-width="1"/><path d="M152.8,1938.71s11.579.381,13.156,8.464H140.714v-8.464" fill="none" stroke="#040405" stroke-miterlimit="10" stroke-width="1"/><line y2="23.262" transform="translate(117.776 1911.555)" fill="none" stroke="#040405" stroke-miterlimit="10" stroke-width="1"/><rect width="31.504" height="5.393" rx="1.454" transform="translate(101.882 1934.816)" fill="none" stroke="#040405" stroke-miterlimit="10" stroke-width="1"/><circle cx="3.406" cy="3.406" r="3.406" transform="translate(104.972 1940.209)" fill="none" stroke="#040405" stroke-miterlimit="10" stroke-width="1"/><circle cx="3.406" cy="3.406" r="3.406" transform="translate(123.804 1940.457)" fill="none" stroke="#040405" stroke-miterlimit="10" stroke-width="1"/><rect width="62.18" height="32.156" rx="8.667" transform="translate(94.761 1765.654)" fill="#fff" stroke="#161615" stroke-miterlimit="10" stroke-width="1"/><line x1="3.921" y2="12.157" transform="translate(132.715 1797.81)" fill="none" stroke="#161615" stroke-miterlimit="10" stroke-width="1"/><line x2="42.755" transform="translate(104.437 1779.522)" fill="#fff" stroke="#161615" stroke-miterlimit="10" stroke-width="1"/><line x2="42.755" transform="translate(104.509 1774.525)" fill="#fff" stroke="#161615" stroke-miterlimit="10" stroke-width="1"/><line x2="42.755" transform="translate(104.509 1784.228)" fill="#fff" stroke="#161615" stroke-miterlimit="10" stroke-width="1"/><line x2="42.755" transform="translate(104.509 1788.94)" fill="#fff" stroke="#161615" stroke-miterlimit="10" stroke-width="1"/><line x2="42.755" transform="translate(232.167 1784.104)" fill="#fff" stroke="#161615" stroke-miterlimit="10" stroke-width="1"/><line x2="42.755" transform="translate(232.239 1779.107)" fill="#fff" stroke="#161615" stroke-miterlimit="10" stroke-width="1"/><line x2="42.755" transform="translate(232.239 1788.821)" fill="#fff" stroke="#161615" stroke-miterlimit="10" stroke-width="1"/><path d="M100.3,1870.813a15.424,15.424,0,0,1,11.967-9.851" fill="none" stroke="#040405" stroke-miterlimit="10" stroke-width="1"/><line x2="42.755" transform="translate(232.239 1793.533)" fill="#fff" stroke="#161615" stroke-miterlimit="10" stroke-width="1"/><path d="M161.052,1870.979s6.937,2.287,5.85,6.149" fill="none" stroke="#040405" stroke-miterlimit="10" stroke-width="1"/><path d="M0,0H16.812a0,0,0,0,1,0,0V49.008a0,0,0,0,1,0,0H9.063A9.063,9.063,0,0,1,0,39.945V0A0,0,0,0,1,0,0Z" transform="translate(282.062 1906.36) rotate(-180)" fill="#fff" stroke="#040405" stroke-miterlimit="10" stroke-width="1"/><path d="M4.4,0H43.344a0,0,0,0,1,0,0V12.675a0,0,0,0,1,0,0H0a0,0,0,0,1,0,0V4.4A4.4,4.4,0,0,1,4.4,0Z" transform="translate(282.062 1911.702) rotate(-180)" fill="#fff" stroke="#040405" stroke-miterlimit="10" stroke-width="1"/><path d="M241.694,1877.343l-2.113,8.55s-15.407-1.433-15.061,17.261l1.387,35.7h12.81V1911.7" fill="none" stroke="#040405" stroke-miterlimit="10" stroke-width="1"/><path d="M226.635,1938.858s-11.578.381-13.156,8.464h25.238v-8.464" fill="none" stroke="#040405" stroke-miterlimit="10" stroke-width="1"/><line y2="23.262" transform="translate(261.656 1911.702)" fill="none" stroke="#040405" stroke-miterlimit="10" stroke-width="1"/><rect width="31.504" height="5.393" rx="1.454" transform="translate(277.549 1940.356) rotate(-180)" fill="none" stroke="#040405" stroke-miterlimit="10" stroke-width="1"/><circle cx="3.406" cy="3.406" r="3.406" transform="translate(267.648 1940.356)" fill="none" stroke="#040405" stroke-miterlimit="10" stroke-width="1"/><circle cx="3.406" cy="3.406" r="3.406" transform="translate(248.816 1940.604)" fill="none" stroke="#040405" stroke-miterlimit="10" stroke-width="1"/><line y1="18.967" transform="translate(179.267 1858.162)" fill="none" stroke="#040405" stroke-miterlimit="10" stroke-width="1"/><line y2="18.967" transform="translate(200.165 1858.162)" fill="none" stroke="#040405" stroke-miterlimit="10" stroke-width="1"/><rect width="29.313" height="29.313" transform="translate(175.06 1889.107)" fill="#fff" stroke="#161615" stroke-miterlimit="10" stroke-width="1"/><path d="M182.36,1943.09h-7.3v-8.935" fill="#fff" stroke="#161615" stroke-miterlimit="10" stroke-width="1"/><rect width="4.216" height="10.338" transform="translate(180.251 1905.217)" fill="none" stroke="#161615" stroke-miterlimit="10" stroke-width="1"/><rect width="4.216" height="14.577" transform="translate(187.017 1900.977)" fill="none" stroke="#161615" stroke-miterlimit="10" stroke-width="1"/><rect width="4.216" height="18.509" transform="translate(193.806 1897.046)" fill="none" stroke="#161615" stroke-miterlimit="10" stroke-width="1"/><path d="M174.53,1778.665" fill="none" stroke="#000" stroke-miterlimit="10" stroke-width="1"/><path d="M189.137,1790.915H180.31s-8.357-.737-5.78-12.25c0,0-12.967-32.939,14.607-32.492" fill="none" stroke="#000" stroke-miterlimit="10" stroke-width="1"/><path d="M174.958,1764.863c-.089-7.339,2.772-14.986,15.162-14.785" fill="none" stroke="#000" stroke-miterlimit="10" stroke-width="1"/><rect width="7.301" height="17.908" rx="1.968" transform="translate(185.465 1778.665)" fill="#fff" stroke="#000" stroke-miterlimit="10" stroke-width="1"/><circle cx="4.165" cy="4.165" r="4.165" transform="translate(184.984 1798.612)" fill="#fff" stroke="#000" stroke-miterlimit="10" stroke-width="1"/><path d="M189.137,1790.915h8.826s8.357-.737,5.78-12.25c0,0,12.967-32.939-14.606-32.492" fill="none" stroke="#000" stroke-miterlimit="10" stroke-width="1"/><rect width="17.359" height="11.849" transform="translate(180.31 1790.915)" fill="#fff" stroke="#000" stroke-miterlimit="10" stroke-width="1"/><path d="M178.549,1783.009s.575,4.529,4.4,3.891" fill="none" stroke="#000" stroke-miterlimit="10" stroke-width="1"/><path d="M200.435,1782.814s-.574,4.529-4.4,3.891" fill="none" stroke="#000" stroke-miterlimit="10" stroke-width="1"/><path d="M185.465,1769.249s-1.011,9.416,3.651,9.416" fill="none" stroke="#000" stroke-miterlimit="10" stroke-width="1"/><path d="M192.766,1769.249s1.011,9.416-3.65,9.416" fill="none" stroke="#000" stroke-miterlimit="10" stroke-width="1"/><line x2="6.802" transform="translate(185.715 1774.921)" fill="none" stroke="#000" stroke-miterlimit="10" stroke-width="1"/><line x2="8.68" transform="translate(180.31 1794.146)" fill="#fff" stroke="#000" stroke-miterlimit="10" stroke-width="1"/><line x2="8.68" transform="translate(180.31 1796.273)" fill="#fff" stroke="#000" stroke-miterlimit="10" stroke-width="1"/><line x2="6.462" transform="translate(180.644 1798.612)" fill="#fff" stroke="#000" stroke-miterlimit="10" stroke-width="1"/><path d="M165.434,1882.216h-5.9v-2.879" fill="#fff" stroke="#161615" stroke-miterlimit="10" stroke-width="1"/><path d="M136.938,1827.947s3.042,3.707,0,3.694" fill="#fff" stroke="#040405" stroke-miterlimit="10" stroke-width="1"/><line y2="5.819" transform="translate(215.986 1804.916)" fill="#fff" stroke="#161615" stroke-miterlimit="10" stroke-width="1"/><line y1="4.01" x2="4.089" transform="translate(219.603 1808.14)" fill="#fff" stroke="#161615" stroke-miterlimit="10" stroke-width="1"/><line x2="5.819" transform="translate(221.019 1815.689)" fill="#fff" stroke="#161615" stroke-miterlimit="10" stroke-width="1"/><line x2="4.089" y2="4.124" transform="translate(219.603 1819.385)" fill="#fff" stroke="#161615" stroke-miterlimit="10" stroke-width="1"/><line y2="5.426" transform="translate(215.986 1820.958)" fill="#fff" stroke="#161615" stroke-miterlimit="10" stroke-width="1"/><line x1="4.01" y2="4.124" transform="translate(208.358 1819.385)" fill="#fff" stroke="#161615" stroke-miterlimit="10" stroke-width="1"/><line x1="5.505" transform="translate(205.291 1815.689)" fill="#fff" stroke="#161615" stroke-miterlimit="10" stroke-width="1"/><line x2="4.01" y2="4.325" transform="translate(208.358 1807.825)" fill="#fff" stroke="#161615" stroke-miterlimit="10" stroke-width="1"/><path d="M87.307,1735.161l-4.917,5.344s-1.918-4.356-6.689-.8c0,0-3.511,3.372,2,5.9l-5.013,5.449,7,6.443s.68-5.848,5.075-3.448c0,0,3.853,3.633-2.9,5.45l6.674,6.141,6.429-6.987s-8.241-.063-4.174-5.613c0,0,4.085-4.786,6.334,3.265l6.035-6.559-6.186-5.691s4.207-1.867,1.4-4.8c0,0-2.907-2.722-4.747,2.313Z" fill="#fff" stroke="#161615" stroke-miterlimit="10" stroke-width="1"/><path d="M82.381,1702.817l-.976,7.2s-4.064-2.476-5.941,3.173c0,0-.951,4.775,5.01,3.7l-1,7.337,9.429,1.278s-2.788-5.185,2.19-5.732c0,0,5.239.777.74,6.129l8.987,1.219,1.276-9.409s-6.795,4.664-6.635-2.215c0,0,.613-6.263,7.064-.947l1.2-8.831-8.329-1.129s2.382-3.938-1.6-4.735c0,0-3.942-.569-2.571,4.613Z" fill="#fff" stroke="#161615" stroke-miterlimit="10" stroke-width="1"/><path d="M114.214,1722.288l-.976,7.2s-4.064-2.476-5.941,3.173c0,0-.951,4.775,5.01,3.7l-1,7.337,9.429,1.278s-2.788-5.185,2.19-5.732c0,0,5.239.777.74,6.129l8.987,1.219,1.276-9.409s-6.8,4.664-6.635-2.215c0,0,.613-6.263,7.064-.947l1.2-8.831-8.329-1.129s2.382-3.938-1.6-4.735c0,0-3.942-.569-2.571,4.614Z" fill="#fff" stroke="#161615" stroke-miterlimit="10" stroke-width="1"/><path d="M109.321,1669.609l5.9,4.235s-4.092,2.43.018,6.735c0,0,3.772,3.078,5.613-2.693l6.015,4.318,5.549-7.73s-5.888.032-4.037-4.621c0,0,3.141-4.264,5.761,2.219l5.289-7.367-7.713-5.537s.934,8.188-5.067,4.822c0,0-5.245-3.477,2.474-6.683l-7.239-5.2-4.9,6.828s-2.361-3.95-4.932-.807c0,0-2.35,3.215,2.87,4.433Z" fill="#fff" stroke="#161615" stroke-miterlimit="10" stroke-width="1"/><path d="M48.209,1739.439l7.244-.5s-1.6,4.482,4.312,5.175c0,0,4.868-.037,2.6-5.655l7.386-.514-.659-9.492s-4.513,3.782-6.057-.982c0,0-.3-5.288,5.852-1.967l-.629-9.048-9.472.658s5.944,5.709-.824,6.946c0,0-6.257.669-2.359-6.725l-8.891.618.583,8.385s-4.338-1.535-4.312,2.526c0,0,.242,3.975,5.039,1.582Z" fill="#fff" stroke="#161615" stroke-miterlimit="10" stroke-width="1"/><path d="M285.5,1912.264l5.275,4.99s-4.381,1.858-.888,6.677c0,0,3.323,3.558,5.924-1.913l5.379,5.088,6.539-6.913s-5.838-.76-3.378-5.122c0,0,3.686-3.8,5.41,2.975l6.232-6.589-6.9-6.525s-.176,8.239-5.669,4.1c0,0-4.729-4.151,3.351-6.289l-6.474-6.124-5.776,6.106s-1.808-4.232-4.778-1.463c0,0-2.762,2.87,2.247,4.779Z" fill="#fff" stroke="#161615" stroke-miterlimit="10" stroke-width="1"/><path d="M312.851,1955.586l6.965-2.053s-.6,4.721,5.326,4.122c0,0,4.746-1.085,1.323-6.083l7.1-2.094-2.691-9.127s-3.591,4.666-6.126.347c0,0-1.435-5.1,5.29-3.182l-2.565-8.7-9.107,2.686s7.035,4.292.692,6.96c0,0-5.965,2-3.753-6.058l-8.548,2.52,2.377,8.062s-4.568-.563-3.666,3.4c0,0,1.093,3.83,5.261.458Z" fill="#fff" stroke="#161615" stroke-miterlimit="10" stroke-width="1"/><path d="M270.085,1975.957l6.99,1.968s-3.017,3.681,2.315,6.325c0,0,4.6,1.607,4.357-4.446l7.127,2.007,2.579-9.16s-5.523,2.04-5.371-2.966c0,0,1.5-5.08,6.173.121l2.458-8.73-9.14-2.574s3.672,7.378-3.118,6.262c0,0-6.115-1.479.047-7.127l-8.579-2.415-2.278,8.09s-3.567-2.907-4.911.925c0,0-1.112,3.824,4.211,3.188Z" fill="#fff" stroke="#161615" stroke-miterlimit="10" stroke-width="1"/><path d="M293.573,1717.947l-5.111-8.694s6.563-.786,3.764-8.564c0,0-3.059-6.031-8.642.264l-5.211-8.866-11.393,6.7s7.495,3.269,2.529,8.138c0,0-6.387,3.649-6.069-6.058l-10.859,6.383,6.682,11.369s3.418-10.924,9.146-3.275c0,0,4.705,7.364-6.9,7.1l6.272,10.671,10.063-5.915s.778,6.344,5.81,3.8c0,0,4.793-2.761-1.152-7.243Z" fill="#fff" stroke="#161615" stroke-miterlimit="10" stroke-width="1"/><path d="M184.226,1839.762s5.2,7.542,10.94,0" fill="none" stroke="#040405" stroke-miterlimit="10" stroke-width="1"/><rect width="19.111" height="25.076" rx="5.151" transform="translate(117.827 1814.686)" fill="#fff" stroke="#040405" stroke-miterlimit="10" stroke-width="1"/><path d="M133.716,1815.689s1.977,7.215-3.867,8.95c0,0-4.322,6.246-3.361,11.758l-11.9.676S110.6,1807.074,133.716,1815.689Z" fill="#fff" stroke="#040405" stroke-miterlimit="10" stroke-width="1"/><path d="M119.847,1821.672s-5.134,5.367-2.325,15.439" fill="#fff" stroke="#040405" stroke-miterlimit="10" stroke-width="1"/><path d="M123.642,1821.15s-5.134,5.367-2.325,15.439" fill="#fff" stroke="#040405" stroke-miterlimit="10" stroke-width="1"/><path d="M256.983,1841.9s25.852-4.17-5.369,35.445l-14.166-.094" fill="#fff" stroke="#040405" stroke-miterlimit="10" stroke-width="1"/><path d="M232.822,1869.951l12.387-.342s12.233-13.995,12.44-16.778" fill="#fff" stroke="#040405" stroke-miterlimit="10" stroke-width="1"/><path d="M247.2,1849.684s-2,10.225-4.254,20.024" fill="#fff" stroke="#040405" stroke-miterlimit="10" stroke-width="1"/><line x1="25.886" y1="13.134" transform="translate(239.581 1885.893)" fill="none" stroke="#040405" stroke-miterlimit="10" stroke-width="1"/><path d="M223.672,1871.66v-3.731l15.976.363v-1.045c.326-32.629,10.842-25.363,10.842-25.363" fill="#fff" stroke="#040405" stroke-miterlimit="10" stroke-width="1"/><path d="M218.157,1873.568a4.059,4.059,0,0,0-1.393,3.681" fill="#fff" stroke="#040405" stroke-miterlimit="10" stroke-width="1"/><line x2="2.473" transform="translate(241.694 1843.256)" fill="#fff" stroke="#040405" stroke-miterlimit="10" stroke-width="1"/><line y1="0.158" x2="1.833" transform="translate(263.634 1842.568)" fill="#fff" stroke="#040405" stroke-miterlimit="10" stroke-width="1"/><circle cx="5.612" cy="5.612" r="5.612" transform="translate(182.803 1613.03)" fill="#fff" stroke="#161615" stroke-miterlimit="10" stroke-width="1"/><line y2="110.453" transform="translate(188.415 1624.769)" fill="none" stroke="#161615" stroke-miterlimit="10" stroke-width="1"/><line y2="54.768" transform="translate(188.415 1985.532)" fill="none" stroke="#161615" stroke-miterlimit="10" stroke-width="1"/><circle cx="4.041" cy="4.041" r="4.041" transform="translate(184.374 1734.761)" fill="#fff" stroke="#161615" stroke-miterlimit="10" stroke-width="1"/><line x2="8.537" transform="translate(178.953 1858.162)" fill="#fff" stroke="#000" stroke-miterlimit="10" stroke-width="1"/><line x2="6.288" transform="translate(179.411 1860.975)" fill="#fff" stroke="#000" stroke-miterlimit="10" stroke-width="1"/><line x2="4.92" transform="translate(179.411 1863.541)" fill="#fff" stroke="#000" stroke-miterlimit="10" stroke-width="1"/><line x2="3.4" transform="translate(179.411 1865.887)" fill="#fff" stroke="#000" stroke-miterlimit="10" stroke-width="1"/><line x2="2.488" transform="translate(179.411 1868.292)" fill="#fff" stroke="#000" stroke-miterlimit="10" stroke-width="1"/><line x2="10.391" transform="translate(111.213 1852.139)" fill="#fff" stroke="#000" stroke-miterlimit="10" stroke-width="1"/><line x2="7.582" transform="translate(111.213 1854.952)" fill="#fff" stroke="#000" stroke-miterlimit="10" stroke-width="1"/><line x2="7.582" transform="translate(112.264 1849.501)" fill="#fff" stroke="#000" stroke-miterlimit="10" stroke-width="1"/><line x2="5.057" transform="translate(113.985 1846.681)" fill="#fff" stroke="#000" stroke-miterlimit="10" stroke-width="1"/><line x2="2.933" transform="translate(114.589 1857.519)" fill="#fff" stroke="#000" stroke-miterlimit="10" stroke-width="1"/><line x2="1.1" transform="translate(114.589 1859.865)" fill="#fff" stroke="#000" stroke-miterlimit="10" stroke-width="1"/><path d="M171.769,1877.147s2.773-6.629,7.354,0" fill="#fff" stroke="#040405" stroke-miterlimit="10" stroke-width="1"/><path d="M200.165,1877.147s2.773-6.629,7.354,0" fill="#fff" stroke="#040405" stroke-miterlimit="10" stroke-width="1"/><path d="M193.5,1812.015l.013-.011h0v0h-.041l-.114.03Z" fill="#161615"/><path d="M188.779,1811.731l-.1.022.2-.007Z" fill="#161615"/><path d="M198.132,1821.855a1.192,1.192,0,0,1,.412.141,1.235,1.235,0,0,1,.264.217v-6.983a3.8,3.8,0,0,0-.032-.492c-.223.03-.447.058-.673.069a3.121,3.121,0,0,1,.029.423Z" fill="#161615"/><path d="M180.865,1822.023h.009v-6.792a3.186,3.186,0,0,1,3.182-3.182h.992a5.091,5.091,0,0,1,.037-.65.259.259,0,0,1,0-.027h-1.034a3.863,3.863,0,0,0-3.858,3.859v7.023A1.259,1.259,0,0,1,180.865,1822.023Z" fill="#161615"/><path d="M181.088,1827.637a.989.989,0,0,1,.1-.466,1.666,1.666,0,0,1-.673-1.22v-.007l-.439-2.639a1.039,1.039,0,0,1,.263-.834,1.393,1.393,0,0,1,1.038-.464h.714c0-.175,0-.35,0-.524a1.079,1.079,0,0,1,.01-.152h-.721a2.077,2.077,0,0,0-1.547.695,1.716,1.716,0,0,0-.424,1.374l0,.011.439,2.641a2.22,2.22,0,0,0,1.284,1.843A1.286,1.286,0,0,1,181.088,1827.637Z" fill="#161615"/><path d="M199.18,1822.026a2.079,2.079,0,0,0-1.547-.695h-.59a1.213,1.213,0,0,1-.068.676h.658a1.4,1.4,0,0,1,1.038.464,1.043,1.043,0,0,1,.263.834l-.439,2.639v.007a1.477,1.477,0,0,1-1,1.361,1.119,1.119,0,0,1,.241.635,2.174,2.174,0,0,0,1.43-1.9l.44-2.641,0-.011A1.72,1.72,0,0,0,199.18,1822.026Z" fill="#161615"/><path d="M196.233,1829.665c.059-.073.118-.146.175-.219a.527.527,0,0,1-.013-.054Q196.308,1829.525,196.233,1829.665Z" fill="#161615"/><path d="M196.408,1829.446a.527.527,0,0,1-.013-.054q-.087.133-.162.273C196.292,1829.592,196.351,1829.519,196.408,1829.446Z" fill="#161615"/><path d="M197.183,1827.7a.188.188,0,0,1,.041,0c.01-.051.018-.1.027-.152C197.228,1827.6,197.205,1827.648,197.183,1827.7Z" fill="#161615"/><path d="M185.426,1815.6h8.154a3.133,3.133,0,0,1,3.13,3.129v7.882a9.342,9.342,0,0,1-.2,1.908c.049-.163.107-.323.167-.482.192-.506.422-.995.649-1.486a.145.145,0,0,1,.06-.068v-7.754a3.811,3.811,0,0,0-3.806-3.806h-8.154a3.81,3.81,0,0,0-3.806,3.806v7.882c0,.242.01.483.028.725a2.8,2.8,0,0,1,.621,1.134c.063.077.123.157.182.237.043.052.085.1.124.159a9.365,9.365,0,0,1-.279-2.255v-7.882A3.133,3.133,0,0,1,185.426,1815.6Z" fill="#161615"/><path d="M185.637,1824.386a.708.708,0,0,0-.706.7h0a.706.706,0,1,0,1.412,0h0A.708.708,0,0,0,185.637,1824.386Z" fill="#161615"/><path d="M193.369,1824.386h0a.707.707,0,0,0-.706.7h0a.707.707,0,0,0,.706.706h0a.708.708,0,0,0,.706-.706h0A.708.708,0,0,0,193.369,1824.386Z" fill="#161615"/><path d="M186.742,1822.457h-2.571a.292.292,0,1,0,0,.584h2.571a.292.292,0,1,0,0-.584Z" fill="#161615"/><path d="M194.835,1822.457h-2.572a.292.292,0,1,0,0,.584h2.572a.292.292,0,0,0,0-.584Z" fill="#161615"/><path d="M193.911,1810.268H184.92a.338.338,0,0,0-.337.312,5.79,5.79,0,0,0,1.175,3.94,3.525,3.525,0,0,0,2.705,1.083h4.042a4.637,4.637,0,0,1,3.051,1.152,3.017,3.017,0,0,1,1.154,1.977.338.338,0,0,0,.676,0c0-1.532-2.05-3.806-4.881-3.806h-4.042a2.873,2.873,0,0,1-2.207-.864,4.867,4.867,0,0,1-1.006-3.118h8.661a4.456,4.456,0,0,1,3.007,1.349,4.062,4.062,0,0,1,1.214,2.937v3.536a.338.338,0,1,0,.676,0v-3.534a4.723,4.723,0,0,0-1.411-3.416A5.15,5.15,0,0,0,193.911,1810.268Z" fill="#161615"/><path d="M197.863,1826.939c-.233-2.495-.454-2.749-.56-2.871a.338.338,0,0,0-.593.222v2.681c0,1.6-1.325,3.159-3.4,4.049a2.654,2.654,0,0,0-2.471-1.668h-2.664a2.653,2.653,0,0,0-2.471,1.668c-2.079-.89-3.4-2.452-3.4-4.049v-2.681a.338.338,0,0,0-.593-.222c-.106.122-.328.376-.56,2.871-.111,1.186-.172,2.329-.172,2.34v.018a7.561,7.561,0,0,0,2.466,5.429,8.581,8.581,0,0,0,5.9,2.347h.323a8.581,8.581,0,0,0,5.906-2.347,7.561,7.561,0,0,0,2.466-5.429v-.018C198.034,1829.268,197.974,1828.125,197.863,1826.939Zm-2.757,7.3a7.91,7.91,0,0,1-5.442,2.163h-.323a7.907,7.907,0,0,1-5.441-2.163,6.888,6.888,0,0,1-2.254-4.928c.005-.078.037-.667.094-1.41a6.239,6.239,0,0,0,4.05,3.889.339.339,0,0,0,.449-.236,1.981,1.981,0,0,1,1.932-1.521h2.664a1.981,1.981,0,0,1,1.932,1.521.337.337,0,0,0,.448.236,6.239,6.239,0,0,0,4.05-3.889c.058.743.09,1.332.094,1.41A6.883,6.883,0,0,1,195.106,1834.234Z" fill="#161615"/><path d="M191.5,1830.864a15.56,15.56,0,0,1-1.8.1h-.19a15.322,15.322,0,0,1-2.005-.127.338.338,0,1,0-.089.67,16,16,0,0,0,2.094.133h.19a16.244,16.244,0,0,0,1.875-.1.338.338,0,0,0-.078-.672Z" fill="#161615"/><path d="M190.189,1831.945c-.166.005-.335.008-.5.008h-.19c-.226,0-.453-.005-.675-.014a.338.338,0,0,0-.028.676c.232.009.468.014.7.014h.19c.176,0,.352,0,.525-.008a.338.338,0,0,0-.021-.676Z" fill="#161615"/><path d="M188.522,1829.9a1.114,1.114,0,0,1,.447-.1H190.1a1.1,1.1,0,0,1,.4.076,1.39,1.39,0,0,0,.395-.971v-5.189a.338.338,0,1,0-.676,0v5.189a.721.721,0,0,1-1.442,0,.338.338,0,1,0-.676,0A1.39,1.39,0,0,0,188.522,1829.9Z" fill="#161615"/><path d="M170.272,1877.343" fill="#fff" stroke="#000" stroke-miterlimit="10" stroke-width="1"/><path d="M135.382,1824.9a.708.708,0,0,0-.706.706h0a.706.706,0,1,0,1.412,0h0A.708.708,0,0,0,135.382,1824.9Z" fill="#161615"/><path d="M136.667,1823.092H134.1a.292.292,0,0,0,0,.584h2.571a.292.292,0,0,0,0-.584Z" fill="#161615"/><path d="M131.313,1833.007a3.664,3.664,0,0,0,4.069,2.371" fill="none" stroke="#161615" stroke-miterlimit="10" stroke-width="1"/><path d="M256.61,1838.305v3.279h-5.791V1838.3a1.186,1.186,0,0,1-.722-.435v4.083a.361.361,0,0,0,.361.361h6.513a.361.361,0,0,0,.361-.361V1838.1A1.219,1.219,0,0,1,256.61,1838.305Z" fill="#161615"/><path d="M260.371,1826.675a.36.36,0,0,0-.361.361v4.7a6.6,6.6,0,1,1-13.181,0v-6.8a.361.361,0,0,0-.722,0v6.8a7.319,7.319,0,1,0,14.624,0v-4.7A.36.36,0,0,0,260.371,1826.675Z" fill="#161615"/><path d="M261.229,1826.59a7.874,7.874,0,0,1-5.886-1.495,8.587,8.587,0,0,1-2.974-4.054.361.361,0,0,0-.681.241,9.312,9.312,0,0,0,3.225,4.393,8.625,8.625,0,0,0,5.173,1.721,8.734,8.734,0,0,0,1.248-.092.361.361,0,1,0-.105-.714Z" fill="#161615"/><path d="M252.975,1818.851a.36.36,0,0,0-.436.265,7.3,7.3,0,0,1-2.466,3.926,6.691,6.691,0,0,1-4.187,1.5h-.012a.36.36,0,0,0,0,.721h.012a7.411,7.411,0,0,0,4.641-1.663,8.013,8.013,0,0,0,2.713-4.316A.36.36,0,0,0,252.975,1818.851Z" fill="#161615"/><path d="M252.992,1829.1a.328.328,0,0,0-.624-.2l-1.214,3.71a1.376,1.376,0,0,0,.167,1.2.832.832,0,0,0,.679.37h.68a.328.328,0,0,0,0-.656H252a.209.209,0,0,1-.148-.1.71.71,0,0,1-.075-.612Z" fill="#161615"/><path d="M254.78,1835.377a3.045,3.045,0,0,1-1.416.327,3.243,3.243,0,0,1-1.1-.186.361.361,0,0,0-.248.678,3.967,3.967,0,0,0,1.347.229,3.725,3.725,0,0,0,1.757-.412.361.361,0,0,0-.341-.636Z" fill="#161615"/><path d="M249.4,1827.326a2.209,2.209,0,1,0,2.209,2.209A2.212,2.212,0,0,0,249.4,1827.326Zm0,3.7a1.487,1.487,0,1,1,1.488-1.488A1.489,1.489,0,0,1,249.4,1831.023Z" fill="#161615"/><path d="M256.162,1827.326a2.209,2.209,0,1,0,2.209,2.209A2.212,2.212,0,0,0,256.162,1827.326Zm0,3.7a1.487,1.487,0,1,1,1.487-1.488A1.49,1.49,0,0,1,256.162,1831.023Z" fill="#161615"/><path d="M260.408,1829.174h-2.4a.361.361,0,1,0,0,.722h2.4a.361.361,0,1,0,0-.722Z" fill="#161615"/><path d="M254.308,1828.595h-3.127a.361.361,0,0,0,0,.722h3.127a.361.361,0,0,0,0-.722Z" fill="#161615"/><circle cx="0.69" cy="0.69" r="0.69" transform="translate(248.507 1828.728)" fill="#161615"/><circle cx="0.69" cy="0.69" r="0.69" transform="translate(255.214 1828.728)" fill="#161615"/><path d="M264.746,1842.635a1.144,1.144,0,0,1,.38-.067,1.187,1.187,0,0,1,.341.05v-17.209a11.887,11.887,0,0,0-23.773,0v17.939a1.111,1.111,0,0,1,.722-.069v-17.87a11.165,11.165,0,0,1,22.33,0Z" fill="#161615"/><path d="M226.392,1872.914a.97.97,0,0,1,.034-.3l-.407-.055-.692-.807a2.175,2.175,0,0,0-1.655-.761H220.4a.332.332,0,0,0-.188.058l-.741.5a.32.32,0,0,0-.075.072,1.446,1.446,0,0,1,.235-.03.927.927,0,0,1,.278.034,1.1,1.1,0,0,1,.455-.1,1.087,1.087,0,0,1,.53.136h2.775a1.508,1.508,0,0,1,1.146.527l.776.905a.336.336,0,0,0,.21.114l.667.089A1.221,1.221,0,0,1,226.392,1872.914Z" fill="#040405"/><path d="M228.244,1876.914h-7.533a1.245,1.245,0,0,1-.852.4.994.994,0,0,1-.659-.215l0,.146a.335.335,0,0,0,.335.343h8.713a.335.335,0,0,0,0-.67Z" fill="#040405"/><path d="M222.166,1870.99h-3.035a1.076,1.076,0,0,0,0,2.151h1.3a.335.335,0,0,0,0-.67h-1.3a.405.405,0,0,1,0-.811h3.035a.335.335,0,0,0,0-.67Z" fill="#040405"/><path d="M219.131,1874.622H221.5a.335.335,0,1,0,0-.67h-2.368a1.076,1.076,0,0,0,0,2.151H221.5a.335.335,0,0,0,0-.67h-2.368a.406.406,0,0,1,0-.811Z" fill="#040405"/><path d="M223.573,1876.914h-4.042a.405.405,0,0,1,0-.811H221.5a.335.335,0,0,0,0-.67h-1.968a1.076,1.076,0,0,0,0,2.151h4.042a.335.335,0,0,0,0-.67Z" fill="#040405"/><path d="M218.761,1873.141H221.5a.335.335,0,0,0,0-.67h-2.738a1.082,1.082,0,0,0,0,2.151H221.5a.335.335,0,1,0,0-.67h-2.738c-.157,0-.29-.186-.29-.406S218.6,1873.141,218.761,1873.141Z" fill="#040405"/><path d="M239.737,1876.992a.811.811,0,0,1-.078-.078H226.778v-6.69l9.144.026a.692.692,0,0,1,.376-.669l-9.854-.028h0a.333.333,0,0,0-.335.335v7.361a.335.335,0,0,0,.335.335h13.9A1.563,1.563,0,0,0,239.737,1876.992Z" fill="#040405"/></g></svg>