<svg xmlns="http://www.w3.org/2000/svg" width="138.466" height="150.761" viewBox="0 0 138.466 150.761"><g transform="translate(-119.182 -157.256)"><circle cx="5.612" cy="5.612" r="5.612" transform="translate(182.943 157.756)" fill="#fff" stroke="#161615" stroke-miterlimit="10" stroke-width="1"/><path d="M185.116,224.829V204.2H161.634a85.305,85.305,0,0,0-8.731.443l15.489,20.187Z" fill="none" stroke="#161615" stroke-miterlimit="10" stroke-width="1"/><path d="M146.38,233.236a10.44,10.44,0,0,1,2.946-4.772,12.6,12.6,0,0,1,5.637-2.771,32.608,32.608,0,0,1,5.805-.772l-14.617-19.234q-18.089,3.846-23.83,17.784l23.924,10.3c.047-.174.081-.362.135-.53" fill="none" stroke="#161615" stroke-miterlimit="10" stroke-width="1"/><path d="M145.512,252.554V240.259c0-.383.021-.731.027-1.087l-24.723-10.818a44.421,44.421,0,0,0-1.134,10.167v14.033h25.83Z" fill="none" stroke="#161615" stroke-miterlimit="10" stroke-width="1"/><path d="M145.512,270.072V257.516h-25.83v15.851a43.8,43.8,0,0,0,1.121,10.047l24.8-10.892c-.06-.786-.094-1.591-.094-2.45" fill="none" stroke="#161615" stroke-miterlimit="10" stroke-width="1"/><path d="M149.76,282.379a9.815,9.815,0,0,1-3.134-4.583l-24.321,10.516a26.441,26.441,0,0,0,7.523,10.348l1.017.819,1.249.906.626.4.755.488,1.326.763,2.266,1.133,1.281.517,1.406.567a48.066,48.066,0,0,0,7.61,2.054l15.61-20.657c-6.1-.1-10.516-1.181-13.214-3.275" fill="none" stroke="#161615" stroke-miterlimit="10" stroke-width="1"/><path d="M170.584,285.672l-16.5,21.5c2.4.2,4.892.343,7.55.343h23.481V285.672Z" fill="none" stroke="#161615" stroke-miterlimit="10" stroke-width="1"/><path d="M191.72,285.672v21.845H215.2a86.269,86.269,0,0,0,8.784-.443l-16.509-21.4Z" fill="none" stroke="#161615" stroke-miterlimit="10" stroke-width="1"/><path d="M254.619,288.237l-24.267-10.395a10.626,10.626,0,0,1-2.758,4.275c-2.329,2.127-6.5,3.288-12.49,3.51l15.583,20.421q18.271-3.825,23.932-17.811" fill="none" stroke="#161615" stroke-miterlimit="10" stroke-width="1"/><path d="M231.492,259.162v11.254c0,.759-.034,1.483-.081,2.175l24.69,10.764a43.3,43.3,0,0,0,1.047-9.644V259.182l-.007-.02Z" fill="none" stroke="#161615" stroke-miterlimit="10" stroke-width="1"/><path d="M231.492,240.429V254.2h25.656V238.524a44.208,44.208,0,0,0-1.107-10.04l-24.589,10.623c.02.437.04.866.04,1.322" fill="none" stroke="#161615" stroke-miterlimit="10" stroke-width="1"/><path d="M215.2,224.829q9.009,0,12.657,3.9a12.5,12.5,0,0,1,2.765,5.013l23.857-10.328q-5.919-14.4-25.025-18.006l-14.71,19.422Z" fill="none" stroke="#161615" stroke-miterlimit="10" stroke-width="1"/><path d="M207.056,224.829l15.583-20.294c-2.369-.2-4.825-.336-7.443-.336H191.721v20.63Z" fill="none" stroke="#161615" stroke-miterlimit="10" stroke-width="1"/><line y2="29.045" transform="translate(188.555 168.98)" fill="#fff" stroke="#161615" stroke-miterlimit="10" stroke-width="1"/></g></svg>