<svg xmlns="http://www.w3.org/2000/svg" width="280.889" height="290.74" viewBox="0 0 280.889 290.74"><g transform="translate(-47.245 -4757.431)"><path d="M184.584,4869.075" fill="none" stroke="#000" stroke-miterlimit="10" stroke-width="1"/><path d="M203.582,4876.41l-8.922,3.05s-8.7,2.143-10.076-10.385c0,0-24.491-28.817,3.537-37.894" fill="none" stroke="#000" stroke-miterlimit="10" stroke-width="1"/><path d="M180.246,4854.974c-2.626-7.388-2.375-16.107,10.219-20.185" fill="none" stroke="#000" stroke-miterlimit="10" stroke-width="1"/><rect width="7.8" height="19.131" rx="2.102" transform="translate(195.638 4865.296) rotate(-18.872)" fill="#fff" stroke="#000" stroke-miterlimit="10" stroke-width="1"/><circle cx="4.449" cy="4.449" r="4.449" transform="translate(203.244 4883.948)" fill="#fff" stroke="#000" stroke-miterlimit="10" stroke-width="1"/><path d="M203.582,4876.41l8.923-3.05s8.194-3.633,1.61-14.38c0,0,1.726-37.779-25.994-27.8" fill="none" stroke="#000" stroke-miterlimit="10" stroke-width="1"/><rect width="18.545" height="12.659" transform="translate(194.66 4879.459) rotate(-18.872)" fill="#fff" stroke="#000" stroke-miterlimit="10" stroke-width="1"/><path d="M190.148,4872.076s2.145,4.381,5.794,2.413" fill="none" stroke="#000" stroke-miterlimit="10" stroke-width="1"/><path d="M212.2,4864.316s.985,4.777-3.1,5.455" fill="none" stroke="#000" stroke-miterlimit="10" stroke-width="1"/><path d="M192.384,4855.777s2.232,9.868,6.944,8.257" fill="none" stroke="#000" stroke-miterlimit="10" stroke-width="1"/><path d="M199.765,4853.254s4.275,9.17-.437,10.78" fill="none" stroke="#000" stroke-miterlimit="10" stroke-width="1"/><line y1="2.35" x2="6.876" transform="translate(194.596 4859.074)" fill="none" stroke="#000" stroke-miterlimit="10" stroke-width="1"/><line y1="2.999" x2="8.774" transform="translate(195.777 4879.728)" fill="#fff" stroke="#000" stroke-miterlimit="10" stroke-width="1"/><line y1="2.999" x2="8.774" transform="translate(196.511 4881.877)" fill="#fff" stroke="#000" stroke-miterlimit="10" stroke-width="1"/><line y1="2.233" x2="6.532" transform="translate(197.657 4884.893)" fill="#fff" stroke="#000" stroke-miterlimit="10" stroke-width="1"/><path d="M299.4,4796.6l2.315-8.218s4.327,3.547,7.436-2.722c0,0,1.89-5.4-5.227-5.123l2.359-8.38-10.769-3.033s2.4,6.494-3.488,6.315c0,0-5.972-1.761.142-7.257l-10.264-2.89-3.026,10.746s8.675-4.317,7.362,3.666c0,0-1.739,7.191-8.379-.055l-2.84,10.086,9.513,2.679s-3.419,4.194,1.087,5.774c0,0,4.5,1.308,3.748-4.95Z" fill="#fff" stroke="#161615" stroke-miterlimit="10" stroke-width="1"/><circle cx="19.098" cy="19.098" r="19.098" transform="translate(119.009 4864.052)" fill="none" stroke="#040405" stroke-miterlimit="10" stroke-width="1"/><path d="M112.983,4890.892" fill="none" stroke="#040405" stroke-miterlimit="10" stroke-width="1"/><path d="M271.317,4904.817s4.756-5.343,13.38,2.849l-11.017,39.759-33.415,15.348s-14.643-2.814-6.611-13.188l27.458-12.275Z" fill="#fff" stroke="#040405" stroke-miterlimit="10" stroke-width="1"/><path d="M116.2,4897.275s-29.337-21.124-51.46,53.792l37.207,4.525S133.468,4908.344,116.2,4897.275Z" fill="none" stroke="#040405" stroke-miterlimit="10" stroke-width="1"/><path d="M110.452,4904.425s-11.233-4.185-11.233,7.709l28.854,31.938,34.14-13.656s8.046-12.555-5.008-13.877l-27.811,11.454Z" fill="#fff" stroke="#040405" stroke-miterlimit="10" stroke-width="1"/><path d="M66.475,4951.278S63.449,4962,77.637,4968.034l20.039,24.119-3.724,45.754H116.12l3.9-51.784-24.329-31.291" fill="none" stroke="#040405" stroke-miterlimit="10" stroke-width="1"/><path d="M93.554,5037.97v8.558H122.4s1.886-8.558-9.057-8.558" fill="none" stroke="#040405" stroke-miterlimit="10" stroke-width="1"/><circle cx="19.098" cy="19.098" r="19.098" transform="translate(243.805 4858.711)" fill="none" stroke="#040405" stroke-miterlimit="10" stroke-width="1"/><path d="M279.241,4892" fill="none" stroke="#040405" stroke-miterlimit="10" stroke-width="1"/><path d="M276.025,4898.381s29.337-21.124,51.46,53.792l-39.792,4.3S258.755,4909.45,276.025,4898.381Z" fill="#fff" stroke="#040405" stroke-miterlimit="10" stroke-width="1"/><path d="M281.772,4905.531s11.233-4.185,11.233,7.709l-28.854,31.938-34.14-13.656s-8.046-12.555,5.008-13.877l27.81,11.454Z" fill="#fff" stroke="#040405" stroke-miterlimit="10" stroke-width="1"/><path d="M321.276,4952.928s1.028,8.739-13.16,14.768l-13.569,25.563,3.725,45.754H276.1l-3.9-51.784,15.491-30.757" fill="none" stroke="#040405" stroke-miterlimit="10" stroke-width="1"/><path d="M298.665,5039.115v8.557H269.821s-1.886-8.557,9.057-8.557" fill="none" stroke="#040405" stroke-miterlimit="10" stroke-width="1"/><path d="M165.2,5024.668v21.868h66.046v-50.584H179.971" fill="none" stroke="#040405" stroke-miterlimit="10" stroke-width="1"/><line x1="0.306" y1="8.292" transform="translate(164.894 5001.135)" fill="none" stroke="#040405" stroke-miterlimit="10" stroke-width="1"/><line y2="8.51" transform="translate(165.2 5012.734)" fill="none" stroke="#040405" stroke-miterlimit="10" stroke-width="1"/><line x2="10.244" transform="translate(215.39 5039.859)" fill="none" stroke="#040405" stroke-miterlimit="10" stroke-width="1"/><line y2="11.055" transform="translate(215.755 4772.032)" fill="#fff" stroke="#161615" stroke-miterlimit="10" stroke-width="1"/><line y1="7.619" x2="7.768" transform="translate(222.627 4778.157)" fill="#fff" stroke="#161615" stroke-miterlimit="10" stroke-width="1"/><line x2="11.055" transform="translate(225.316 4792.499)" fill="#fff" stroke="#161615" stroke-miterlimit="10" stroke-width="1"/><line x2="7.768" y2="7.836" transform="translate(222.627 4799.521)" fill="#fff" stroke="#161615" stroke-miterlimit="10" stroke-width="1"/><line y2="10.308" transform="translate(215.755 4802.508)" fill="#fff" stroke="#161615" stroke-miterlimit="10" stroke-width="1"/><line x1="7.619" y2="7.836" transform="translate(201.264 4799.521)" fill="#fff" stroke="#161615" stroke-miterlimit="10" stroke-width="1"/><line x1="10.458" transform="translate(195.438 4792.499)" fill="#fff" stroke="#161615" stroke-miterlimit="10" stroke-width="1"/><line x2="7.619" y2="8.217" transform="translate(201.264 4777.56)" fill="#fff" stroke="#161615" stroke-miterlimit="10" stroke-width="1"/><line y2="5.068" transform="translate(147.422 4950.171)" fill="#fff" stroke="#161615" stroke-miterlimit="10" stroke-width="1"/><line y1="3.493" x2="3.561" transform="translate(150.572 4952.979)" fill="#fff" stroke="#161615" stroke-miterlimit="10" stroke-width="1"/><line x2="5.068" transform="translate(151.805 4959.554)" fill="#fff" stroke="#161615" stroke-miterlimit="10" stroke-width="1"/><line x2="3.561" y2="3.592" transform="translate(150.572 4962.773)" fill="#fff" stroke="#161615" stroke-miterlimit="10" stroke-width="1"/><line y2="4.726" transform="translate(147.422 4964.143)" fill="#fff" stroke="#161615" stroke-miterlimit="10" stroke-width="1"/><line x1="3.493" y2="3.592" transform="translate(140.778 4962.773)" fill="#fff" stroke="#161615" stroke-miterlimit="10" stroke-width="1"/><line x1="4.794" transform="translate(138.107 4959.554)" fill="#fff" stroke="#161615" stroke-miterlimit="10" stroke-width="1"/><line x2="3.493" y2="3.767" transform="translate(140.778 4952.705)" fill="#fff" stroke="#161615" stroke-miterlimit="10" stroke-width="1"/><line y2="5.068" transform="translate(251.656 4985.029)" fill="#fff" stroke="#161615" stroke-miterlimit="10" stroke-width="1"/><line y1="3.493" x2="3.561" transform="translate(254.807 4987.837)" fill="#fff" stroke="#161615" stroke-miterlimit="10" stroke-width="1"/><line x2="5.068" transform="translate(256.039 4994.412)" fill="#fff" stroke="#161615" stroke-miterlimit="10" stroke-width="1"/><line x2="3.561" y2="3.592" transform="translate(254.807 4997.631)" fill="#fff" stroke="#161615" stroke-miterlimit="10" stroke-width="1"/><line y2="4.726" transform="translate(251.656 4999)" fill="#fff" stroke="#161615" stroke-miterlimit="10" stroke-width="1"/><line x1="3.493" y2="3.592" transform="translate(245.013 4997.631)" fill="#fff" stroke="#161615" stroke-miterlimit="10" stroke-width="1"/><line x1="4.794" transform="translate(242.342 4994.412)" fill="#fff" stroke="#161615" stroke-miterlimit="10" stroke-width="1"/><line x2="3.493" y2="3.767" transform="translate(245.013 4987.563)" fill="#fff" stroke="#161615" stroke-miterlimit="10" stroke-width="1"/><line y2="8.907" transform="translate(305.016 4832.107)" fill="#fff" stroke="#161615" stroke-miterlimit="10" stroke-width="1"/><line y1="6.138" x2="6.259" transform="translate(310.553 4837.042)" fill="#fff" stroke="#161615" stroke-miterlimit="10" stroke-width="1"/><line x2="8.907" transform="translate(312.72 4848.597)" fill="#fff" stroke="#161615" stroke-miterlimit="10" stroke-width="1"/><line x2="6.259" y2="6.313" transform="translate(310.553 4854.254)" fill="#fff" stroke="#161615" stroke-miterlimit="10" stroke-width="1"/><line y2="8.305" transform="translate(305.016 4856.661)" fill="#fff" stroke="#161615" stroke-miterlimit="10" stroke-width="1"/><line x1="6.138" y2="6.313" transform="translate(293.341 4854.254)" fill="#fff" stroke="#161615" stroke-miterlimit="10" stroke-width="1"/><line x1="8.425" transform="translate(288.647 4848.597)" fill="#fff" stroke="#161615" stroke-miterlimit="10" stroke-width="1"/><line x2="6.138" y2="6.62" transform="translate(293.341 4836.561)" fill="#fff" stroke="#161615" stroke-miterlimit="10" stroke-width="1"/><path d="M214.913,4951.787l-19.237,44.166-16.587-44.166v-30.642h35.824Z" fill="none" stroke="#161615" stroke-miterlimit="10" stroke-width="1"/><path d="M204.547,4924.64" fill="none" stroke="#161615" stroke-miterlimit="10" stroke-width="0.709"/><path d="M208.208,4924.684" fill="none" stroke="#161615" stroke-miterlimit="10" stroke-width="0.709"/><path d="M211.561,4924.64" fill="none" stroke="#161615" stroke-miterlimit="10" stroke-width="0.709"/><path d="M190.357,4937.113l5.318,2.607,2.254,4.593,5.462-11.545Z" fill="none" stroke="#161615" stroke-miterlimit="10" stroke-width="1"/><line y1="4.097" x2="5.194" transform="translate(190.481 4939.72)" fill="none" stroke="#161615" stroke-miterlimit="10" stroke-width="1"/><path d="M191.027,4955.378s-3.359,0-3.359,3.159a3.337,3.337,0,0,0,2.66,3.458H205.06a2.9,2.9,0,0,0,1.829-2.993s.1-1.829-2.3-2.46a3.435,3.435,0,0,0-1.962-3.459,3.6,3.6,0,0,0-3.425,0s-1.729-2.694-4.522-2.028C194.685,4951.055,191.426,4951.354,191.027,4955.378Z" fill="none" stroke="#161615" stroke-miterlimit="10" stroke-width="1"/><path d="M177.77,4908.14s-3.359,0-3.359,3.159a3.337,3.337,0,0,0,2.66,3.458H191.8a2.9,2.9,0,0,0,1.829-2.993s.1-1.829-2.295-2.46a3.435,3.435,0,0,0-1.962-3.459,3.6,3.6,0,0,0-3.425,0s-1.729-2.693-4.522-2.028C181.428,4903.817,178.169,4904.116,177.77,4908.14Z" fill="none" stroke="#161615" stroke-miterlimit="10" stroke-width="1"/><path d="M156.006,4979.822l74.084-28.578,7.141,23.25-71.406,26.641Z" fill="#fff" stroke="#040405" stroke-miterlimit="10" stroke-width="1"/><line y2="12.631" transform="translate(243.805 4972.176)" fill="none" stroke="#161615" stroke-miterlimit="10" stroke-width="1"/><line x2="12.631" transform="translate(237.489 4978.491)" fill="none" stroke="#161615" stroke-miterlimit="10" stroke-width="1"/><line y2="12.631" transform="translate(266.597 4961.381)" fill="none" stroke="#161615" stroke-miterlimit="10" stroke-width="1"/><line x2="12.631" transform="translate(260.282 4967.696)" fill="none" stroke="#161615" stroke-miterlimit="10" stroke-width="1"/><line y2="12.631" transform="translate(167.981 4957.827)" fill="none" stroke="#161615" stroke-miterlimit="10" stroke-width="1"/><line x2="12.631" transform="translate(161.665 4964.143)" fill="none" stroke="#161615" stroke-miterlimit="10" stroke-width="1"/><line y2="12.631" transform="translate(217.925 4898.501)" fill="none" stroke="#161615" stroke-miterlimit="10" stroke-width="1"/><line x2="12.631" transform="translate(211.609 4904.817)" fill="none" stroke="#161615" stroke-miterlimit="10" stroke-width="1"/><path d="M197.278,5011.539v-5.913h-6.731a24.361,24.361,0,0,0-2.5.127l4.439,5.786Z" fill="none" stroke="#161615" stroke-miterlimit="10" stroke-width="1"/><path d="M186.175,5013.949a2.993,2.993,0,0,1,.844-1.368,3.61,3.61,0,0,1,1.616-.794,9.227,9.227,0,0,1,1.664-.221l-4.19-5.513q-5.186,1.1-6.831,5.1l6.858,2.951c.014-.05.023-.1.039-.152" fill="none" stroke="#161615" stroke-miterlimit="10" stroke-width="1"/><path d="M185.926,5019.486v-3.524c0-.11.006-.21.008-.312l-7.087-3.1a12.718,12.718,0,0,0-.325,2.914v4.022h7.4Z" fill="none" stroke="#161615" stroke-miterlimit="10" stroke-width="1"/><path d="M185.926,5024.508v-3.6h-7.4v4.544a12.556,12.556,0,0,0,.321,2.88l7.11-3.122c-.017-.225-.027-.456-.027-.7" fill="none" stroke="#161615" stroke-miterlimit="10" stroke-width="1"/><path d="M187.144,5028.035a2.807,2.807,0,0,1-.9-1.314l-6.971,3.015a7.582,7.582,0,0,0,2.156,2.966l.292.235.358.259.179.116.217.14.38.219.649.325.367.148.4.162a13.762,13.762,0,0,0,2.182.589l4.474-5.921a6.437,6.437,0,0,1-3.787-.939" fill="none" stroke="#161615" stroke-miterlimit="10" stroke-width="1"/><path d="M193.113,5028.979l-4.731,6.163c.689.058,1.4.1,2.164.1h6.731v-6.262Z" fill="none" stroke="#161615" stroke-miterlimit="10" stroke-width="1"/><path d="M199.171,5028.979v6.262H205.9a24.96,24.96,0,0,0,2.518-.127l-4.733-6.135Z" fill="none" stroke="#161615" stroke-miterlimit="10" stroke-width="1"/><path d="M217.2,5029.714l-6.956-2.979a3.047,3.047,0,0,1-.791,1.225,5.677,5.677,0,0,1-3.579,1.006l4.466,5.854q5.238-1.1,6.86-5.106" fill="none" stroke="#161615" stroke-miterlimit="10" stroke-width="1"/><path d="M210.571,5021.38v3.226c0,.218-.01.425-.023.623l7.077,3.086a12.424,12.424,0,0,0,.3-2.764v-4.165l0-.006Z" fill="none" stroke="#161615" stroke-miterlimit="10" stroke-width="1"/><path d="M210.571,5016.011v3.947h7.354v-4.493a12.715,12.715,0,0,0-.317-2.878l-7.049,3.045c.006.125.012.248.012.379" fill="none" stroke="#161615" stroke-miterlimit="10" stroke-width="1"/><path d="M205.9,5011.539a4.831,4.831,0,0,1,3.628,1.118,3.575,3.575,0,0,1,.792,1.437l6.839-2.961q-1.7-4.125-7.173-5.161l-4.217,5.567Z" fill="none" stroke="#161615" stroke-miterlimit="10" stroke-width="1"/><path d="M203.567,5011.539l4.466-5.817c-.679-.057-1.383-.1-2.133-.1h-6.729v5.913Z" fill="none" stroke="#161615" stroke-miterlimit="10" stroke-width="1"/><circle cx="42.051" cy="42.051" r="42.051" transform="translate(90.771 4757.931)" fill="#fff" stroke="#161615" stroke-miterlimit="10" stroke-width="1"/><path d="M119.706,4811.543a19.369,19.369,0,0,1-19.37-19.369" fill="none" stroke="#000" stroke-miterlimit="10" stroke-width="1"/><path d="M135.5,4776.141l-10.675-4.962-9.342-9.307" fill="none" stroke="#000" stroke-miterlimit="10" stroke-width="1"/><path d="M108.992,4804.386a15.941,15.941,0,0,1-5.813-12.325" fill="none" stroke="#000" stroke-miterlimit="10" stroke-width="1"/><rect width="8.908" height="17.817" rx="2.401" transform="matrix(0.673, 0.74, -0.74, 0.673, 120.074, 4798.745)" fill="#fff" stroke="#000" stroke-miterlimit="10" stroke-width="1"/><path d="M117.764,4802.86a2.9,2.9,0,0,1,4.088.2" fill="#fff" stroke="#000" stroke-miterlimit="10" stroke-width="1"/><rect width="8.908" height="17.817" rx="2.401" transform="matrix(0.673, 0.74, -0.74, 0.673, 126.082, 4805.354)" fill="#fff" stroke="#000" stroke-miterlimit="10" stroke-width="1"/><rect width="8.908" height="17.817" rx="2.401" transform="translate(132.131 4812.008) rotate(47.727)" fill="#fff" stroke="#000" stroke-miterlimit="10" stroke-width="1"/><path d="M142.36,4787.7c-19.809,20.981-23.208,3.769-23.208,3.769l22.959-21.494,8.641-.9,4.552-4.741" fill="#fff" stroke="#000" stroke-miterlimit="10" stroke-width="1"/><path d="M142.712,4825.007s6.466.9,5.434-6.4l-14.02-14.913" fill="#fff" stroke="#000" stroke-miterlimit="10" stroke-width="1"/><path d="M148.489,4819.082s7.3,1.414,6.633-6.238L141.1,4797.931" fill="none" stroke="#000" stroke-miterlimit="10" stroke-width="1"/><path d="M155.342,4813.129s7.218,1.2,6.165-6.015l-14.02-14.912" fill="none" stroke="#000" stroke-miterlimit="10" stroke-width="1"/><rect width="8.908" height="17.817" rx="2.401" transform="matrix(0.673, 0.74, -0.74, 0.673, 138.095, 4818.569)" fill="#fff" stroke="#000" stroke-miterlimit="10" stroke-width="1"/><path d="M123.99,4809.54a2.9,2.9,0,0,1,4.089.195" fill="#fff" stroke="#000" stroke-miterlimit="10" stroke-width="1"/><path d="M129.928,4815.932a2.9,2.9,0,0,1,4.088.195" fill="#fff" stroke="#000" stroke-miterlimit="10" stroke-width="1"/><path d="M164.457,4809.822a4.731,4.731,0,0,1,6.665.318" fill="#fff" stroke="#000" stroke-miterlimit="10" stroke-width="1"/><line x2="7.047" y2="6.974" transform="translate(93.289 4785.199)" fill="none" stroke="#161615" stroke-miterlimit="10" stroke-width="1"/><path d="M61.57,4831.776s-13.805,0-13.805,12.985c0,0-.683,11.891,10.935,14.215h60.55s7.518-2.187,7.518-12.3c0,0,.41-7.518-9.431-10.115,0,0,1.5-9.158-8.065-14.215,0,0-6.97-4.1-14.078,0,0,0-7.107-11.071-18.589-8.338C76.605,4814.007,63.21,4815.237,61.57,4831.776Z" fill="#fff" stroke="#161615" stroke-miterlimit="10" stroke-width="1"/><path d="M83.62,4824.161s4.068-6.654,11.693-1.774" fill="none" stroke="#000" stroke-miterlimit="10" stroke-width="1"/><path d="M61.569,4831.916s4.068-6.654,11.693-1.774" fill="none" stroke="#000" stroke-miterlimit="10" stroke-width="1"/><path d="M54.75,4840.388s7-6.654,20.131-1.774" fill="none" stroke="#000" stroke-miterlimit="10" stroke-width="1"/></g></svg>