<svg xmlns="http://www.w3.org/2000/svg" width="296.712" height="346.318" viewBox="0 0 296.712 346.318"><g transform="translate(-36.866 -4020.817)"><path d="M231.478,4100.373l7.518-1.058,9.7,18.872Zm7.165-.377-5.86.826,13.422,13.884Z" fill="#757474"/><path d="M247.156,4308.171l-3.547-88.656.526.389,74.846,55.43Zm-2.868-87.375,3.457,86.418,70.012-32.01Z" fill="#757474"/><path d="M319.1,4276.163l-29.87-67.967-.108-.245-45.888,12.068,75.872,56.188Zm-30.335-67.471,28.839,65.624-72.949-54.023Z" fill="#757474"/><path d="M66.322,4189.834l16.057-13.407,11.187,45.754Zm15.687-12.282-14.8,12.359,25.117,29.822Z" fill="#757474"/><path d="M247.765,4154.17l-.635-38.237,20.666,10.429Zm.008-37.211.586,35.314,18.5-25.682Z" fill="#757474"/><path d="M327.879,4142.35a5.919,5.919,0,0,1-.79-.069l.718,1.114-59.3-16.907.7-.185a2.449,2.449,0,0,1-.487-.52l-2.575.682,63.088,17.989Z" fill="#757474"/><path d="M47.862,4078.411v-.079l-.2-.358c-.259-.023-.515-.058-.77-.1l.343.62.015,1.475a11.592,11.592,0,0,1,.652,2.389Z" fill="#757474"/><path d="M82.563,4177.09l-34.717-98.78-.6.157.6,3.468c.011.053.019.106.029.16l18.588,107.831.092.535Zm-34.07-95.049,33.335,94.847-14.847,12.4Z" fill="#757474"/><path d="M219.434,4064.651l.571-.251,19.3,35.5-7.391,1.041-.084-.244Zm18.895,34.757-17.084-31.418,11.1,32.261Z" fill="#757474"/><path d="M219.464,4062.055a3.056,3.056,0,0,1-.463.77l.267,1.133-1-.514a2.644,2.644,0,0,1-.788.3l2.706,1.4Z" fill="#757474"/><path d="M166.955,4106.8l52.925-42.774,12.677,36.848Zm52.624-41.726-50.626,40.917,62.752-5.669Z" fill="#757474"/><path d="M220.3,4064.491l-2.026-1.047a2.633,2.633,0,0,1-.788.3l1.675.866-51,41.222-14.392-68.814.184-.017a3.376,3.376,0,0,1,0-.628l-.942.084,14.745,70.506Z" fill="#757474"/><path d="M206.29,4217.084l38.272,2.8-24.114,30.363Zm37.045,3.34-36.066-2.64,13.341,31.254Z" fill="#757474"/><path d="M220.163,4249.6l.121-.15,23.944-30.149,3.6,89.944Zm23.506-28.589-22.775,28.677,26.181,56.45Z" fill="#757474"/><path d="M221.493,4305.226l-1.311-57.076,27.785,59.912Zm-.616-54.089,1.229,53.525,24.827,2.66Z" fill="#757474"/><path d="M174.471,4310.219l46.35-61.483,1.3,56.489Zm45.766-59.667-44.4,58.894,45.642-4.783Z" fill="#757474"/><path d="M174.443,4311.3l19.961-75.314,26.6,13.552-.224.3Zm20.367-74.4-18.943,71.475,44.188-58.614Z" fill="#757474"/><path d="M194.159,4236.56l12.676-19.793,14.321,33.547Zm12.566-18.458-11.667,18.214,24.845,12.657Z" fill="#757474"/><path d="M81.563,4178.13l22.28-82.764,29.112,27.393Zm22.613-81.591-21.351,79.31,49.249-53.06Z" fill="#757474"/><path d="M47.048,4077.931l57.342,17.812-.079.291-22.077,82.012Zm56.58,18.231L48.051,4078.9l34.1,97.034Z" fill="#757474"/><path d="M321.765,4327.79l.272-.543.311.441.029,0c.134-.155.273-.306.415-.452l-.847-1.2-.978,1.951C321.23,4327.91,321.5,4327.844,321.765,4327.79Z" fill="#757474"/><path d="M322.792,4327.231l-.395-.559.457-.471a4.742,4.742,0,0,1-.263-.63l-1.005,1.039.762,1.078.029,0C322.511,4327.528,322.65,4327.377,322.792,4327.231Z" fill="#757474"/><path d="M246.512,4307.776l72.137-32.979,3.685,52.254Zm71.576-32.035-69.7,31.866,73.26,18.623Z" fill="#757474"/><path d="M322.592,4325.571l-.337.348-3.55-50.336.335,0a5.468,5.468,0,0,1-.006-.626l-.664,0h-.337l3.7,52.407,1.126-1.161A4.609,4.609,0,0,1,322.592,4325.571Z" fill="#757474"/><path d="M108.7,4088.148l60.136,18.186L132.4,4123.17l-.148-.221Zm58.378,18.308-56.87-17.2,22.42,33.12Z" fill="#757474"/><path d="M103.591,4095.988l5.873-7.824,24.893,36.774Zm5.847-6.746-5.01,6.675,26.244,24.693Z" fill="#757474"/><path d="M153.692,4036.671l-.057-.273-1.411.127a3.419,3.419,0,0,1,.192.612l.72-.065,14.4,68.87-57.581-17.412.628-.876a3.282,3.282,0,0,1-.541-.32l-.85,1.187-.254.355,59.427,17.972Z" fill="#757474"/><path d="M329.226,4172.789l.272-1.368a2.67,2.67,0,0,1-.46-.894l-.653,3.278,1.1-.447a5.116,5.116,0,0,1,.071-.7Z" fill="#757474"/><path d="M329.5,4171.421a2.776,2.776,0,0,1-.553-2.078c.044-.385.083-.77.124-1.156l-.227-23.382.525.633a2.55,2.55,0,0,1,.259-.668l-1.427-1.726.323,33.281Z" fill="#757474"/><path d="M329.626,4144.77l-.7-.84.888-1.015a5.243,5.243,0,0,1-.4-.492l-1.307,1.5,1.257,1.519A2.55,2.55,0,0,1,329.626,4144.77Z" fill="#757474"/><path d="M327.879,4142.35a5.79,5.79,0,0,1-.791-.07l1.395,2.164,1.337-1.53a4.975,4.975,0,0,1-.4-.491l-.859.982Z" fill="#757474"/><path d="M271.052,4080.484l-4.076,46.409,2.232-.59a2.449,2.449,0,0,1-.487-.52l-1.042.277L271.371,4084a4.371,4.371,0,0,1,.189-3.386l-.289-.257C271.2,4080.407,271.126,4080.444,271.052,4080.484Z" fill="#757474"/><path d="M271.371,4084a4.39,4.39,0,0,1,.319-3.632l.01-.106c-.075-.021-.147-.044-.22-.067-.066.053-.129.109-.2.157l-24.287,36.211,20.6,10.4Zm-23.462,32.323,23.008-34.305-3.861,43.967Z" fill="#757474"/><path d="M271.74,4080.276l-.042-.011L238.4,4099.534l9.01,17.527,23.815-35.505A4.7,4.7,0,0,1,271.74,4080.276Zm-32.506,19.5,31.089-17.992-22.836,34.046Z" fill="#757474"/><path d="M169.684,4163.653l.278-9.347,28.952-14.539Zm.893-8.954-.227,7.6,23.771-19.425Z" fill="#757474"/><path d="M169.98,4155l-2.384-49.536,29.412,35.963Zm-1.668-47.671,2.248,46.68,25.468-12.791Z" fill="#757474"/><path d="M195.26,4142.284l36.86-42.149,15.856,16.4Zm36.883-41.224-34.368,39.3,49.151-24Z" fill="#757474"/><path d="M167.338,4106.136l65.543-5.921-36.371,41.591Zm64.043-5.157-62.81,5.674,27.954,34.183Z" fill="#757474"/><path d="M129.324,4290.791l.106-.281,18.093-47.277,28.219,67.188Zm18.225-45.878-17.426,45.538,44.444,18.794Z" fill="#757474"/><path d="M147.093,4243.827l47.941-7.774L175.222,4310.8Zm47.088-7-46.2,7.494,27.108,64.547Z" fill="#757474"/><path d="M239,4099.315c-.227.012.225.037,0,0h0l32.335-18.114a4.8,4.8,0,0,1,.232-.589l-.338-.226a2.929,2.929,0,0,1-.663.309l.182.122-31.178,18.045Z" fill="#757474"/><path d="M239.286,4099.878c-.229.011-.163-.138-.387-.175l-.091-.725L220.3,4064.943l1.141.154a3.271,3.271,0,0,1-.206-.659l-2.076-.282,19.672,36.176Z" fill="#757474"/><path d="M221.235,4064.438l-1.25-.17-.521-2.213a3.073,3.073,0,0,1-.463.77l.473,2.005,1.967.268A3.3,3.3,0,0,1,221.235,4064.438Z" fill="#757474"/><path d="M206.311,4217.713l28.842-64.1,9.158,66.881Zm28.517-61.851-27.579,61.292,36.337,2.662Z" fill="#757474"/><path d="M234.637,4154.465l13.76-1.6-4.136,67.309-.623.022Zm13.09-.888-12.382,1.436,8.485,61.968Z" fill="#757474"/><path d="M169.473,4162.729l66.032-8.371-28.671,63.717Zm65-7.609-63.914,8.1,36.163,53.571Z" fill="#757474"/><path d="M168.974,4163.424l27.481-22.456.166.057,39.731,13.856Zm27.606-21.75-25.52,20.854,62.569-7.933Z" fill="#757474"/><path d="M234.542,4155.106l13.191-40.537.646,38.931Zm12.628-36.781-11.731,36.046,12.305-1.428Z" fill="#757474"/><path d="M195.705,4141.369l52.272-25.528-12.787,39.3-.3-.1Zm51.22-24.317-49.6,24.221,37.461,13.065Z" fill="#757474"/><path d="M260.387,4354.307v-.012l.655.232c.221-.15.452-.285.683-.421l-1.934-.688-.025.72C259.974,4354.191,260.183,4354.243,260.387,4354.307Z" fill="#757474"/><path d="M261.727,4354.106l-.789-.282,60.383-26.547-.354.708q.395-.112.8-.2l.9-1.785-63.419,27.885,1.8.639C261.264,4354.377,261.495,4354.242,261.727,4354.106Z" fill="#757474"/><path d="M260.05,4354.215l62.9-27.654-75.423-19.173-.521-.132,12.843,46.9C259.916,4354.177,259.983,4354.2,260.05,4354.215Zm60.983-27.495-60.737,26.7-12.4-45.3Z" fill="#757474"/><path d="M260.552,4354.358,247.7,4307.4l-26.6-2.849,38.854,49.637C260.153,4354.243,260.355,4354.291,260.552,4354.358ZM247.2,4307.98l12.173,44.458-36.874-47.1Z" fill="#757474"/><path d="M261.019,4354.535l-39.079-49.921-47.856,5.016,86.077,44.616C260.451,4354.331,260.737,4354.428,261.019,4354.535Zm-39.359-49.261,37.3,47.642-82.73-42.881Z" fill="#757474"/><path d="M110.587,4087.654a3.215,3.215,0,0,1-.541-.32l-.023.032.008-.043a3.284,3.284,0,0,1-.542-.5l-.609,3.221Z" fill="#757474"/><path d="M166.151,4180.3l3.709-18.115,38.691,57.314Zm4.023-16.53-3.338,16.31,38.173,35.294Z" fill="#757474"/><path d="M81.793,4176.66l85.834,3.258-74.888,41.511Zm83.566,3.8L82.6,4177.317l10.553,43.167Z" fill="#757474"/><path d="M81.5,4177.277l51.07-55.024.214.361,34.27,57.908-.573-.021Zm50.958-53.982L82.888,4176.7l83.043,3.152Z" fill="#757474"/><path d="M130.777,4120.452l39.579,42.428-3.719,18.166Zm38.9,42.619L134.252,4125.1l32.1,54.233Z" fill="#757474"/><path d="M92.231,4221l74.78-41.452L147.735,4244.5Zm73.744-40.162-72.317,40.086,53.678,22.728Z" fill="#757474"/><path d="M147.093,4244.461l19.325-65.122,28.66,57.341Zm19.474-63.423-18.589,62.646,46.159-7.487Z" fill="#757474"/><path d="M165.446,4178.794l41.739,38.588-12.612,19.69Zm40.929,38.692-38.835-35.9,27.1,54.223Z" fill="#757474"/><path d="M242.114,4220.962l43.663-28.045,3.543,15.631Zm43.249-27.035-39.58,25.423,42.792-11.255Z" fill="#757474"/><path d="M243.6,4220.753l4.2-68.278,38.261,41.007-.316.2Zm4.732-66.786-4.031,65.592,40.787-26.2Z" fill="#757474"/><path d="M329.5,4173.1a5.032,5.032,0,0,1,.065-.5l-44.132,20.542-.228.107,3.55,15.66Zm-2.542,1.4-37.826,33.238-3.2-14.14Z" fill="#757474"/><path d="M328.937,4173.58l.184-.084-.029-2.806a2.943,2.943,0,0,1-.147-1.347c.045-.386.083-.773.124-1.158l-.243-25.09-44.454,51.231Zm-.447-.482-41.721,19.421,41.447-47.765Z" fill="#757474"/><path d="M247.657,4153.247l19.8-27.486,18.747,68.8Zm19.541-26.055-18.731,26,36.468,39.086Z" fill="#757474"/><path d="M266.879,4126.023l62.2,17.735-43.658,50.312Zm61.083,18.067-60.187-17.16,17.943,65.844Z" fill="#757474"/><path d="M92.475,4220.417l56.388,23.879-49.027,3.38-.066-.25Zm53.733,23.434L93.414,4221.5l6.893,25.521Z" fill="#757474"/><path d="M247.09,4303.915a3.319,3.319,0,1,0,3.6,3.007A3.32,3.32,0,0,0,247.09,4303.915Z" fill="#040505"/><path d="M259.265,4350.133a3.32,3.32,0,1,0,3.6,3.008A3.32,3.32,0,0,0,259.265,4350.133Z" fill="#040505"/><g opacity="0.4"><rect width="67.213" height="0.626" transform="matrix(0.65, -0.76, 0.76, 0.65, 109.226, 4087.96)" fill="#040505"/></g><g opacity="0.4"><rect width="0.626" height="70.721" transform="translate(153.037 4037.323) rotate(-68.574)" fill="#040505"/></g><circle cx="4.286" cy="4.286" r="4.286" transform="translate(313.471 4270.919)" fill="#fff" stroke="#161615" stroke-miterlimit="10" stroke-width="1"/><circle cx="4.286" cy="4.286" r="4.286" transform="translate(284.748 4203.351)" fill="#fff" stroke="#161615" stroke-miterlimit="10" stroke-width="1"/><circle cx="4.286" cy="4.286" r="4.286" transform="translate(239.088 4215.87)" fill="#fff" stroke="#161615" stroke-miterlimit="10" stroke-width="1"/><circle cx="4.286" cy="4.286" r="4.286" transform="translate(281.287 4188.634)" fill="#fff" stroke="#161615" stroke-miterlimit="10" stroke-width="1"/><circle cx="4.286" cy="4.286" r="4.286" transform="translate(324.427 4169.847)" fill="#fff" stroke="#161615" stroke-miterlimit="10" stroke-width="1"/><circle cx="4.286" cy="4.286" r="4.286" transform="translate(324.507 4139.353)" fill="#fff" stroke="#161615" stroke-miterlimit="10" stroke-width="1"/><circle cx="4.286" cy="4.286" r="4.286" transform="translate(263.757 4122.062)" fill="#fff" stroke="#161615" stroke-miterlimit="10" stroke-width="1"/><circle cx="4.286" cy="4.286" r="4.286" transform="translate(243.053 4112.078)" fill="#fff" stroke="#161615" stroke-miterlimit="10" stroke-width="1"/><circle cx="4.286" cy="4.286" r="4.286" transform="translate(230.317 4150.241)" fill="#fff" stroke="#161615" stroke-miterlimit="10" stroke-width="1"/><circle cx="4.286" cy="4.286" r="4.286" transform="translate(192.612 4136.555)" fill="#fff" stroke="#161615" stroke-miterlimit="10" stroke-width="1"/><circle cx="4.286" cy="4.286" r="4.286" transform="translate(165.518 4159.113)" fill="#fff" stroke="#161615" stroke-miterlimit="10" stroke-width="1"/><circle cx="4.286" cy="4.286" r="4.286" transform="translate(162.866 4176.108)" fill="#fff" stroke="#161615" stroke-miterlimit="10" stroke-width="1"/><circle cx="4.286" cy="4.286" r="4.286" transform="translate(202.826 4213.023)" fill="#fff" stroke="#161615" stroke-miterlimit="10" stroke-width="1"/><circle cx="4.286" cy="4.286" r="4.286" transform="translate(190.326 4231.584)" fill="#fff" stroke="#161615" stroke-miterlimit="10" stroke-width="1"/><circle cx="4.286" cy="4.286" r="4.286" transform="translate(216.273 4244.804)" fill="#fff" stroke="#161615" stroke-miterlimit="10" stroke-width="1"/><circle cx="4.286" cy="4.286" r="4.286" transform="translate(217.507 4300.064)" fill="#fff" stroke="#161615" stroke-miterlimit="10" stroke-width="1"/><circle cx="4.286" cy="4.286" r="4.286" transform="translate(170.927 4304.736)" fill="#fff" stroke="#161615" stroke-miterlimit="10" stroke-width="1"/><circle cx="4.286" cy="4.286" r="4.286" transform="translate(125.642 4285.969)" fill="#fff" stroke="#161615" stroke-miterlimit="10" stroke-width="1"/><circle cx="4.286" cy="4.286" r="4.286" transform="translate(143.605 4240.057)" fill="#fff" stroke="#161615" stroke-miterlimit="10" stroke-width="1"/><circle cx="4.286" cy="4.286" r="4.286" transform="translate(96.162 4242.872)" fill="#fff" stroke="#161615" stroke-miterlimit="10" stroke-width="1"/><circle cx="4.286" cy="4.286" r="4.286" transform="translate(88.661 4215.994)" fill="#fff" stroke="#161615" stroke-miterlimit="10" stroke-width="1"/><circle cx="4.286" cy="4.286" r="4.286" transform="translate(78.648 4172.695)" fill="#fff" stroke="#161615" stroke-miterlimit="10" stroke-width="1"/><circle cx="4.286" cy="4.286" r="4.286" transform="translate(43.751 4075.196)" fill="#fff" stroke="#161615" stroke-miterlimit="10" stroke-width="1"/><circle cx="4.286" cy="4.286" r="4.286" transform="translate(62.641 4184.943)" fill="#fff" stroke="#161615" stroke-miterlimit="10" stroke-width="1"/><circle cx="4.286" cy="4.286" r="4.286" transform="translate(227.803 4096.828)" fill="#fff" stroke="#161615" stroke-miterlimit="10" stroke-width="1"/><circle cx="4.286" cy="4.286" r="4.286" transform="translate(215.16 4059.583)" fill="#fff" stroke="#161615" stroke-miterlimit="10" stroke-width="1"/><circle cx="4.286" cy="4.286" r="4.286" transform="translate(266.499 4076.566)" fill="#fff" stroke="#161615" stroke-miterlimit="10" stroke-width="1"/><circle cx="57.679" cy="57.679" r="57.679" transform="translate(37.366 4146.108)" fill="#fff" stroke="#161615" stroke-miterlimit="10" stroke-width="1"/><circle cx="44.004" cy="44.004" r="44.004" transform="translate(51.042 4159.784)" fill="#fff" stroke="#161615" stroke-miterlimit="10" stroke-width="1"/><line y2="14.622" transform="translate(95.046 4152.473)" fill="none" stroke="#161615" stroke-miterlimit="10" stroke-width="1"/><line y2="14.622" transform="translate(95.046 4240.48)" fill="none" stroke="#161615" stroke-miterlimit="10" stroke-width="1"/><line x2="14.622" transform="translate(43.731 4203.787)" fill="none" stroke="#161615" stroke-miterlimit="10" stroke-width="1"/><line x2="14.622" transform="translate(131.019 4203.787)" fill="none" stroke="#161615" stroke-miterlimit="10" stroke-width="1"/><path d="M38.7,4159.784l17.088-14.329,4.882,21.64Z" fill="#fff" stroke="#161615" stroke-miterlimit="10" stroke-width="1"/><path d="M147.329,4158.507l-17.088-14.329-4.882,21.64Z" fill="#fff" stroke="#161615" stroke-miterlimit="10" stroke-width="1"/><path d="M39.83,4248.775,56.918,4263.1l4.882-21.64Z" fill="#fff" stroke="#161615" stroke-miterlimit="10" stroke-width="1"/><path d="M148.462,4250.051l-17.088,14.329-4.882-21.64Z" fill="#fff" stroke="#161615" stroke-miterlimit="10" stroke-width="1"/><path d="M114.939,4180.249l-10.853,4.39-9.041,13.775L84.995,4195.8l-11.359,10.916" fill="none" stroke="#161615" stroke-miterlimit="10" stroke-width="1"/><line x2="28.496" transform="translate(73.636 4215.863)" fill="none" stroke="#161615" stroke-miterlimit="10" stroke-width="1"/><line x2="28.496" transform="translate(73.636 4219.305)" fill="none" stroke="#161615" stroke-miterlimit="10" stroke-width="1"/><line x2="19.947" transform="translate(73.636 4223.658)" fill="none" stroke="#161615" stroke-miterlimit="10" stroke-width="1"/><path d="M111.568,4179.09" fill="none" stroke="#161615" stroke-miterlimit="10" stroke-width="1"/><path d="M110.209,4178.849l5.01,1.219-2.505,4.289" fill="none" stroke="#161615" stroke-miterlimit="10" stroke-width="1"/><circle cx="58.846" cy="58.846" r="58.846" transform="translate(215.086 4245.562)" fill="#fff" stroke="#161615" stroke-miterlimit="10" stroke-width="1"/><circle cx="44.894" cy="44.894" r="44.894" transform="translate(229.038 4259.514)" fill="#fff" stroke="#161615" stroke-miterlimit="10" stroke-width="1"/><line y2="14.918" transform="translate(273.932 4252.055)" fill="none" stroke="#161615" stroke-miterlimit="10" stroke-width="1"/><line y2="14.918" transform="translate(273.932 4341.842)" fill="none" stroke="#161615" stroke-miterlimit="10" stroke-width="1"/><line x2="14.918" transform="translate(221.579 4304.407)" fill="none" stroke="#161615" stroke-miterlimit="10" stroke-width="1"/><line x2="14.918" transform="translate(310.633 4304.407)" fill="none" stroke="#161615" stroke-miterlimit="10" stroke-width="1"/><path d="M216.444,4259.514l17.433-14.618,4.981,22.077Z" fill="#fff" stroke="#161615" stroke-miterlimit="10" stroke-width="1"/><path d="M327.272,4258.212l-17.433-14.619-4.981,22.078Z" fill="#fff" stroke="#161615" stroke-miterlimit="10" stroke-width="1"/><path d="M217.6,4350.3l17.433,14.618,4.981-22.077Z" fill="#fff" stroke="#161615" stroke-miterlimit="10" stroke-width="1"/><path d="M328.428,4351.606l-17.433,14.619-4.981-22.078Z" fill="#fff" stroke="#161615" stroke-miterlimit="10" stroke-width="1"/><path d="M293.661,4297.061a18.214,18.214,0,1,1-18.213-18.215" fill="none" stroke="#161615" stroke-miterlimit="10" stroke-width="1"/><path d="M275.11,4297.061l18.79-3.577a15.86,15.86,0,0,0-15.86-15.861l-2.592,19.438" fill="none" stroke="#161615" stroke-miterlimit="10" stroke-width="1"/><line x2="16.483" transform="translate(256.066 4322.768)" fill="none" stroke="#161615" stroke-miterlimit="10" stroke-width="1"/><line x2="16.483" transform="translate(256.066 4326.21)" fill="none" stroke="#161615" stroke-miterlimit="10" stroke-width="1"/><line x2="11.538" transform="translate(256.066 4330.563)" fill="none" stroke="#161615" stroke-miterlimit="10" stroke-width="1"/><line x2="16.483" transform="translate(277.672 4322.313)" fill="none" stroke="#161615" stroke-miterlimit="10" stroke-width="1"/><line x2="16.483" transform="translate(277.672 4325.755)" fill="none" stroke="#161615" stroke-miterlimit="10" stroke-width="1"/><line x2="11.538" transform="translate(277.672 4330.108)" fill="none" stroke="#161615" stroke-miterlimit="10" stroke-width="1"/><circle cx="43.247" cy="43.247" r="43.247" transform="translate(245.768 4021.317)" fill="#fff" stroke="#161615" stroke-miterlimit="10" stroke-width="1"/><circle cx="17.199" cy="17.199" r="17.199" transform="translate(255.607 4054.799) rotate(-45)" fill="none" stroke="#161615" stroke-miterlimit="10" stroke-width="1"/><circle cx="13.56" cy="13.56" r="13.56" transform="translate(260.753 4054.799) rotate(-45)" fill="none" stroke="#161615" stroke-miterlimit="10" stroke-width="1"/><line x1="18.201" y1="17.925" transform="translate(292.184 4066.867)" fill="none" stroke="#161615" stroke-miterlimit="10" stroke-width="1"/><path d="M271.326,4049.325c.8-1.167,9.5-6.781,17.209.23" fill="none" stroke="#161615" stroke-miterlimit="10" stroke-width="1"/></g></svg>